<?xml version="1.0" encoding="UTF-8"?>
<svg version="1.1" xmlns="http://www.w3.org/2000/svg" width="330" height="218">
<path d="M0 0 C108.9 0 217.8 0 330 0 C330 71.94 330 143.88 330 218 C221.1 218 112.2 218 0 218 C0 146.06 0 74.12 0 0 Z " fill="#429444" transform="translate(0,0)"/>
<path d="M0 0 C3.86875678 1.43953741 7.45210102 3.42292042 10.6875 6 C10.6875 6.66 10.6875 7.32 10.6875 8 C12.6675 8.66 14.6475 9.32 16.6875 10 C16.6875 10.66 16.6875 11.32 16.6875 12 C18.6675 12.66 20.6475 13.32 22.6875 14 C22.6875 14.66 22.6875 15.32 22.6875 16 C23.574375 16.268125 24.46125 16.53625 25.375 16.8125 C29.41428848 18.26054681 32.54838927 20.02840555 35.8125 22.8125 C40.1248486 26.09363481 44.89927886 28.48429712 49.6875 31 C49.6875 31.66 49.6875 32.32 49.6875 33 C50.63625 33.309375 51.585 33.61875 52.5625 33.9375 C55.6875 35 55.6875 35 57.6875 36 C57.6875 36.66 57.6875 37.32 57.6875 38 C60.6575 38.99 60.6575 38.99 63.6875 40 C63.6875 40.66 63.6875 41.32 63.6875 42 C64.5125 42.20625 65.3375 42.4125 66.1875 42.625 C69.98653864 44.11747947 72.56280147 46.05609489 75.74609375 48.55078125 C78.24015031 50.41254178 80.87316382 51.68265115 83.6875 53 C86.03964291 54.3025051 88.36151396 55.65092809 90.6875 57 C90.6875 57.66 90.6875 58.32 90.6875 59 C93.6575 59.99 93.6575 59.99 96.6875 61 C96.6875 61.66 96.6875 62.32 96.6875 63 C97.63625 63.309375 98.585 63.61875 99.5625 63.9375 C102.6875 65 102.6875 65 104.6875 66 C104.6875 66.66 104.6875 67.32 104.6875 68 C105.63625 68.309375 106.585 68.61875 107.5625 68.9375 C110.6875 70 110.6875 70 112.6875 71 C112.6875 71.66 112.6875 72.32 112.6875 73 C114.62034108 73.97282068 116.5541385 74.93717445 118.51171875 75.859375 C123.91596238 78.44253548 128.75756354 81.61378102 133.6875 85 C135.37342161 86.12736399 137.06087252 87.25244506 138.75 88.375 C140.0625 89.25 141.375 90.125 142.6875 91 C142.546875 92.765625 142.546875 92.765625 141.6875 95 C139.203125 96.859375 139.203125 96.859375 135.9375 98.75 C134.7472159 99.4515177 133.55711685 100.15334948 132.3671875 100.85546875 C131.75584961 101.21044434 131.14451172 101.56541992 130.51464844 101.93115234 C127.66899565 103.59580599 124.86747012 105.33041414 122.0625 107.0625 C121.00160156 107.71347656 119.94070313 108.36445312 118.84765625 109.03515625 C114.80457529 111.54896308 110.81283975 114.13886939 106.83203125 116.75 C104.6875 118 104.6875 118 102.6875 118 C102.6875 118.66 102.6875 119.32 102.6875 120 C100.5703125 121.5078125 100.5703125 121.5078125 97.8125 123.125 C96.90757812 123.66382813 96.00265625 124.20265625 95.0703125 124.7578125 C92.6875 126 92.6875 126 90.6875 126 C90.6875 126.66 90.6875 127.32 90.6875 128 C89.5325 128.61875 88.3775 129.2375 87.1875 129.875 C81.6783972 132.91602475 76.38828869 136.29411333 71.09765625 139.69677734 C65.90241759 143 65.90241759 143 63.6875 143 C63.3575 143.99 63.0275 144.98 62.6875 146 C61.0375 146.33 59.3875 146.66 57.6875 147 C57.6875 147.66 57.6875 148.32 57.6875 149 C48.27747722 154.37129841 48.27747722 154.37129841 43.6875 156 C43.6875 156.66 43.6875 157.32 43.6875 158 C42.65625 158.474375 41.625 158.94875 40.5625 159.4375 C35.69335817 161.85029479 31.21369583 164.81378293 26.70068359 167.82592773 C24.12040954 169.52864849 21.7221292 170.98686641 18.82421875 172.0859375 C17.76654297 172.53839844 17.76654297 172.53839844 16.6875 173 C16.3575 173.99 16.0275 174.98 15.6875 176 C14.015625 177.09765625 14.015625 177.09765625 11.9375 178.0625 C11.22078125 178.39894531 10.5040625 178.73539063 9.765625 179.08203125 C7.42746374 180.11486564 5.08109159 181.10240315 2.6875 182 C2.6875 182.66 2.6875 183.32 2.6875 184 C-2.0625 185.125 -2.0625 185.125 -4.3125 184 C-4.3125 183.34 -4.3125 182.68 -4.3125 182 C-5.09625 181.814375 -5.88 181.62875 -6.6875 181.4375 C-10.8979553 179.76783669 -14.0787484 177.44513047 -17.73046875 174.80078125 C-20.75560404 172.69096678 -23.88790857 170.94189163 -27.12890625 169.19140625 C-29.40990591 167.94685366 -31.64962689 166.6539815 -33.875 165.3125 C-34.53628906 164.91675781 -35.19757813 164.52101562 -35.87890625 164.11328125 C-36.35199219 163.74589844 -36.82507813 163.37851563 -37.3125 163 C-37.3125 162.34 -37.3125 161.68 -37.3125 161 C-38.26125 160.690625 -39.21 160.38125 -40.1875 160.0625 C-43.3125 159 -43.3125 159 -45.3125 158 C-45.3125 157.34 -45.3125 156.68 -45.3125 156 C-46.09625 155.814375 -46.88 155.62875 -47.6875 155.4375 C-51.92296709 153.75791822 -55.18574451 151.43236618 -58.84765625 148.75390625 C-63.12420865 145.7108444 -67.60072158 143.30110109 -72.3125 141 C-72.3125 140.34 -72.3125 139.68 -72.3125 139 C-73.17875 138.7525 -74.045 138.505 -74.9375 138.25 C-78.52310064 136.92199976 -81.27577987 135.31369152 -84.3125 133 C-84.3125 132.34 -84.3125 131.68 -84.3125 131 C-85.26125 130.690625 -86.21 130.38125 -87.1875 130.0625 C-90.3125 129 -90.3125 129 -92.3125 128 C-92.3125 127.34 -92.3125 126.68 -92.3125 126 C-95.2825 125.01 -95.2825 125.01 -98.3125 124 C-98.3125 123.34 -98.3125 122.68 -98.3125 122 C-99.63507813 121.60554688 -99.63507813 121.60554688 -100.984375 121.203125 C-104.23157865 120.02925326 -106.69675518 118.6547765 -109.5625 116.75 C-114.10255645 113.77097666 -118.70845009 110.97078583 -123.4140625 108.26171875 C-125.3125 107 -125.3125 107 -126.3125 105 C-128.62215848 103.94647157 -130.9554774 102.94280904 -133.3125 102 C-133.3125 101.34 -133.3125 100.68 -133.3125 100 C-134.611875 99.62875 -134.611875 99.62875 -135.9375 99.25 C-139.54180787 97.91507116 -142.29225979 96.37304588 -145.3125 94 C-145.3125 93.01 -145.3125 92.02 -145.3125 91 C-143.1953125 89.39453125 -143.1953125 89.39453125 -140.4375 87.8125 C-139.53257812 87.28269531 -138.62765625 86.75289063 -137.6953125 86.20703125 C-135.3125 85 -135.3125 85 -133.3125 85 C-133.3125 84.34 -133.3125 83.68 -133.3125 83 C-131.1953125 81.4921875 -131.1953125 81.4921875 -128.4375 79.875 C-127.53257813 79.33617188 -126.62765625 78.79734375 -125.6953125 78.2421875 C-123.3125 77 -123.3125 77 -121.3125 77 C-121.3125 76.34 -121.3125 75.68 -121.3125 75 C-119.44140625 73.66796875 -119.44140625 73.66796875 -116.875 72.1875 C-115.96105469 71.65640625 -115.04710938 71.1253125 -114.10546875 70.578125 C-110.91213464 68.77377957 -107.70605404 66.99471962 -104.48828125 65.234375 C-101.5645225 63.5756537 -98.75079081 61.76251417 -95.94140625 59.91796875 C-94.3125 59 -94.3125 59 -92.3125 59 C-92.3125 58.34 -92.3125 57.68 -92.3125 57 C-90.3325 56.34 -88.3525 55.68 -86.3125 55 C-86.3125 54.34 -86.3125 53.68 -86.3125 53 C-85.219375 52.566875 -84.12625 52.13375 -83 51.6875 C-80.16818573 50.48526094 -78.39539516 49.29118468 -76.3125 47 C-75.3225 46.67 -74.3325 46.34 -73.3125 46 C-72.3069291 45.00560211 -71.30761011 44.00486609 -70.3125 43 C-68.8380818 42.04272848 -67.33452516 41.12961195 -65.8125 40.25 C-61.02696306 37.45025038 -56.38403273 34.4728926 -51.7578125 31.41796875 C-49.54178703 30.13295718 -47.81377659 29.44790302 -45.3125 29 C-45.3125 28.34 -45.3125 27.68 -45.3125 27 C-43.42532741 25.69488064 -41.47398126 24.48218156 -39.5 23.3125 C-38.29383841 22.58926235 -37.0881155 21.86529263 -35.8828125 21.140625 C-35.27727539 20.77904297 -34.67173828 20.41746094 -34.04785156 20.04492188 C-31.63153456 18.58996454 -29.25188201 17.08086642 -26.875 15.5625 C-25.99714844 15.00175781 -25.11929688 14.44101562 -24.21484375 13.86328125 C-22.03924131 12.46656205 -19.86479894 11.06811877 -17.69140625 9.66796875 C-17.0687085 9.26698975 -16.44601074 8.86601074 -15.80444336 8.45288086 C-14.59246607 7.67199789 -13.3810091 6.89030654 -12.17016602 6.10766602 C-10.55466414 5.06598519 -8.93371172 4.03277191 -7.3125 3 C-5.94158203 2.12601563 -5.94158203 2.12601563 -4.54296875 1.234375 C-2.3125 0 -2.3125 0 0 0 Z " fill="#EDD749" transform="translate(166.3125,15)"/>
<path d="M0 0 C0.77730469 0.27328125 1.55460937 0.5465625 2.35546875 0.828125 C18.13482066 6.64296155 32.65180009 15.65207327 45 27 C42.97415706 39.56022623 35.83048557 48.85256299 26.5 57.25 C16.85714286 64 16.85714286 64 13 64 C13 64.66 13 65.32 13 66 C8.8803623 67.29243536 5.33168317 68.26252625 1 68 C1 68.66 1 69.32 1 70 C-9.66019434 72.08167575 -20.93429758 72.28327763 -31 68 C-32.155 67.71125 -33.31 67.4225 -34.5 67.125 C-46.90746595 63.13688594 -57.23391547 53.70300214 -64.109375 42.77734375 C-65 41 -65 41 -65 39 C-65.66 39 -66.32 39 -67 39 C-68.49821059 35.62902617 -69 33.79557881 -69 30 C-69.66 30 -70.32 30 -71 30 C-73.16178094 23.00198186 -73.2678033 16.47819391 -73.1875 9.1875 C-73.18685547 8.05634766 -73.18621094 6.92519531 -73.18554688 5.75976562 C-73.14085673 -2.57742982 -73.14085673 -2.57742982 -72 -6 C-47.97632332 -8.68770157 -22.79749463 -8.78125719 0 0 Z " fill="#12296F" transform="translate(178,98)"/>
<path d="M0 0 C0.73798828 -0.00386719 1.47597656 -0.00773437 2.23632812 -0.01171875 C6.45458711 -0.00421962 10.4077442 0.29536572 14.5625 1.125 C14.5625 1.785 14.5625 2.445 14.5625 3.125 C15.26117188 3.18558594 15.95984375 3.24617188 16.6796875 3.30859375 C18.04480469 3.43427734 18.04480469 3.43427734 19.4375 3.5625 C20.34242188 3.64371094 21.24734375 3.72492187 22.1796875 3.80859375 C24.5625 4.125 24.5625 4.125 26.5625 5.125 C26.5625 5.785 26.5625 6.445 26.5625 7.125 C27.5525 7.2178125 27.5525 7.2178125 28.5625 7.3125 C35.0579008 9.07167105 40.09166549 13.20708204 44.5625 18.125 C45.20316406 18.80820313 45.84382813 19.49140625 46.50390625 20.1953125 C50.57455855 24.61830487 53.79535327 28.79568038 56.5625 34.125 C57.09875 34.90875 57.635 35.6925 58.1875 36.5 C61.89745937 43.5826497 61.82895582 51.36934582 61.6875 59.1875 C61.67847656 60.14849609 61.66945313 61.10949219 61.66015625 62.09960938 C61.63685208 64.44167805 61.60414058 66.78319792 61.5625 69.125 C57.66273772 66.85736045 53.99389677 64.35543298 50.3125 61.75 C45.81059905 58.59433077 41.26830088 55.68132945 36.40625 53.109375 C34.5625 52.125 34.5625 52.125 32.0625 50.5 C28.41474015 48.49373208 24.53159421 47.34426423 20.5625 46.125 C20.8925 44.475 21.2225 42.825 21.5625 41.125 C20.5725 41.125 19.5825 41.125 18.5625 41.125 C18.5625 42.115 18.5625 43.105 18.5625 44.125 C17.16551364 43.83890693 15.7699567 43.54583095 14.375 43.25 C13.59769531 43.08757812 12.82039063 42.92515625 12.01953125 42.7578125 C9.5625 42.125 9.5625 42.125 7.39453125 41.15234375 C3.17954925 39.62332269 -1.13252724 39.16312041 -5.5625 38.5625 C-7.35710614 38.3136037 -9.15139417 38.06239997 -10.9453125 37.80859375 C-11.73566895 37.70087646 -12.52602539 37.59315918 -13.34033203 37.48217773 C-15.4375 37.125 -15.4375 37.125 -18.4375 36.125 C-21.1690956 36.03992921 -23.87441443 36.00908435 -26.60546875 36.02734375 C-27.40028152 36.0287587 -28.1950943 36.03017365 -29.01399231 36.03163147 C-31.55103325 36.03722622 -34.08798575 36.04977772 -36.625 36.0625 C-38.34570185 36.06751568 -40.06640508 36.07207847 -41.78710938 36.07617188 C-46.0039403 36.08719393 -50.22070516 36.10445494 -54.4375 36.125 C-51.38393671 26.53159908 -44.67705475 19.91785882 -37.4375 13.125 C-36.2 11.949375 -36.2 11.949375 -34.9375 10.75 C-31.53231529 8.53662994 -28.40973769 7.93291275 -24.4375 7.125 C-24.4375 6.465 -24.4375 5.805 -24.4375 5.125 C-20.61429443 3.70241188 -17.52468695 2.88457724 -13.4375 3.125 C-13.4375 2.465 -13.4375 1.805 -13.4375 1.125 C-8.96503415 0.00909763 -4.57956253 -0.02387261 0 0 Z " fill="#0F276C" transform="translate(164.4375,45.875)"/>
<path d="M0 0 C0.69652679 0.00082581 1.39305359 0.00165161 2.11068726 0.00250244 C12.44117725 0.0308023 22.08131461 0.76353439 32.125 3.3125 C33.89438888 3.63307748 35.6651195 3.94639778 37.4375 4.25 C42.8732158 5.3334391 47.9755601 7.2957992 53.125 9.3125 C53.125 8.3225 53.125 7.3325 53.125 6.3125 C54.115 6.3125 55.105 6.3125 56.125 6.3125 C55.795 7.9625 55.465 9.6125 55.125 11.3125 C55.71667969 11.42207031 56.30835938 11.53164062 56.91796875 11.64453125 C58.10326172 11.88236328 58.10326172 11.88236328 59.3125 12.125 C60.08980469 12.27582031 60.86710937 12.42664063 61.66796875 12.58203125 C64.51033194 13.42705814 66.62265133 14.72922384 69.125 16.3125 C70.89273861 17.2558224 72.66367853 18.19316614 74.4375 19.125 C78.6397414 21.4063777 82.47183545 23.83080323 86.1953125 26.828125 C88.12897953 28.37826048 88.12897953 28.37826048 90.4296875 29.671875 C92.72090948 31.08307747 94.43935859 32.20889301 96.125 34.3125 C96.49941551 37.82462298 95.98715854 40.9042795 95.125 44.3125 C91.58941891 43.59937855 89.71944815 42.249052 86.98828125 39.890625 C73.35551514 28.34421513 57.94356577 21.77336515 41.125 16.3125 C40.18914062 15.99410156 39.25328125 15.67570312 38.2890625 15.34765625 C24.48222499 10.85708288 10.65615908 11.05894433 -3.6875 11.1875 C-5.65168813 11.19755363 -7.61588125 11.20667525 -9.58007812 11.21484375 C-14.34517779 11.23665974 -19.11003228 11.27105718 -23.875 11.3125 C-23.13825184 8.17162624 -22.29022968 5.21903113 -20.875 2.3125 C-14.73908379 -1.11664957 -6.8626325 -0.03393416 0 0 Z " fill="#C6D3D1" transform="translate(129.875,80.6875)"/>
<path d="M0 0 C1.00870903 -0.00287018 1.00870903 -0.00287018 2.03779602 -0.00579834 C3.44878517 -0.00715109 4.85978716 -0.00351867 6.27075195 0.00488281 C8.43013258 0.01564669 10.58869094 0.0049314 12.74804688 -0.0078125 C14.12369975 -0.00649173 15.49935211 -0.00393104 16.875 0 C18.74224731 0.00338379 18.74224731 0.00338379 20.6472168 0.00683594 C23.73828125 0.265625 23.73828125 0.265625 26.73828125 2.265625 C25.74828125 2.265625 24.75828125 2.265625 23.73828125 2.265625 C23.73828125 4.245625 23.73828125 6.225625 23.73828125 8.265625 C26.21328125 8.760625 26.21328125 8.760625 28.73828125 9.265625 C29.06828125 7.945625 29.39828125 6.625625 29.73828125 5.265625 C31.38828125 4.935625 33.03828125 4.605625 34.73828125 4.265625 C35.23328125 8.225625 35.23328125 8.225625 35.73828125 12.265625 C34.83234726 12.1590432 34.83234726 12.1590432 33.90811157 12.05030823 C27.77129286 11.37579979 21.74450323 11.13124044 15.57421875 11.16796875 C14.19709213 11.17009117 14.19709213 11.17009117 12.79214478 11.17225647 C9.89915517 11.1777928 7.00624692 11.19033281 4.11328125 11.203125 C2.1354178 11.20814825 0.15755311 11.2127097 -1.8203125 11.21679688 C-6.63414528 11.22774127 -11.44791829 11.24496082 -16.26171875 11.265625 C-15.52497707 8.1247789 -14.67486565 5.17305701 -13.26171875 2.265625 C-9.03927711 -0.12220214 -4.78487571 0.00864755 0 0 Z " fill="#C1D4CA" transform="translate(122.26171875,80.734375)"/>
<path d="M0 0 C5.65416655 2.26166662 10.54156131 5.59765339 15.5625 9 C16.6972272 9.70293711 17.83266284 10.40473173 18.96875 11.10546875 C22.14433186 13.15377393 24.99259643 15.19482356 27.5625 18 C28.2583199 21.6632871 27.76171333 24.49741961 26.5625 28 C23.03871805 27.28925842 21.17133076 25.95759565 18.45703125 23.59375 C11.99288309 18.15586866 5.25909042 13.48524849 -2.4375 10 C-1.7775 9.67 -1.1175 9.34 -0.4375 9 C-0.7675 8.34 -1.0975 7.68 -1.4375 7 C-2.0975 7 -2.7575 7 -3.4375 7 C-3.4375 6.01 -3.4375 5.02 -3.4375 4 C-4.7575 4.33 -6.0775 4.66 -7.4375 5 C-5.10909139 -1.48628113 -5.10909139 -1.48628113 0 0 Z " fill="#CED9D8" transform="translate(198.4375,97)"/>
<path d="M0 0 C4.47202789 1.76096336 8.39856376 4.19936604 12.375 6.875 C11.89204545 13.39488636 11.89204545 13.39488636 9.625 15.5 C6.34003425 16.04749429 5.04776965 14.76549561 2.375 12.875 C1.446875 12.318125 0.51875 11.76125 -0.4375 11.1875 C-1.5203125 10.5378125 -1.5203125 10.5378125 -2.625 9.875 C-1.965 9.545 -1.305 9.215 -0.625 8.875 C-0.955 8.215 -1.285 7.555 -1.625 6.875 C-2.285 6.875 -2.945 6.875 -3.625 6.875 C-3.625 5.885 -3.625 4.895 -3.625 3.875 C-4.945 4.205 -6.265 4.535 -7.625 4.875 C-5.28609785 -1.64051313 -5.28609785 -1.64051313 0 0 Z " fill="#B8CCC5" transform="translate(198.625,97.125)"/>
<path d="M0 0 C0.9583374 0.00523682 1.9166748 0.01047363 2.90405273 0.01586914 C4.45576172 0.02070312 4.45576172 0.02070312 6.03881836 0.02563477 C7.12743164 0.03401367 8.21604492 0.04239258 9.33764648 0.05102539 C10.97636719 0.05779297 10.97636719 0.05779297 12.64819336 0.06469727 C15.35723144 0.07652713 18.06616248 0.09300996 20.77514648 0.11352539 C20.77514648 2.42352539 20.77514648 4.73352539 20.77514648 7.11352539 C19.45514648 6.78352539 18.13514648 6.45352539 16.77514648 6.11352539 C17.10514648 4.79352539 17.43514648 3.47352539 17.77514648 2.11352539 C15.30014648 1.61852539 15.30014648 1.61852539 12.77514648 1.11352539 C12.77514648 3.09352539 12.77514648 5.07352539 12.77514648 7.11352539 C12.11514648 7.11352539 11.45514648 7.11352539 10.77514648 7.11352539 C10.44514648 5.46352539 10.11514648 3.81352539 9.77514648 2.11352539 C8.45514648 1.78352539 7.13514648 1.45352539 5.77514648 1.11352539 C6.10514648 2.43352539 6.43514648 3.75352539 6.77514648 5.11352539 C7.76514648 5.11352539 8.75514648 5.11352539 9.77514648 5.11352539 C9.77514648 6.10352539 9.77514648 7.09352539 9.77514648 8.11352539 C7.46514648 8.11352539 5.15514648 8.11352539 2.77514648 8.11352539 C2.44514648 6.46352539 2.11514648 4.81352539 1.77514648 3.11352539 C0.78514648 3.11352539 -0.20485352 3.11352539 -1.22485352 3.11352539 C-1.88485352 5.42352539 -2.54485352 7.73352539 -3.22485352 10.11352539 C-4.21485352 10.11352539 -5.20485352 10.11352539 -6.22485352 10.11352539 C-5.74934791 8.63317775 -5.26934136 7.15427518 -4.78735352 5.67602539 C-4.52051758 4.85231445 -4.25368164 4.02860352 -3.97875977 3.17993164 C-2.87206283 0.1465499 -2.87206283 0.1465499 0 0 Z " fill="#CDDAD4" transform="translate(112.224853515625,81.886474609375)"/>
<path d="M0 0 C7.12600133 -0.35368021 12.47059106 0.04328652 19 3 C19 3.99 19 4.98 19 6 C18.34 6 17.68 6 17 6 C17 7.32 17 8.64 17 10 C15.33388095 10.042721 13.66617115 10.04063832 12 10 C11 9 11 9 10.9375 5.4375 C10.958125 4.303125 10.97875 3.16875 11 2 C8.50447516 2.78130071 8.50447516 2.78130071 6 4 C5.67 4.99 5.34 5.98 5 7 C3.02 7 1.04 7 -1 7 C-0.67 4.69 -0.34 2.38 0 0 Z " fill="#E9ECED" transform="translate(146,83)"/>
<path d="M0 0 C0.99 0 1.98 0 3 0 C2.68991116 1.60463449 2.37683713 3.20869231 2.0625 4.8125 C1.88847656 5.70582031 1.71445313 6.59914063 1.53515625 7.51953125 C1 10 1 10 0 13 C-1.65 12.67 -3.3 12.34 -5 12 C-5 8.61976483 -4.12544378 6.16531063 -3 3 C-3.99 3 -4.98 3 -6 3 C-6 3.99 -6 4.98 -6 6 C-7.98 6 -9.96 6 -12 6 C-11.67 4.68 -11.34 3.36 -11 2 C-6.70700357 0.73735399 -4.12168689 1.37049588 0 3 C0 2.01 0 1.02 0 0 Z " fill="#A2BAB4" transform="translate(183,87)"/>
<path d="M0 0 C1.98 0 3.96 0 6 0 C5.67 0.99 5.34 1.98 5 3 C4.01 2.34 3.02 1.68 2 1 C2 2.98 2 4.96 2 7 C5.63 7.33 9.26 7.66 13 8 C13.33 6.68 13.66 5.36 14 4 C15.65 3.67 17.3 3.34 19 3 C19.33 5.64 19.66 8.28 20 11 C17.79154015 10.68839539 15.58323749 10.37567654 13.375 10.0625 C11.53035156 9.80146484 11.53035156 9.80146484 9.6484375 9.53515625 C6.42443816 9.06225699 3.21187824 8.54848998 0 8 C0 5.36 0 2.72 0 0 Z " fill="#D8E1DF" transform="translate(138,82)"/>
<path d="M0 0 C2.0625 0.4375 2.0625 0.4375 4 1 C4 2.65 4 4.3 4 6 C13.57 6 23.14 6 33 6 C33 6.33 33 6.66 33 7 C15.675 7.495 15.675 7.495 -2 8 C-1 1 -1 1 0 0 Z " fill="#7077A5" transform="translate(111,84)"/>
<path d="M0 0 C4.35992871 -0.04945386 8.71970862 -0.08574488 13.07983398 -0.10986328 C14.56293583 -0.11991821 16.04601788 -0.13356404 17.52905273 -0.15087891 C19.66134531 -0.17515006 21.79337569 -0.18648799 23.92578125 -0.1953125 C25.85031128 -0.21102295 25.85031128 -0.21102295 27.8137207 -0.22705078 C31 0 31 0 34 2 C33.01 2 32.02 2 31 2 C31 3.98 31 5.96 31 8 C29.02 8 27.04 8 25 8 C25 6.02 25 4.04 25 2 C25.99 2.33 26.98 2.66 28 3 C28.33 2.34 28.66 1.68 29 1 C19.43 1 9.86 1 0 1 C0 0.67 0 0.34 0 0 Z " fill="#8AA7A4" transform="translate(115,81)"/>
<path d="M0 0 C1.95979427 0.28168297 3.91782378 0.57566717 5.875 0.875 C7.51082031 1.11863281 7.51082031 1.11863281 9.1796875 1.3671875 C12 2 12 2 14 4 C13.01 4.33 12.02 4.66 11 5 C10.67 5.66 10.34 6.32 10 7 C8.35 7 6.7 7 5 7 C5 7.99 5 8.98 5 10 C3.68 9.67 2.36 9.34 1 9 C1.66 9 2.32 9 3 9 C3 7.68 3 6.36 3 5 C3.66 5 4.32 5 5 5 C5 4.01 5 3.02 5 2 C3.35 1.67 1.7 1.34 0 1 C0 0.67 0 0.34 0 0 Z " fill="#A6C6B0" transform="translate(160,84)"/>
<path d="M0 0 C2.31 0 4.62 0 7 0 C6.42415568 2.38564077 5.77772405 4.66682784 5 7 C3.02 7 1.04 7 -1 7 C-0.67 4.69 -0.34 2.38 0 0 Z " fill="#F1F4F2" transform="translate(146,83)"/>
<path d="M0 0 C0.99 0.33 1.98 0.66 3 1 C2.75 4.375 2.75 4.375 2 8 C-0.0625 9.4375 -0.0625 9.4375 -2 10 C-2.79953138 6.71303767 -3.09658936 5.28976808 -2 2 C-1.34 1.34 -0.68 0.68 0 0 Z " fill="#9BBFA6" transform="translate(208,103)"/>
<path d="M0 0 C1.32 0 2.64 0 4 0 C4.33 2.64 4.66 5.28 5 8 C1.7 7.67 -1.6 7.34 -5 7 C-3.68 6.67 -2.36 6.34 -1 6 C-0.67 4.02 -0.34 2.04 0 0 Z " fill="#A3C2AE" transform="translate(153,85)"/>
<path d="M0 0 C1.32 0.33 2.64 0.66 4 1 C4.33 2.98 4.66 4.96 5 7 C2.69 7 0.38 7 -2 7 C-1.34 4.69 -0.68 2.38 0 0 Z " fill="#A2C6A8" transform="translate(111,84)"/>
<path d="M0 0 C3.63 0 7.26 0 11 0 C11 2.31 11 4.62 11 7 C9.68 6.67 8.36 6.34 7 6 C7.33 4.68 7.66 3.36 8 2 C6.35 1.67 4.7 1.34 3 1 C3 2.98 3 4.96 3 7 C2.34 7 1.68 7 1 7 C0.67 4.69 0.34 2.38 0 0 Z " fill="#E0EBE2" transform="translate(122,82)"/>
<path d="M0 0 C0.71929687 0.29003906 1.43859375 0.58007812 2.1796875 0.87890625 C2.90414062 1.16636719 3.62859375 1.45382813 4.375 1.75 C4.92929688 1.97816406 5.48359375 2.20632812 6.0546875 2.44140625 C3.56375939 3.6868703 2.64388017 3.21816405 0.0546875 2.44140625 C-0.2753125 4.09140625 -0.6053125 5.74140625 -0.9453125 7.44140625 C-1.2753125 6.45140625 -1.6053125 5.46140625 -1.9453125 4.44140625 C-3.2653125 4.77140625 -4.5853125 5.10140625 -5.9453125 5.44140625 C-3.61894954 -1.03917627 -3.61894954 -1.03917627 0 0 Z " fill="#93B7A2" transform="translate(196.9453125,96.55859375)"/>
<path d="M0 0 C0.66 0 1.32 0 2 0 C1.67 2.97 1.34 5.94 1 9 C-0.32 8.67 -1.64 8.34 -3 8 C-3 3.77471908 -2.74375671 2.95481492 0 0 Z " fill="#E2E3DE" transform="translate(224,116)"/>
<path d="M0 0 C0.598125 0.350625 1.19625 0.70125 1.8125 1.0625 C0.8225 1.5575 0.8225 1.5575 -0.1875 2.0625 C-0.5175 3.0525 -0.8475 4.0425 -1.1875 5.0625 C-2.8375 5.0625 -4.4875 5.0625 -6.1875 5.0625 C-5.8575 3.4125 -5.5275 1.7625 -5.1875 0.0625 C-2.1875 -0.9375 -2.1875 -0.9375 0 0 Z " fill="#A4C7AD" transform="translate(224.1875,113.9375)"/>
<path d="M0 0 C1.32 0.33 2.64 0.66 4 1 C3.34 3.97 2.68 6.94 2 10 C0.68 9.67 -0.64 9.34 -2 9 C-1.34 6.03 -0.68 3.06 0 0 Z " fill="#DAE3E0" transform="translate(210,105)"/>
<path d="M0 0 C-0.99 0.33 -1.98 0.66 -3 1 C-3 2.98 -3 4.96 -3 7 C-4.32 6.67 -5.64 6.34 -7 6 C-7 4.68 -7 3.36 -7 2 C-7.66 1.67 -8.32 1.34 -9 1 C-5.57367167 -0.61798838 -3.61944899 -1.34053666 0 0 Z " fill="#E3EBE6" transform="translate(209,104)"/>
<path d="M0 0 C1.32 0 2.64 0 4 0 C3.125 5.75 3.125 5.75 2 8 C0.68 7.34 -0.64 6.68 -2 6 C-1.34 4.02 -0.68 2.04 0 0 Z " fill="#96BDA0" transform="translate(213,110)"/>
<path d="M0 0 C3.1875 0.875 3.1875 0.875 6 2 C5.01 2.495 5.01 2.495 4 3 C3.34 2.67 2.68 2.34 2 2 C2 2.66 2 3.32 2 4 C0.68 3.67 -0.64 3.34 -2 3 C-2 3.66 -2 4.32 -2 5 C-1.01 5 -0.02 5 1 5 C1 5.99 1 6.98 1 8 C-0.32 7.67 -1.64 7.34 -3 7 C-3.1875 4.625 -3.1875 4.625 -3 2 C-2.01 1.34 -1.02 0.68 0 0 Z " fill="#91B7A0" transform="translate(189,93)"/>
<path d="M0 0 C1.98 0 3.96 0 6 0 C5.67 1.65 5.34 3.3 5 5 C3.68 5 2.36 5 1 5 C0.67 3.35 0.34 1.7 0 0 Z " fill="#606D9B" transform="translate(118,120)"/>
<path d="M0 0 C-2.98646769 1.99097846 -5.59687262 2.94124926 -9 4 C-8.67 2.35 -8.34 0.7 -8 -1 C-4.37673261 -2.2077558 -3.35853631 -1.54311128 0 0 Z " fill="#94BCA0" transform="translate(208,102)"/>
<path d="M0 0 C1.65 0 3.3 0 5 0 C4.01 0.66 3.02 1.32 2 2 C0.7811879 5.55672179 0.7811879 5.55672179 0 9 C-0.99 9 -1.98 9 -3 9 C-2.01 6.03 -1.02 3.06 0 0 Z " fill="#E5E7DB" transform="translate(109,83)"/>
<path d="M0 0 C1.65 0 3.3 0 5 0 C5 1.98 5 3.96 5 6 C3.35 5.67 1.7 5.34 0 5 C0 3.35 0 1.7 0 0 Z " fill="#9EC7A4" transform="translate(132,83)"/>
<path d="M0 0 C0 1.32 0 2.64 0 4 C-1.65 4 -3.3 4 -5 4 C-5.33 2.68 -5.66 1.36 -6 0 C-3 -1 -3 -1 0 0 Z " fill="#68729F" transform="translate(168,133)"/>
<path d="M0 0 C1.32 0.33 2.64 0.66 4 1 C3.01 1.33 2.02 1.66 1 2 C-0.20882096 4.00016466 -0.20882096 4.00016466 -1 6 C-2.65 6 -4.3 6 -6 6 C-6 5.01 -6 4.02 -6 3 C-4.35 3 -2.7 3 -1 3 C-0.67 2.01 -0.34 1.02 0 0 Z " fill="#E9EFEB" transform="translate(171,88)"/>
<path d="M0 0 C2.475 0.495 2.475 0.495 5 1 C5 2.65 5 4.3 5 6 C4.67 5.34 4.34 4.68 4 4 C3.01 4 2.02 4 1 4 C0.67 4.66 0.34 5.32 0 6 C0 4.02 0 2.04 0 0 Z " fill="#89BE90" transform="translate(118,83)"/>
<path d="M0 0 C1.65 0 3.3 0 5 0 C5.33 1.32 5.66 2.64 6 4 C5.01 4 4.02 4 3 4 C2.67 4.33 2.34 4.66 2 5 C1.34 5 0.68 5 0 5 C0 3.35 0 1.7 0 0 Z " fill="#95C39B" transform="translate(125,83)"/>
<path d="M0 0 C2.31 0.66 4.62 1.32 7 2 C6.01 2.33 5.02 2.66 4 3 C3.67 3.99 3.34 4.98 3 6 C2.01 6 1.02 6 0 6 C0 4.02 0 2.04 0 0 Z " fill="#44528B" transform="translate(181,100)"/>
<path d="M0 0 C0.99 0 1.98 0 3 0 C2.814375 0.94875 2.62875 1.8975 2.4375 2.875 C1.71313368 5.89868793 1.71313368 5.89868793 3 8 C1.68 7.67 0.36 7.34 -1 7 C-0.67 4.69 -0.34 2.38 0 0 Z " fill="#E7EDE9" transform="translate(177,90)"/>
<path d="M0 0 C1.65 0.33 3.3 0.66 5 1 C4.2884375 1.61875 4.2884375 1.61875 3.5625 2.25 C1.83733482 4.182185 1.43415125 5.48192275 1 8 C0.01 7.67 -0.98 7.34 -2 7 C-1.34 4.69 -0.68 2.38 0 0 Z " fill="#E6EAEA" transform="translate(184,92)"/>
<path d="M0 0 C1.9375 0.3125 1.9375 0.3125 4 1 C4.33 1.99 4.66 2.98 5 4 C3.02 4 1.04 4 -1 4 C-0.67 2.68 -0.34 1.36 0 0 Z " fill="#8ABE90" transform="translate(172,89)"/>
<path d="M0 0 C-1.20381448 2.49361571 -2.45428722 4.68143083 -4 7 C-4.66 6.67 -5.32 6.34 -6 6 C-6 5.01 -6 4.02 -6 3 C-2.66666667 0 -2.66666667 0 0 0 Z " fill="#CCCB46" transform="translate(27,103)"/>
<path d="M0 0 C5.94 0.99 5.94 0.99 12 2 C8 4 8 4 5.859375 3.5390625 C5.16328125 3.23742187 4.4671875 2.93578125 3.75 2.625 C3.04359375 2.32851562 2.3371875 2.03203125 1.609375 1.7265625 C1.07828125 1.48679687 0.5471875 1.24703125 0 1 C0 0.67 0 0.34 0 0 Z " fill="#95A1B8" transform="translate(160,84)"/>
</svg>
