<?xml version="1.0" encoding="UTF-8"?>
<svg version="1.1" xmlns="http://www.w3.org/2000/svg" width="332" height="202">
<path d="M0 0 C109.56 0 219.12 0 332 0 C332 66.66 332 133.32 332 202 C222.44 202 112.88 202 0 202 C0 135.34 0 68.68 0 0 Z " fill="#F6F6F6" transform="translate(0,0)"/>
<path d="M0 0 C1.12470703 -0.00773437 2.24941406 -0.01546875 3.40820312 -0.0234375 C10.23730813 -0.00756509 16.55600934 0.60081467 23.1875 2.25 C23.1875 2.91 23.1875 3.57 23.1875 4.25 C24.6415625 4.3428125 24.6415625 4.3428125 26.125 4.4375 C34.7497159 5.70430938 41.63017571 11.94047722 48.1875 17.25 C49.156875 17.95125 50.12625 18.6525 51.125 19.375 C53.4636933 21.50108482 54.27201005 23.25385108 55.1875 26.25 C55.8475 26.25 56.5075 26.25 57.1875 26.25 C58.1775 28.725 58.1775 28.725 59.1875 31.25 C59.8475 31.25 60.5075 31.25 61.1875 31.25 C62.6481285 33.89738916 63.1875 35.14448334 63.1875 38.25 C63.8475 38.25 64.5075 38.25 65.1875 38.25 C65.69309908 39.68554025 66.1917749 41.1235202 66.6875 42.5625 C67.10515625 43.76326172 67.10515625 43.76326172 67.53125 44.98828125 C68.1875 47.25 68.1875 47.25 68.1875 50.25 C68.8475 50.25 69.5075 50.25 70.1875 50.25 C71.37474096 56.78924781 71.33558129 63.24297642 71.3125 69.875 C71.31636719 70.99390625 71.32023438 72.1128125 71.32421875 73.265625 C71.32228516 74.88597656 71.32228516 74.88597656 71.3203125 76.5390625 C71.31918457 77.51568848 71.31805664 78.49231445 71.31689453 79.49853516 C71.1907454 82.18098937 70.78716873 84.6363495 70.1875 87.25 C69.5275 87.25 68.8675 87.25 68.1875 87.25 C68.001875 89.044375 68.001875 89.044375 67.8125 90.875 C67.36424946 94.52596813 66.48303163 97.79524899 65.1875 101.25 C64.5275 101.25 63.8675 101.25 63.1875 101.25 C63.001875 102.054375 62.81625 102.85875 62.625 103.6875 C57.75203376 115.76398156 46.12661133 125.17734348 35.07421875 131.44921875 C33.1875 132.25 33.1875 132.25 30.1875 132.25 C30.1875 132.91 30.1875 133.57 30.1875 134.25 C28.48172658 134.90256456 26.77273911 135.54673041 25.0625 136.1875 C23.63550781 136.72697266 23.63550781 136.72697266 22.1796875 137.27734375 C5.5193658 142.69303579 -14.18334898 140.56392025 -29.8125 133.25 C-29.8125 132.59 -29.8125 131.93 -29.8125 131.25 C-31.3903125 130.87875 -31.3903125 130.87875 -33 130.5 C-36.68490373 129.43662097 -38.93715224 127.83781298 -41.8125 125.25 C-42.369375 124.79367188 -42.92625 124.33734375 -43.5 123.8671875 C-50.9109188 117.76595694 -57.12848692 110.64404577 -59.8125 101.25 C-60.4725 101.25 -61.1325 101.25 -61.8125 101.25 C-65.25669134 91.83997722 -65.25669134 91.83997722 -64.8125 87.25 C-65.4725 87.25 -66.1325 87.25 -66.8125 87.25 C-67.64556301 83.61910271 -67.94101364 80.26125888 -67.9453125 76.5390625 C-67.94660156 75.45882812 -67.94789062 74.37859375 -67.94921875 73.265625 C-67.94535156 72.14671875 -67.94148438 71.0278125 -67.9375 69.875 C-67.94136719 68.76382813 -67.94523437 67.65265625 -67.94921875 66.5078125 C-67.94264189 60.983251 -67.8001423 55.68987107 -66.8125 50.25 C-66.1525 50.25 -65.4925 50.25 -64.8125 50.25 C-64.69132812 49.57453125 -64.57015625 48.8990625 -64.4453125 48.203125 C-64.27773437 47.31109375 -64.11015625 46.4190625 -63.9375 45.5 C-63.69386719 44.17742187 -63.69386719 44.17742187 -63.4453125 42.828125 C-62.84453736 40.38052256 -62.03252883 38.44400143 -60.8125 36.25 C-60.1525 36.25 -59.4925 36.25 -58.8125 36.25 C-58.750625 35.26 -58.750625 35.26 -58.6875 34.25 C-56.75192316 27.61373655 -51.70165979 22.80705004 -46.42578125 18.57421875 C-44.79458901 17.28486649 -44.79458901 17.28486649 -43.3984375 15.80078125 C-37.03130829 9.5747953 -28.8914248 4.25 -19.8125 4.25 C-19.8125 3.59 -19.8125 2.93 -19.8125 2.25 C-13.24088373 -0.14659522 -6.93974772 -0.04723595 0 0 Z " fill="#A72330" transform="translate(161.8125,28.75)"/>
<path d="M0 0 C0 3 0 3 -1.64453125 5.0078125 C-2.35996094 5.70648438 -3.07539062 6.40515625 -3.8125 7.125 C-4.87404297 8.18074219 -4.87404297 8.18074219 -5.95703125 9.2578125 C-8 11 -8 11 -11 12 C-9.91596829 8.74790487 -9.20008284 8.08614306 -6.625 6 C-4.29288965 4.09461622 -2.09804487 2.16240208 0 0 Z " fill="#B44B52" transform="translate(120,43)"/>
</svg>
