<?xml version="1.0" encoding="UTF-8"?>
<svg version="1.1" xmlns="http://www.w3.org/2000/svg" width="488" height="330">
<path d="M0 0 C161.04 0 322.08 0 488 0 C488 108.9 488 217.8 488 330 C326.96 330 165.92 330 0 330 C0 221.1 0 112.2 0 0 Z " fill="#FEFDFD" transform="translate(0,0)"/>
<path d="M0 0 C161.04 0 322.08 0 488 0 C488 54.12 488 108.24 488 164 C326.96 164 165.92 164 0 164 C0 109.88 0 55.76 0 0 Z " fill="#DB4547" transform="translate(0,0)"/>
<path d="M0 0 C-0.33 1.32 -0.66 2.64 -1 4 C-1.97582031 4.27714844 -2.95164062 4.55429688 -3.95703125 4.83984375 C-5.24219751 5.205694 -6.52735321 5.57158136 -7.8125 5.9375 C-9.70935547 6.47697266 -9.70935547 6.47697266 -11.64453125 7.02734375 C-13.77501982 7.64491261 -15.89563892 8.29854631 -18 9 C-18.6837045 10.32467746 -19.34964186 11.65863633 -20 13 C-23 15 -23 15 -26 15 C-26 15.66 -26 16.32 -26 17 C-26.66 17 -27.32 17 -28 17 C-28 17.66 -28 18.32 -28 19 C-28.66 19 -29.32 19 -30 19 C-30 19.66 -30 20.32 -30 21 C-30.66 21 -31.32 21 -32 21 C-32 21.66 -32 22.32 -32 23 C-32.66 23 -33.32 23 -34 23 C-34.103125 23.5775 -34.20625 24.155 -34.3125 24.75 C-35.10896465 27.35661158 -36.19065277 28.9735311 -38 31 C-38.66 31 -39.32 31 -40 31 C-40 32.32 -40 33.64 -40 35 C-40.66 35 -41.32 35 -42 35 C-42 36.32 -42 37.64 -42 39 C-42.66 39 -43.32 39 -44 39 C-44.09087891 40.60681641 -44.09087891 40.60681641 -44.18359375 42.24609375 C-44.26798537 43.64324391 -44.35263406 45.04037857 -44.4375 46.4375 C-44.47681641 47.14455078 -44.51613281 47.85160156 -44.55664062 48.58007812 C-44.88671875 53.88671875 -44.88671875 53.88671875 -46 55 C-46.09932153 56.69558726 -46.13080007 58.39525747 -46.1328125 60.09375 C-46.13410156 61.12371094 -46.13539062 62.15367188 -46.13671875 63.21484375 C-46.13091797 64.84099609 -46.13091797 64.84099609 -46.125 66.5 C-46.12886719 67.58410156 -46.13273437 68.66820313 -46.13671875 69.78515625 C-46.13478516 71.33009766 -46.13478516 71.33009766 -46.1328125 72.90625 C-46.13112061 74.33420898 -46.13112061 74.33420898 -46.12939453 75.79101562 C-46.24699456 77.97452138 -46.24699456 77.97452138 -45 79 C-44.8453125 80.4540625 -44.8453125 80.4540625 -44.6875 81.9375 C-43.79102814 88.83891031 -40.65218114 95.15651018 -37 101 C-37 101.66 -37 102.32 -37 103 C-36.34 103 -35.68 103 -35 103 C-34.608125 103.680625 -34.21625 104.36125 -33.8125 105.0625 C-31.74810511 108.40824344 -29.31013322 110.712052 -26.42578125 113.3515625 C-25 115 -25 115 -25 118 C-24.4225 118.10828125 -23.845 118.2165625 -23.25 118.328125 C-20.70711327 119.08745923 -19.13419779 120.18168799 -17 121.75 C-11.69760371 125.41476137 -5.99717251 127.706665 0 130 C0 130.33 0 130.66 0 131 C-4.35403865 131.08755672 -8.70784877 131.14057969 -13.0625 131.1875 C-14.29162109 131.21263672 -15.52074219 131.23777344 -16.78710938 131.26367188 C-23.41529855 131.31726909 -28.13028777 131.08932223 -34 128 C-36.80603178 127.24897484 -36.80603178 127.24897484 -39.4375 126.8125 C-40.73494141 126.57466797 -40.73494141 126.57466797 -42.05859375 126.33203125 C-42.69925781 126.22246094 -43.33992188 126.11289063 -44 126 C-44 125.34 -44 124.68 -44 124 C-44.7425 123.71125 -45.485 123.4225 -46.25 123.125 C-50.52933723 121.37436204 -53.31511844 119.96613495 -56.3125 116.375 C-59.36114849 112.75225536 -62.50364665 109.24110374 -65.71484375 105.76171875 C-67 104 -67 104 -67 101 C-67.6290625 100.92652344 -68.258125 100.85304688 -68.90625 100.77734375 C-71 100 -71 100 -71.90625 98.06640625 C-72.1021875 97.24011719 -72.298125 96.41382812 -72.5 95.5625 C-73.70882641 90.93309338 -75.2806642 86.63438829 -77.1328125 82.2265625 C-81.07345266 72.10870263 -80.26999015 58.81460423 -76 49 C-75.690625 47.824375 -75.38125 46.64875 -75.0625 45.4375 C-74.00923343 42.02987287 -72.65614284 39.12617538 -71 35.984375 C-70.05126265 34.10172432 -69.30384162 32.22129476 -68.5625 30.25 C-66.81797202 26.6213818 -65.23776119 25.31268657 -62 23 C-59.30500651 20.49750604 -57.21801894 18.37734047 -55.375 15.1875 C-54.92125 14.465625 -54.4675 13.74375 -54 13 C-53.01 13 -52.02 13 -51 13 C-51 12.34 -51 11.68 -51 11 C-45.70588235 7 -45.70588235 7 -42 7 C-42 6.34 -42 5.68 -42 5 C-41.43410156 4.87882813 -40.86820313 4.75765625 -40.28515625 4.6328125 C-39.55167969 4.46523437 -38.81820312 4.29765625 -38.0625 4.125 C-36.96615234 3.88136719 -36.96615234 3.88136719 -35.84765625 3.6328125 C-33.79299706 3.17038477 -33.79299706 3.17038477 -33 1 C-22.4306843 -1.20540839 -10.7330241 -0.09803915 0 0 Z " fill="#FEFBFB" transform="translate(109,9)"/>
<path d="M0 0 C1.32 0 2.64 0 4 0 C4.33 2.97 4.66 5.94 5 9 C8.96 9 12.92 9 17 9 C17.33 9.99 17.66 10.98 18 12 C15.69 13.32 13.38 14.64 11 16 C10.92345464 20.51617599 10.89771304 24.59085217 12 29 C9.625 28.6875 9.625 28.6875 7 28 C6.34 27.01 5.68 26.02 5 25 C1.93443402 24.26656572 1.93443402 24.26656572 -1 24 C-1 24.66 -1 25.32 -1 26 C-3.64738916 27.4606285 -4.89448334 28 -8 28 C-7.835 27.319375 -7.67 26.63875 -7.5 25.9375 C-6.89866791 22.40467398 -6.55284193 19.57726453 -7 16 C-8.82091058 13.92957689 -10.72486717 12.61155242 -13 11 C-13 10.67 -13 10.34 -13 10 C-9.37 10 -5.74 10 -2 10 C-1.855625 8.535625 -1.71125 7.07125 -1.5625 5.5625 C-1.125 1.125 -1.125 1.125 0 0 Z " fill="#FCF4F4" transform="translate(168,48)"/>
<path d="M0 0 C0.66 3.3 1.32 6.6 2 10 C5.3 10.33 8.6 10.66 12 11 C12 11.66 12 12.32 12 13 C11.175 13.598125 10.35 14.19625 9.5 14.8125 C6.7361553 16.74947167 6.7361553 16.74947167 6.625 19.6875 C6.76163834 21.95657219 6.76163834 21.95657219 8 23 C8.04080783 24.99958364 8.04254356 27.00045254 8 29 C7.01 29 6.02 29 5 29 C5 28.34 5 27.68 5 27 C1.4536218 25.02978989 -1.92231424 24 -6 24 C-6 24.99 -6 25.98 -6 27 C-9 29 -9 29 -12 29 C-11.835 28.319375 -11.67 27.63875 -11.5 26.9375 C-10.90661224 23.4513469 -10.61501164 20.52905993 -11 17 C-13.41880929 14.73122465 -13.41880929 14.73122465 -16 13 C-16 12.01 -16 11.02 -16 10 C-12.7 10 -9.4 10 -6 10 C-5.896875 8.906875 -5.79375 7.81375 -5.6875 6.6875 C-5 3 -5 3 -3.5625 1.0625 C-2 0 -2 0 0 0 Z " fill="#FAEAEA" transform="translate(113,90)"/>
<path d="M0 0 C0.66 0 1.32 0 2 0 C2 1.32 2 2.64 2 4 C2.66 4 3.32 4 4 4 C4 5.65 4 7.3 4 9 C7.63 9 11.26 9 15 9 C14.67 10.32 14.34 11.64 14 13 C13.34 13.268125 12.68 13.53625 12 13.8125 C11.34 14.204375 10.68 14.59625 10 15 C8.94834697 19.28750852 8.83921466 22.74378709 10 27 C6.59783062 26.39246975 4.73127371 25.04845528 2 23 C-0.14733927 22.29485154 -0.14733927 22.29485154 -2 22 C-2 22.99 -2 23.98 -2 25 C-2.99 25 -3.98 25 -5 25 C-5 25.66 -5 26.32 -5 27 C-6.32 27 -7.64 27 -9 27 C-8.85691406 25.96939453 -8.85691406 25.96939453 -8.7109375 24.91796875 C-8.54464844 23.56638672 -8.54464844 23.56638672 -8.375 22.1875 C-8.20097656 20.84751953 -8.20097656 20.84751953 -8.0234375 19.48046875 C-7.76499257 16.74309609 -7.76499257 16.74309609 -10 14 C-10.99 13.67 -11.98 13.34 -13 13 C-13 12.34 -13 11.68 -13 11 C-13.66 11 -14.32 11 -15 11 C-15 10.34 -15 9.68 -15 9 C-13.87851563 9.0309375 -13.87851563 9.0309375 -12.734375 9.0625 C-9.64116131 8.99772066 -6.98609805 8.82923298 -4 8 C-1.87068736 5.57309668 -0.8784298 3.08504546 0 0 Z " fill="#FBEDED" transform="translate(97,49)"/>
<path d="M0 0 C0.66 0 1.32 0 2 0 C3.32 3.3 4.64 6.6 6 10 C9.3 10.33 12.6 10.66 16 11 C16 11.66 16 12.32 16 13 C14.02 13.99 12.04 14.98 10 16 C9.76490804 20.81938524 10.54815522 24.46298506 12 29 C8.98968301 28.55402711 7.9282406 27.93390582 5.625 25.8125 C4.75875 25.214375 3.8925 24.61625 3 24 C-0.6732647 24.74964586 -3.67628309 26.32741988 -7 28 C-6.94199219 27.24074219 -6.88398437 26.48148438 -6.82421875 25.69921875 C-6.68948488 22.73122405 -6.63232882 19.95012352 -7 17 C-9.32005031 14.97357892 -9.32005031 14.97357892 -12 14 C-12.33 12.68 -12.66 11.36 -13 10 C-9.37 10 -5.74 10 -2 10 C-2 8.35 -2 6.7 -2 5 C-1 2.1875 -1 2.1875 0 0 Z " fill="#FBEFF0" transform="translate(132,21)"/>
<path d="M0 0 C1.32 0.33 2.64 0.66 4 1 C4.33 3.64 4.66 6.28 5 9 C8.3 9 11.6 9 15 9 C13 13 13 13 11 15 C10.76399747 19.16937798 11.01670789 22.94392005 12 27 C8.65750371 26.40312566 6.53563658 25.26396123 4 23 C4 22.34 4 21.68 4 21 C0.51750769 22.25756667 -2.06465849 23.7731892 -5 26 C-5.66 26 -6.32 26 -7 26 C-6.95359375 25.25234375 -6.9071875 24.5046875 -6.859375 23.734375 C-6.41528891 17.65744122 -6.41528891 17.65744122 -9 12.4375 C-9.66 11.963125 -10.32 11.48875 -11 11 C-11 10.34 -11 9.68 -11 9 C-8.03 9 -5.06 9 -2 9 C-1.34 6.03 -0.68 3.06 0 0 Z " fill="#FCF2F3" transform="translate(154,92)"/>
<path d="M0 0 C0.33 0 0.66 0 1 0 C1.33 11.22 1.66 22.44 2 34 C1.34 33.67 0.68 33.34 0 33 C-1.83114356 27.2293187 -2.31131888 21.96208043 -2.25 15.9375 C-2.26160156 14.7918457 -2.26160156 14.7918457 -2.2734375 13.62304688 C-2.25664294 8.71483815 -1.55813395 4.65585264 0 0 Z " fill="#EEB4B6" transform="translate(32,60)"/>
<path d="M0 0 C0.33 0 0.66 0 1 0 C1.09765625 6.15234375 1.09765625 6.15234375 1 8 C0.67 8.33 0.34 8.66 0 9 C-0.09932153 10.69558726 -0.13080007 12.39525747 -0.1328125 14.09375 C-0.13410156 15.12371094 -0.13539062 16.15367188 -0.13671875 17.21484375 C-0.13285156 18.29894531 -0.12898438 19.38304688 -0.125 20.5 C-0.12886719 21.58410156 -0.13273437 22.66820313 -0.13671875 23.78515625 C-0.13542969 24.81511719 -0.13414063 25.84507813 -0.1328125 26.90625 C-0.13168457 27.85822266 -0.13055664 28.81019531 -0.12939453 29.79101562 C-0.24699456 31.97452138 -0.24699456 31.97452138 1 33 C1.103125 33.969375 1.20625 34.93875 1.3125 35.9375 C2.10507194 42.03904592 4.65108969 47.76732087 7.8125 53 C8.204375 53.66 8.59625 54.32 9 55 C8.67 55.66 8.34 56.32 8 57 C4.32263157 52.0092857 2.1088172 46.81253818 0 41 C-0.34369629 40.09048584 -0.68739258 39.18097168 -1.04150391 38.24389648 C-2.0472866 34.83996509 -2.25834363 32.0762449 -2.265625 28.53515625 C-2.26820312 27.32279297 -2.27078125 26.11042969 -2.2734375 24.86132812 C-2.26570313 23.60771484 -2.25796875 22.35410156 -2.25 21.0625 C-2.25773437 19.81275391 -2.26546875 18.56300781 -2.2734375 17.27539062 C-2.2604391 11.15639455 -2.16200765 5.75677434 0 0 Z " fill="#EBA0A2" transform="translate(63,55)"/>
<path d="M0 0 C2.64 0.33 5.28 0.66 8 1 C8 1.99 8 2.98 8 4 C-1.48080142 5.51692823 -17.95488593 8.10278361 -26.2734375 2.45703125 C-26.84320313 1.97621094 -27.41296875 1.49539062 -28 1 C-26.94002808 1.24447876 -26.94002808 1.24447876 -25.85864258 1.49389648 C-22.92355461 2.01353414 -20.24011307 2.11358349 -17.26171875 2.09765625 C-15.66166992 2.09282227 -15.66166992 2.09282227 -14.02929688 2.08789062 C-12.92650391 2.07951172 -11.82371094 2.07113281 -10.6875 2.0625 C-9.00430664 2.05573242 -9.00430664 2.05573242 -7.28710938 2.04882812 C-4.5246849 2.03707313 -1.76237002 2.02064077 1 2 C0.67 1.34 0.34 0.68 0 0 Z " fill="#EA9EA0" transform="translate(105,137)"/>
<path d="M0 0 C-0.33 1.32 -0.66 2.64 -1 4 C-3.31 4.33 -5.62 4.66 -8 5 C-7.67 4.01 -7.34 3.02 -7 2 C-14.59 2 -22.18 2 -30 2 C-30 2.66 -30 3.32 -30 4 C-31.32 3.67 -32.64 3.34 -34 3 C-33.67 2.34 -33.34 1.68 -33 1 C-22.4306843 -1.20540839 -10.7330241 -0.09803915 0 0 Z " fill="#F1C3C4" transform="translate(109,9)"/>
<path d="M0 0 C1.32 0 2.64 0 4 0 C4.33 2.97 4.66 5.94 5 9 C8.96 9 12.92 9 17 9 C17.33 9.99 17.66 10.98 18 12 C16.35 12.66 14.7 13.32 13 14 C13 13.01 13 12.02 13 11 C11.72125 11.020625 10.4425 11.04125 9.125 11.0625 C5.25 11.125 5.25 11.125 3 10 C3 7.03 3 4.06 3 1 C2.01 1.495 2.01 1.495 1 2 C0.26924352 4.3140622 -0.40138258 6.64828869 -1 9 C-2.0326802 6.21176345 -2.04509293 5.1322726 -1.0625 2.25 C-0.711875 1.5075 -0.36125 0.765 0 0 Z " fill="#EEACAC" transform="translate(168,48)"/>
<path d="M0 0 C1.875 0.125 1.875 0.125 4 1 C5.16671276 3.74177497 6 6.00567607 6 9 C9.96 9 13.92 9 18 9 C17.67 10.32 17.34 11.64 17 13 C16.34 13 15.68 13 15 13 C15 12.34 15 11.68 15 11 C11.7 11 8.4 11 5 11 C4.57682292 8.94921875 4.15364583 6.8984375 3.73046875 4.84765625 C3.48941406 4.23792969 3.24835938 3.62820312 3 3 C2.01 2.67 1.02 2.34 0 2 C0 1.34 0 0.68 0 0 Z " fill="#E78F91" transform="translate(154,90)"/>
<path d="M0 0 C0.33 0 0.66 0 1 0 C1 2.31 1 4.62 1 7 C0.34 7 -0.32 7 -1 7 C-1.33 8.65 -1.66 10.3 -2 12 C-4.64 12.33 -7.28 12.66 -10 13 C-9.01 14.485 -9.01 14.485 -8 16 C-9.9375 15.25 -9.9375 15.25 -12 14 C-12.33 12.68 -12.66 11.36 -13 10 C-9.37 10 -5.74 10 -2 10 C-2 8.35 -2 6.7 -2 5 C-1 2.1875 -1 2.1875 0 0 Z " fill="#EDACAE" transform="translate(132,21)"/>
<path d="M0 0 C0.66 0.33 1.32 0.66 2 1 C1.34 1.66 0.68 2.32 0 3 C-0.23600253 7.16937798 0.01670789 10.94392005 1 15 C-2.79588866 14.45773019 -4.47211993 12.79872437 -7 10 C-5.68 10 -4.36 10 -3 10 C-3.061875 8.906875 -3.12375 7.81375 -3.1875 6.6875 C-3 3 -3 3 -1.5 1.0625 C-1.005 0.711875 -0.51 0.36125 0 0 Z " fill="#EDADAF" transform="translate(165,104)"/>
<path d="M0 0 C0.66 0.33 1.32 0.66 2 1 C1.979375 1.804375 1.95875 2.60875 1.9375 3.4375 C1.70366379 5.93354885 1.70366379 5.93354885 3 7 C3.04080783 8.99958364 3.04254356 11.00045254 3 13 C2.01 13 1.02 13 0 13 C0 12.34 0 11.68 0 11 C-0.639375 10.71125 -1.27875 10.4225 -1.9375 10.125 C-4 9 -4 9 -5 7 C-3.02 7.99 -3.02 7.99 -1 9 C-1.020625 7.700625 -1.04125 6.40125 -1.0625 5.0625 C-1.08399454 3.70834367 -1.07148199 2.35243917 -1 1 C-0.67 0.67 -0.34 0.34 0 0 Z " fill="#EDAEB0" transform="translate(118,106)"/>
<path d="M0 0 C1.32 0 2.64 0 4 0 C4 2.31 4 4.62 4 7 C3.34 7 2.68 7 2 7 C2.33 7.99 2.66 8.98 3 10 C4.32 9.67 5.64 9.34 7 9 C7 9.66 7 10.32 7 11 C6.01 11 5.02 11 4 11 C4 11.66 4 12.32 4 13 C2.68 13 1.36 13 0 13 C0.12568359 11.96939453 0.12568359 11.96939453 0.25390625 10.91796875 C0.35574219 10.01691406 0.45757812 9.11585937 0.5625 8.1875 C0.66691406 7.29417969 0.77132812 6.40085937 0.87890625 5.48046875 C1.15658709 2.86624428 1.15658709 2.86624428 0 0 Z " fill="#EBA0A2" transform="translate(88,63)"/>
<path d="M0 0 C0.33 0 0.66 0 1 0 C1 2.97 1 5.94 1 9 C1.99 9 2.98 9 4 9 C4 8.34 4 7.68 4 7 C7.28696233 6.20046862 8.71023192 5.90341064 12 7 C11.67 7.66 11.34 8.32 11 9 C8.03 8.505 8.03 8.505 5 8 C5 8.66 5 9.32 5 10 C2.35261084 11.4606285 1.10551666 12 -2 12 C-1.34 8.04 -0.68 4.08 0 0 Z " fill="#EDAAAB" transform="translate(162,64)"/>
<path d="M0 0 C0.99 0.495 0.99 0.495 2 1 C2 1.99 2 2.98 2 4 C5.96 4 9.92 4 14 4 C14 5.32 14 6.64 14 8 C13.34 8 12.68 8 12 8 C12 7.34 12 6.68 12 6 C8.7 6 5.4 6 2 6 C1.34 4.02 0.68 2.04 0 0 Z " fill="#E68C8E" transform="translate(113,95)"/>
<path d="M0 0 C0.66 0.33 1.32 0.66 2 1 C1.979375 2.216875 1.95875 3.43375 1.9375 4.6875 C1.93175884 7.91977322 2.21233685 10.84934741 3 14 C1.35 13.67 -0.3 13.34 -2 13 C-2.33 12.01 -2.66 11.02 -3 10 C-2.01 10 -1.02 10 0 10 C-0.08378906 9.36191406 -0.16757813 8.72382812 -0.25390625 8.06640625 C-0.35574219 7.24011719 -0.45757812 6.41382812 -0.5625 5.5625 C-0.66691406 4.73878906 -0.77132812 3.91507812 -0.87890625 3.06640625 C-0.91886719 2.38449219 -0.95882812 1.70257813 -1 1 C-0.67 0.67 -0.34 0.34 0 0 Z " fill="#ECA3A5" transform="translate(177,63)"/>
<path d="M0 0 C1.98 0.99 1.98 0.99 4 2 C3.67 4.97 3.34 7.94 3 11 C3.99 10.67 4.98 10.34 6 10 C6 10.66 6 11.32 6 12 C3 14 3 14 0 14 C0.2475 12.9790625 0.2475 12.9790625 0.5 11.9375 C1.18082756 7.93763809 1.85791887 3.71583773 0 0 Z " fill="#EB9FA1" transform="translate(101,105)"/>
<path d="M0 0 C1.32 0.33 2.64 0.66 4 1 C3.67 1.66 3.34 2.32 3 3 C1.68 3 0.36 3 -1 3 C-1 3.66 -1 4.32 -1 5 C-2.32 5 -3.64 5 -5 5 C-5 5.66 -5 6.32 -5 7 C-5.99 7 -6.98 7 -8 7 C-8 7.66 -8 8.32 -8 9 C-9.32 9.33 -10.64 9.66 -12 10 C-12 9.34 -12 8.68 -12 8 C-11.01 8 -10.02 8 -9 8 C-9 7.34 -9 6.68 -9 6 C-3.70588235 2 -3.70588235 2 0 2 C0 1.34 0 0.68 0 0 Z " fill="#EDACAD" transform="translate(67,14)"/>
<path d="M0 0 C1.32 0 2.64 0 4 0 C6.67927341 4.01891012 6.15601248 6.24161923 6 11 C6.99 11 7.98 11 9 11 C5.25 14 5.25 14 3 14 C3.03480469 13.24074219 3.06960937 12.48148438 3.10546875 11.69921875 C3.13253906 10.70535156 3.15960938 9.71148437 3.1875 8.6875 C3.22230469 7.70136719 3.25710937 6.71523437 3.29296875 5.69921875 C3.24278108 2.95425611 3.24278108 2.95425611 1.48828125 1.14453125 C0.99714844 0.76683594 0.50601563 0.38914062 0 0 Z " fill="#EFB7B8" transform="translate(144,104)"/>
<path d="M0 0 C0.66 0.33 1.32 0.66 2 1 C1.814375 2.051875 1.62875 3.10375 1.4375 4.1875 C1.04920669 7.57119882 1.11752515 9.76425888 2 13 C0.0625 12.625 0.0625 12.625 -2 12 C-2.33 11.34 -2.66 10.68 -3 10 C-2.34 10 -1.68 10 -1 10 C-1.01160156 9.36191406 -1.02320312 8.72382812 -1.03515625 8.06640625 C-1.04417969 7.24011719 -1.05320312 6.41382812 -1.0625 5.5625 C-1.07410156 4.73878906 -1.08570312 3.91507812 -1.09765625 3.06640625 C-1 1 -1 1 0 0 Z " fill="#EEB1B2" transform="translate(105,63)"/>
<path d="M0 0 C0.33 0 0.66 0 1 0 C1.99 3.96 2.98 7.92 4 12 C2.68 11.67 1.36 11.34 0 11 C0 7.33333333 0 3.66666667 0 0 Z " fill="#EFB2B4" transform="translate(140,38)"/>
<path d="M0 0 C1.99028232 3.69623859 4 7.74300779 4 12 C2.68 12 1.36 12 0 12 C0 11.34 0 10.68 0 10 C0.66 10 1.32 10 2 10 C1.505 8.9171875 1.505 8.9171875 1 7.8125 C-0.00603529 4.98302573 -0.16977402 2.97104534 0 0 Z " fill="#DF6163" transform="translate(105,66)"/>
<path d="M0 0 C0 3 0 3 -1.25 4.625 C-3.17415516 6.1368362 -4.60989418 6.58791279 -7 7 C-7 6.34 -7 5.68 -7 5 C-6.34 5 -5.68 5 -5 5 C-5 4.34 -5 3.68 -5 3 C-4.34 3 -3.68 3 -3 3 C-3 2.34 -3 1.68 -3 1 C-2.01 0.67 -1.02 0.34 0 0 Z " fill="#E47779" transform="translate(86,23)"/>
<path d="M0 0 C1.32 0 2.64 0 4 0 C4 2.31 4 4.62 4 7 C3.34 7 2.68 7 2 7 C1.34 4.69 0.68 2.38 0 0 Z " fill="#F1C1C2" transform="translate(88,63)"/>
<path d="M0 0 C1.125 3.75 1.125 3.75 0 6 C-0.66 6 -1.32 6 -2 6 C-2 6.99 -2 7.98 -2 9 C-2.66 8.67 -3.32 8.34 -4 8 C-1.125 1.125 -1.125 1.125 0 0 Z " fill="#F0BABC" transform="translate(43,35)"/>
<path d="M0 0 C2.64 0.33 5.28 0.66 8 1 C8 1.99 8 2.98 8 4 C6.68 4 5.36 4 4 4 C4 3.34 4 2.68 4 2 C2.68 1.67 1.36 1.34 0 1 C0 0.67 0 0.34 0 0 Z " fill="#E58082" transform="translate(105,137)"/>
<path d="M0 0 C1.32 0 2.64 0 4 0 C4 0.66 4 1.32 4 2 C4.639375 2.12375 5.27875 2.2475 5.9375 2.375 C6.618125 2.58125 7.29875 2.7875 8 3 C8.33 3.66 8.66 4.32 9 5 C7.68 5 6.36 5 5 5 C5 4.34 5 3.68 5 3 C2.525 2.01 2.525 2.01 0 1 C0 0.67 0 0.34 0 0 Z " fill="#EDACAE" transform="translate(60,130)"/>
<path d="M0 0 C4.8 3.32307692 4.8 3.32307692 5.8125 6.75 C5.874375 7.4925 5.93625 8.235 6 9 C5.34 8.67 4.68 8.34 4 8 C4 7.01 4 6.02 4 5 C2.68 4.67 1.36 4.34 0 4 C0 2.68 0 1.36 0 0 Z " fill="#EDA9AB" transform="translate(38,105)"/>
<path d="M0 0 C0.33 0.99 0.66 1.98 1 3 C1.66 3.33 2.32 3.66 3 4 C2.34 4.66 1.68 5.32 1 6 C0.01 6 -0.98 6 -2 6 C-2 4.68 -2 3.36 -2 2 C-1.34 2 -0.68 2 0 2 C0 1.34 0 0.68 0 0 Z " fill="#E37275" transform="translate(124,46)"/>
</svg>
