<?xml version="1.0" encoding="UTF-8"?>
<svg version="1.1" xmlns="http://www.w3.org/2000/svg" width="528" height="328">
<path d="M0 0 C174.24 0 348.48 0 528 0 C528 108.24 528 216.48 528 328 C353.76 328 179.52 328 0 328 C0 219.76 0 111.52 0 0 Z " fill="#D93D37" transform="translate(0,0)"/>
<path d="M0 0 C88.11 0 176.22 0 267 0 C267 55.77 267 111.54 267 169 C178.89 169 90.78 169 0 169 C0 113.23 0 57.46 0 0 Z " fill="#333684" transform="translate(0,0)"/>
<path d="M0 0 C1.01513672 -0.02610352 1.01513672 -0.02610352 2.05078125 -0.05273438 C11.62262804 -0.04335021 18.79040265 6.41395765 25.5625 12.5625 C32.07480156 19.25322078 34.05696534 28.68141115 33.98046875 37.75390625 C33.679221 42.34268011 32.75346022 46.81773465 31.8125 51.3125 C32.4725 51.3125 33.1325 51.3125 33.8125 51.3125 C34.1425 50.3225 34.4725 49.3325 34.8125 48.3125 C38.8125 48.3125 38.8125 48.3125 40.48828125 49.81640625 C41.02839844 50.49574219 41.56851563 51.17507812 42.125 51.875 C44.52859385 54.78624944 46.96008176 57.57397793 49.625 60.25 C50.18832031 60.81589844 50.75164062 61.38179687 51.33203125 61.96484375 C52.78965572 63.41415172 52.78965572 63.41415172 54.8125 64.3125 C54.8125 64.9725 54.8125 65.6325 54.8125 66.3125 C55.4725 66.3125 56.1325 66.3125 56.8125 66.3125 C56.8125 66.9725 56.8125 67.6325 56.8125 68.3125 C52.86115025 68.67171361 50.37029748 67.69912367 46.79858398 66.11206055 C43.41923055 64.75159558 39.91460428 63.95727658 36.375 63.125 C35.64345703 62.94775391 34.91191406 62.77050781 34.15820312 62.58789062 C32.37761585 62.15729109 30.59523774 61.73410784 28.8125 61.3125 C28.8125 60.3225 28.8125 59.3325 28.8125 58.3125 C29.4725 58.3125 30.1325 58.3125 30.8125 58.3125 C31.1425 56.3325 31.4725 54.3525 31.8125 52.3125 C30.8225 52.3125 29.8325 52.3125 28.8125 52.3125 C28.52375 53.075625 28.235 53.83875 27.9375 54.625 C26.8125 57.3125 26.8125 57.3125 24.8125 60.3125 C24.1525 60.3125 23.4925 60.3125 22.8125 60.3125 C22.8125 60.9725 22.8125 61.6325 22.8125 62.3125 C16.76663489 68.56684321 8.52252354 70.48151026 0.11547852 70.78808594 C-7.67794037 70.86852168 -14.24617537 70.21917517 -21.1875 66.3125 C-21.1875 65.6525 -21.1875 64.9925 -21.1875 64.3125 C-21.765 64.0546875 -22.3425 63.796875 -22.9375 63.53125 C-29.27203879 60.10004149 -34.15574091 54.26608343 -36.578125 47.51953125 C-37.96339841 40.22908591 -37.46040259 32.69603124 -37.1875 25.3125 C-36.5275 25.3125 -35.8675 25.3125 -35.1875 25.3125 C-35.11015625 24.45978516 -35.11015625 24.45978516 -35.03125 23.58984375 C-34.11355971 17.34329276 -32.05370744 14.61876817 -27.0625 10.8203125 C-24.94164987 9.26957689 -24.94164987 9.26957689 -23.1875 6.3125 C-20.0625 5.125 -20.0625 5.125 -17.1875 4.3125 C-17.1875 3.6525 -17.1875 2.9925 -17.1875 2.3125 C-11.43924844 0.67014241 -5.97060214 0.07133992 0 0 Z " fill="#FBFCFC" transform="translate(130.1875,41.6875)"/>
<path d="M0 0 C0.33 0 0.66 0 1 0 C3.18100174 8.45138174 1.75759552 16.60434284 0 25 C0.66 25 1.32 25 2 25 C2.33 24.01 2.66 23.02 3 22 C7 22 7 22 8.67578125 23.50390625 C9.21589844 24.18324219 9.75601563 24.86257812 10.3125 25.5625 C12.71609385 28.47374944 15.14758176 31.26147793 17.8125 33.9375 C18.37582031 34.50339844 18.93914062 35.06929687 19.51953125 35.65234375 C20.97715572 37.10165172 20.97715572 37.10165172 23 38 C23 38.66 23 39.32 23 40 C23.66 40 24.32 40 25 40 C25 40.66 25 41.32 25 42 C21.04865025 42.35921361 18.55779748 41.38662367 14.98608398 39.79956055 C11.60673055 38.43909558 8.10210428 37.64477658 4.5625 36.8125 C3.83095703 36.63525391 3.09941406 36.45800781 2.34570312 36.27539062 C0.56511585 35.84479109 -1.21726226 35.42160784 -3 35 C-3 34.01 -3 33.02 -3 32 C-2.34 32 -1.68 32 -1 32 C-0.67 30.02 -0.34 28.04 0 26 C-0.99 26 -1.98 26 -3 26 C-2.85950482 24.52031676 -2.71245174 23.04125484 -2.5625 21.5625 C-2.48128906 20.73878906 -2.40007812 19.91507813 -2.31640625 19.06640625 C-2 17 -2 17 -1 16 C-0.76321284 13.30764224 -0.57801975 10.63501844 -0.4375 7.9375 C-0.39431641 7.17888672 -0.35113281 6.42027344 -0.30664062 5.63867188 C-0.20026367 3.75934562 -0.09960066 1.87969756 0 0 Z " fill="#E9EAEF" transform="translate(162,68)"/>
<path d="M0 0 C4.95 0 9.9 0 15 0 C14.57577888 6.02393996 13.82324569 11.21891187 11.76171875 16.890625 C11.03945524 18.89073933 10.43825779 20.88774983 9.875 22.9375 C9 26 9 26 8 28 C7.34 28 6.68 28 6 28 C5.87625 26.80375 5.7525 25.6075 5.625 24.375 C5.16852214 20.70388933 4.21475507 17.50135284 3 14 C1.86119003 9.36223765 0.93643995 4.68219977 0 0 Z " fill="#F7F7F9" transform="translate(121,116)"/>
<path d="M0 0 C1.8984375 0.546875 1.8984375 0.546875 4 2 C4.74560054 4.4932882 5.24338997 6.70104069 5.625 9.25 C6.24391792 13.00034786 6.87185872 16.61834181 8.0859375 20.234375 C9 23 9 23 9 27 C4.05 27 -0.9 27 -6 27 C-6 22.4697711 -5.55582512 20.81471512 -3.734375 16.9140625 C-2.49171008 13.6752018 -2.3019449 10.44217188 -2 7 C-1.34 7 -0.68 7 0 7 C0 4.69 0 2.38 0 0 Z " fill="#F4F5F7" transform="translate(127,11)"/>
<path d="M0 0 C0.66 0 1.32 0 2 0 C2.23509196 4.81938524 1.45184478 8.46298506 0 13 C-0.66 13 -1.32 13 -2 13 C-2.8441938 16.97977076 -3.44687265 20.97007218 -4 25 C-6.99553637 25.88855164 -8.51639033 26.19605797 -11.45703125 25.00390625 C-12.23433594 24.52824219 -13.01164063 24.05257812 -13.8125 23.5625 C-14.60269531 23.08941406 -15.39289063 22.61632812 -16.20703125 22.12890625 C-16.79871094 21.75636719 -17.39039063 21.38382813 -18 21 C-18 20.01 -18 19.02 -18 18 C-17.34 18 -16.68 18 -16 18 C-16 17.34 -16 16.68 -16 16 C-15.34 16 -14.68 16 -14 16 C-14 15.34 -14 14.68 -14 14 C-13.34 14 -12.68 14 -12 14 C-12 13.34 -12 12.68 -12 12 C-11.34 12 -10.68 12 -10 12 C-10 11.34 -10 10.68 -10 10 C-9.34 10 -8.68 10 -8 10 C-8 9.34 -8 8.68 -8 8 C-7.34 8 -6.68 8 -6 8 C-6 7.34 -6 6.68 -6 6 C-5.34 6 -4.68 6 -4 6 C-4 5.34 -4 4.68 -4 4 C-3.34 4 -2.68 4 -2 4 C-2 3.34 -2 2.68 -2 2 C-1.34 2 -0.68 2 0 2 C0 1.34 0 0.68 0 0 Z " fill="#FCFCFA" transform="translate(161,20)"/>
<path d="M0 0 C0.18175781 0.55429688 0.36351563 1.10859375 0.55078125 1.6796875 C0.80214844 2.40414062 1.05351563 3.12859375 1.3125 3.875 C1.55613281 4.59429687 1.79976562 5.31359375 2.05078125 6.0546875 C2.96335547 8.33994905 2.96335547 8.33994905 6 10 C5.67 10.99 5.34 11.98 5 13 C3.31347656 13.76782227 3.31347656 13.76782227 1.140625 14.31640625 C0.35429688 14.52330078 -0.43203125 14.73019531 -1.2421875 14.94335938 C-2.06976563 15.14767578 -2.89734375 15.35199219 -3.75 15.5625 C-5.37045193 15.97790157 -6.99026446 16.39580669 -8.609375 16.81640625 C-9.37572266 17.01379395 -10.14207031 17.21118164 -10.93164062 17.41455078 C-13.15795473 18.00343221 -13.15795473 18.00343221 -15.828125 19.15234375 C-18 20 -18 20 -22 20 C-21.34 18.68 -20.68 17.36 -20 16 C-19.34 16 -18.68 16 -18 16 C-18 15.34 -18 14.68 -18 14 C-17.34 14 -16.68 14 -16 14 C-16 13.34 -16 12.68 -16 12 C-15.34 12 -14.68 12 -14 12 C-14 11.34 -14 10.68 -14 10 C-13.34 10 -12.68 10 -12 10 C-12 9.34 -12 8.68 -12 8 C-11.34 8 -10.68 8 -10 8 C-10 7.34 -10 6.68 -10 6 C-9.34 6 -8.68 6 -8 6 C-8 5.34 -8 4.68 -8 4 C-7.34 4 -6.68 4 -6 4 C-6 3.34 -6 2.68 -6 2 C-3 0 -3 0 0 0 Z " fill="#F9F8F8" transform="translate(91,92)"/>
<path d="M0 0 C0 4.62 0 9.24 0 14 C-3.5916117 13.56021081 -6.95857755 13.01205017 -10.4375 12 C-13.15650169 11.23677146 -15.41986246 10.78701426 -18.1875 10.5 C-21.40390446 10.07817646 -23.30434937 9.68478164 -26 8 C-26 7.34 -26 6.68 -26 6 C-24.68 6 -23.36 6 -22 6 C-22 5.34 -22 4.68 -22 4 C-21.12988281 3.81824219 -21.12988281 3.81824219 -20.2421875 3.6328125 C-16.6926157 2.8713532 -13.29652763 2.10674995 -9.875 0.875 C-7 0 -7 0 0 0 Z " fill="#EDEDF2" transform="translate(88,70)"/>
<path d="M0 0 C19.2700681 1.34442336 19.2700681 1.34442336 26 5 C26 5.66 26 6.32 26 7 C20.29668391 9.4672293 15.18444458 11.34208036 9 12 C8.67 12.33 8.34 12.66 8 13 C5.32941149 13.14115161 2.67567762 13.04247107 0 13 C0 8.71 0 4.42 0 0 Z " fill="#F6F6F8" transform="translate(168,71)"/>
<path d="M0 0 C-1.5 3 -1.5 3 -3 6 C-3.66 6 -4.32 6 -5 6 C-5 6.66 -5 7.32 -5 8 C-5.66 8 -6.32 8 -7 8 C-7 8.66 -7 9.32 -7 10 C-7.66 10 -8.32 10 -9 10 C-9 10.66 -9 11.32 -9 12 C-9.66 12 -10.32 12 -11 12 C-11 12.66 -11 13.32 -11 14 C-11.66 14 -12.32 14 -13 14 C-13 14.66 -13 15.32 -13 16 C-14.98 16.33 -16.96 16.66 -19 17 C-23 12.375 -23 12.375 -23 9 C-23.66 9 -24.32 9 -25 9 C-25 8.01 -25 7.02 -25 6 C-21.25480237 3.8404315 -17.22322333 2.89906135 -13.0625 1.875 C-12.35931641 1.69324219 -11.65613281 1.51148438 -10.93164062 1.32421875 C-7.21739776 0.3982688 -3.83105622 -0.22491524 0 0 Z " fill="#E2E3EB" transform="translate(184,44)"/>
<path d="M0 0 C4.57131149 1.35903855 5.65085816 2.98688269 8 7 C8.825 7.495 9.65 7.99 10.5 8.5 C13.45853697 10.27512218 14.32862472 12.03710746 16 15 C16.99 15.66 17.98 16.32 19 17 C19 17.99 19 18.98 19 20 C18.01 20 17.02 20 16 20 C16 20.66 16 21.32 16 22 C9.6 25.07692308 9.6 25.07692308 6.5625 24.6875 C6.046875 24.460625 5.53125 24.23375 5 24 C5 21.36 5 18.72 5 16 C4.34 16 3.68 16 3 16 C2.87625 14.96875 2.7525 13.9375 2.625 12.875 C2.0602165 9.37334228 1.13961508 6.34287091 0 3 C0 2.01 0 1.02 0 0 Z " fill="#E9E9EF" transform="translate(96,20)"/>
<path d="M0 0 C2.16874252 0.50603992 3.99967627 0.99983813 6 2 C6 2.66 6 3.32 6 4 C7.65 4.33 9.3 4.66 11 5 C11.33 6.65 11.66 8.3 12 10 C11.34 10 10.68 10 10 10 C10 10.66 10 11.32 10 12 C9.34 12 8.68 12 8 12 C8 12.66 8 13.32 8 14 C7.34 14 6.68 14 6 14 C6 14.66 6 15.32 6 16 C5.34 16 4.68 16 4 16 C4 16.66 4 17.32 4 18 C3.34 18 2.68 18 2 18 C2 18.66 2 19.32 2 20 C1.34 20 0.68 20 0 20 C0 20.66 0 21.32 0 22 C-1.875 24.125 -1.875 24.125 -4 26 C-4.66 26 -5.32 26 -6 26 C-6.24946334 22.5075133 -6.2060398 20.40292227 -4.59375 17.25 C-2.85575002 13.70584318 -2.07820792 10.49000186 -1.3125 6.625 C-1.06113281 5.37976563 -0.80976562 4.13453125 -0.55078125 2.8515625 C-0.36902344 1.91054687 -0.18726562 0.96953125 0 0 Z " fill="#E7E7EE" transform="translate(101,108)"/>
<path d="M0 0 C3.53302522 -0.25235894 5.62183324 -0.19328523 8.8125 1.4375 C12.32726334 3.16042321 14.99791234 3.46830019 18.8515625 3.69140625 C21.23571392 4.03385709 22.91274577 4.82414863 25 6 C24.35550393 9.01217112 23.34977818 11.51655836 21.9375 14.25 C21.57527344 14.95640625 21.21304688 15.6628125 20.83984375 16.390625 C20.56269531 16.92171875 20.28554687 17.4528125 20 18 C18.68 18 17.36 18 16 18 C14.0625 15.8125 14.0625 15.8125 12 13 C10.35353315 11.31337542 8.68816933 9.64488294 7 8 C6.46375 7.4225 5.9275 6.845 5.375 6.25 C3.90383382 4.74340914 3.90383382 4.74340914 1 4 C0.3125 1.9375 0.3125 1.9375 0 0 Z " fill="#EFEFF3" transform="translate(71,44)"/>
<path d="M0 0 C3.79737916 7.797531 6.45067504 15.21183681 6 24 C1.84620856 22.40541656 -0.72556672 19.35779059 -3.625 16.125 C-4.11484375 15.59519531 -4.6046875 15.06539062 -5.109375 14.51953125 C-7.54035823 11.84279289 -9.61925663 9.36251622 -11 6 C-8.24029211 2.78034079 -4.3526723 0 0 0 Z " fill="#F1F1F4" transform="translate(155,108)"/>
<path d="M0 0 C0.47050781 0.40992187 0.94101563 0.81984375 1.42578125 1.2421875 C2.04839844 1.78101562 2.67101562 2.31984375 3.3125 2.875 C4.23482422 3.67550781 4.23482422 3.67550781 5.17578125 4.4921875 C7.13498212 6.1640447 7.13498212 6.1640447 10 8 C10 8.66 10 9.32 10 10 C10.721875 10.12375 11.44375 10.2475 12.1875 10.375 C15 11 15 11 17.09375 12 C21.14678881 13.394594 25.05331022 13.46364159 29.3125 13.625 C30.14845703 13.66367188 30.98441406 13.70234375 31.84570312 13.7421875 C33.89679259 13.83595159 35.94836515 13.91904245 38 14 C38 14.33 38 14.66 38 15 C31.07 15 24.14 15 17 15 C17 14.34 17 13.68 17 13 C16.01 13 15.02 13 14 13 C14.66 14.65 15.32 16.3 16 18 C15.34 18.66 14.68 19.32 14 20 C13.7525 19.195625 13.505 18.39125 13.25 17.5625 C12.27761141 14.828919 12.27761141 14.828919 9.875 14.1875 C9.25625 14.125625 8.6375 14.06375 8 14 C8 13.34 8 12.68 8 12 C6.02 11.34 4.04 10.68 2 10 C2.99 9.67 3.98 9.34 5 9 C4.01 8.67 3.02 8.34 2 8 C1.26953125 6.15234375 1.26953125 6.15234375 0.8125 3.9375 C0.65394531 3.20402344 0.49539062 2.47054687 0.33203125 1.71484375 C0.22246094 1.14894531 0.11289063 0.58304687 0 0 Z " fill="#575996" transform="translate(99,98)"/>
<path d="M0 0 C-0.33 1.32 -0.66 2.64 -1 4 C-2.32 4 -3.64 4 -5 4 C-5.38285156 4.87398438 -5.38285156 4.87398438 -5.7734375 5.765625 C-7.82597934 9.50465026 -10.94091548 12.05421491 -14 15 C-8.06 14.505 -8.06 14.505 -2 14 C-4.65744978 15.77163319 -5.90364344 16.35254487 -8.875 17 C-11.31858804 17.56390493 -13.41460183 18.16960984 -15.75 19.125 C-18 20 -18 20 -22 20 C-21.34 18.68 -20.68 17.36 -20 16 C-19.34 16 -18.68 16 -18 16 C-18 15.34 -18 14.68 -18 14 C-17.34 14 -16.68 14 -16 14 C-16 13.34 -16 12.68 -16 12 C-15.34 12 -14.68 12 -14 12 C-14 11.34 -14 10.68 -14 10 C-13.34 10 -12.68 10 -12 10 C-12 9.34 -12 8.68 -12 8 C-11.34 8 -10.68 8 -10 8 C-10 7.34 -10 6.68 -10 6 C-9.34 6 -8.68 6 -8 6 C-8 5.34 -8 4.68 -8 4 C-7.34 4 -6.68 4 -6 4 C-6 3.34 -6 2.68 -6 2 C-3 0 -3 0 0 0 Z " fill="#BABBD3" transform="translate(91,92)"/>
<path d="M0 0 C0.66 0 1.32 0 2 0 C2.23509196 4.81938524 1.45184478 8.46298506 0 13 C-0.66 13 -1.32 13 -2 13 C-2.33 14.65 -2.66 16.3 -3 18 C-4.33332095 15.3333581 -3.67102033 13.83319697 -3 11 C-2.34 11 -1.68 11 -1 11 C-1 9.02 -1 7.04 -1 5 C-1.66 5 -2.32 5 -3 5 C-3.1546875 5.9590625 -3.1546875 5.9590625 -3.3125 6.9375 C-3.539375 7.618125 -3.76625 8.29875 -4 9 C-4.99 9.33 -5.98 9.66 -7 10 C-7.68486725 11.32407669 -8.34870203 12.65909241 -9 14 C-11 16.25 -11 16.25 -13 18 C-13.66 18 -14.32 18 -15 18 C-15 19.32 -15 20.64 -15 22 C-15.99 21.67 -16.98 21.34 -18 21 C-18 20.01 -18 19.02 -18 18 C-17.34 18 -16.68 18 -16 18 C-16 17.34 -16 16.68 -16 16 C-15.34 16 -14.68 16 -14 16 C-14 15.34 -14 14.68 -14 14 C-13.34 14 -12.68 14 -12 14 C-12 13.34 -12 12.68 -12 12 C-11.34 12 -10.68 12 -10 12 C-10 11.34 -10 10.68 -10 10 C-9.34 10 -8.68 10 -8 10 C-8 9.34 -8 8.68 -8 8 C-7.34 8 -6.68 8 -6 8 C-6 7.34 -6 6.68 -6 6 C-5.34 6 -4.68 6 -4 6 C-4 5.34 -4 4.68 -4 4 C-3.34 4 -2.68 4 -2 4 C-2 3.34 -2 2.68 -2 2 C-1.34 2 -0.68 2 0 2 C0 1.34 0 0.68 0 0 Z " fill="#C1C3D7" transform="translate(161,20)"/>
<path d="M0 0 C0.33 0 0.66 0 1 0 C1.04241723 2.33294775 1.04092937 4.66702567 1 7 C0.67 7.33 0.34 7.66 0 8 C-0.36760731 10.32817964 -0.70241581 12.6618385 -1 15 C-2.8125 15.625 -2.8125 15.625 -5 16 C-5.99 15.34 -6.98 14.68 -8 14 C-6.68 15.65 -5.36 17.3 -4 19 C-4.33 19.66 -4.66 20.32 -5 21 C-5.721875 20.236875 -6.44375 19.47375 -7.1875 18.6875 C-9.72486565 16.26290616 -11.97027598 14.70907509 -15 13 C-16.34631825 12.01755155 -17.68441297 11.02323436 -19 10 C-18.01 10 -17.02 10 -16 10 C-15.67 9.34 -15.34 8.68 -15 8 C-14.20335937 8.433125 -14.20335937 8.433125 -13.390625 8.875 C-12.33101562 9.431875 -12.33101562 9.431875 -11.25 10 C-10.20585937 10.556875 -10.20585937 10.556875 -9.140625 11.125 C-6.76832243 12.25224649 -6.76832243 12.25224649 -3 12 C-2.87625 10.948125 -2.7525 9.89625 -2.625 8.8125 C-2.08859218 5.54041229 -1.36119965 2.99463924 0 0 Z " fill="#4E5291" transform="translate(159,33)"/>
<path d="M0 0 C0.33 0 0.66 0 1 0 C3.18100174 8.45138174 1.75759552 16.60434284 0 25 C0.66 25 1.32 25 2 25 C2.33 24.01 2.66 23.02 3 22 C4.32 22.33 5.64 22.66 7 23 C6.01 23.33 5.02 23.66 4 24 C3.67 24.66 3.34 25.32 3 26 C2.34 26 1.68 26 1 26 C0.95875 27.27875 0.9175 28.5575 0.875 29.875 C0.85179687 30.59429687 0.82859375 31.31359375 0.8046875 32.0546875 C0.81668311 34.23863645 0.81668311 34.23863645 3 36 C1.02 35.67 -0.96 35.34 -3 35 C-3 34.01 -3 33.02 -3 32 C-2.34 32 -1.68 32 -1 32 C-0.67 30.02 -0.34 28.04 0 26 C-0.99 26 -1.98 26 -3 26 C-2.85950482 24.52031676 -2.71245174 23.04125484 -2.5625 21.5625 C-2.48128906 20.73878906 -2.40007812 19.91507813 -2.31640625 19.06640625 C-2 17 -2 17 -1 16 C-0.76321284 13.30764224 -0.57801975 10.63501844 -0.4375 7.9375 C-0.39431641 7.17888672 -0.35113281 6.42027344 -0.30664062 5.63867188 C-0.20026367 3.75934562 -0.09960066 1.87969756 0 0 Z " fill="#62649B" transform="translate(162,68)"/>
<path d="M0 0 C4.95 0 9.9 0 15 0 C14.4140625 7.71484375 14.4140625 7.71484375 14 10 C13.01 10.495 13.01 10.495 12 11 C12.33 8.03 12.66 5.06 13 2 C9.7 2 6.4 2 3 2 C3 4.31 3 6.62 3 9 C3.66 9 4.32 9 5 9 C5.33 12.63 5.66 16.26 6 20 C5.34 19.67 4.68 19.34 4 19 C3.39060481 16.77235441 2.8863611 14.51545604 2.4375 12.25 C2.18871094 11.01765625 1.93992187 9.7853125 1.68359375 8.515625 C1.45800781 7.35546875 1.23242188 6.1953125 1 5 C0.67 3.35 0.34 1.7 0 0 Z " fill="#A7A9C5" transform="translate(121,116)"/>
<path d="M0 0 C5.53846154 -0.36923077 5.53846154 -0.36923077 7.875 1.5 C8.24625 1.995 8.6175 2.49 9 3 C6.36 2.67 3.72 2.34 1 2 C1 6.29 1 10.58 1 15 C1.99 15.33 2.98 15.66 4 16 C2.35 16.33 0.7 16.66 -1 17 C-1 15.68 -1 14.36 -1 13 C-1.66 13 -2.32 13 -3 13 C-3 9.7 -3 6.4 -3 3 C-2.34 3 -1.68 3 -1 3 C-0.67 2.01 -0.34 1.02 0 0 Z " fill="#3B3F8A" transform="translate(167,69)"/>
<path d="M0 0 C0.66 0.99 1.32 1.98 2 3 C5.34613512 3.58687784 5.34613512 3.58687784 9.125 3.6875 C11.04699219 3.78611328 11.04699219 3.78611328 13.0078125 3.88671875 C13.99523437 3.92410156 14.98265625 3.96148437 16 4 C16 4.66 16 5.32 16 6 C13.27123692 6.33695862 10.54206837 6.66968429 7.8125 7 C6.65911133 7.14308594 6.65911133 7.14308594 5.48242188 7.2890625 C1.63071189 7.75192894 -2.11170851 8.12467468 -6 8 C-6 7.34 -6 6.68 -6 6 C-5.01 6 -4.02 6 -3 6 C-3 4.35 -3 2.7 -3 1 C-2.01 0.67 -1.02 0.34 0 0 Z " fill="#23287D" transform="translate(119,35)"/>
<path d="M0 0 C2.31 0 4.62 0 7 0 C7 4.62 7 9.24 7 14 C3.4083883 13.56021081 0.04142245 13.01205017 -3.4375 12 C-6.15650169 11.23677146 -8.41986246 10.78701426 -11.1875 10.5 C-14.40390446 10.07817646 -16.30434937 9.68478164 -19 8 C-19 7.34 -19 6.68 -19 6 C-17.68 6 -16.36 6 -15 6 C-14.67 6.66 -14.34 7.32 -14 8 C-11.97806455 8.31872797 -11.97806455 8.31872797 -9.5625 8.375 C-3.77826121 8.81737324 0.71509771 10.65954327 6 13 C6 9.04 6 5.08 6 1 C3.36 1.33 0.72 1.66 -2 2 C-1.34 1.34 -0.68 0.68 0 0 Z " fill="#AFB1CB" transform="translate(81,70)"/>
<path d="M0 0 C0.33 0.99 0.66 1.98 1 3 C1.66 3 2.32 3 3 3 C4.32 5.31 5.64 7.62 7 10 C8.32 10 9.64 10 11 10 C11 10.66 11 11.32 11 12 C9.1875 12.625 9.1875 12.625 7 13 C6.01 12.34 5.02 11.68 4 11 C4 12.32 4 13.64 4 15 C4.66 15.33 5.32 15.66 6 16 C5.34 16.66 4.68 17.32 4 18 C3.66226563 17.24074219 3.32453125 16.48148438 2.9765625 15.69921875 C2.53054687 14.70535156 2.08453125 13.71148437 1.625 12.6875 C1.18414062 11.70136719 0.74328125 10.71523438 0.2890625 9.69921875 C-0.98242758 6.87254793 -0.98242758 6.87254793 -3 4 C-2.01 4 -1.02 4 0 4 C0 2.68 0 1.36 0 0 Z " fill="#40448A" transform="translate(158,50)"/>
<path d="M0 0 C0.99 0 1.98 0 3 0 C3 0.66 3 1.32 3 2 C10.59 2 18.18 2 26 2 C26.33 3.32 26.66 4.64 27 6 C26.01 6.495 26.01 6.495 25 7 C24.67 6.34 24.34 5.68 24 5 C20.87549468 4.80354907 17.75038555 4.61936511 14.625 4.4375 C13.73554687 4.38142578 12.84609375 4.32535156 11.9296875 4.26757812 C11.07890625 4.21923828 10.228125 4.17089844 9.3515625 4.12109375 C8.17327881 4.05039673 8.17327881 4.05039673 6.97119141 3.97827148 C4.92121036 3.85717494 4.92121036 3.85717494 3 5 C3 4.34 3 3.68 3 3 C2.01 2.67 1.02 2.34 0 2 C0 1.34 0 0.68 0 0 Z " fill="#2E3281" transform="translate(113,111)"/>
<path d="M0 0 C3.77300358 1.0197307 4.80206144 1.65872662 6.8125 5.125 C7.204375 6.07375 7.59625 7.0225 8 8 C6.68 7.67 5.36 7.34 4 7 C4 9.31 4 11.62 4 14 C4.66 14 5.32 14 6 14 C6.33 17.63 6.66 21.26 7 25 C6.34 24.67 5.68 24.34 5 24 C5 21.36 5 18.72 5 16 C4.34 16 3.68 16 3 16 C2.87625 14.96875 2.7525 13.9375 2.625 12.875 C2.0602165 9.37334228 1.13961508 6.34287091 0 3 C0 2.01 0 1.02 0 0 Z " fill="#D0D1E0" transform="translate(96,20)"/>
<path d="M0 0 C0.66 0 1.32 0 2 0 C2 1.98 2 3.96 2 6 C1.34 6 0.68 6 0 6 C-1 3 -1 3 0 0 Z M-4 5 C-3.01 5.495 -3.01 5.495 -2 6 C-2.99 6.495 -2.99 6.495 -4 7 C-4 6.34 -4 5.68 -4 5 Z M-12 13 C-11.01 13.495 -11.01 13.495 -10 14 C-10.33 14.66 -10.66 15.32 -11 16 C-10.01 16 -9.02 16 -8 16 C-8 16.66 -8 17.32 -8 18 C-6.35 18.33 -4.7 18.66 -3 19 C-2.67 17.02 -2.34 15.04 -2 13 C-1.67 13 -1.34 13 -1 13 C-1 15.31 -1 17.62 -1 20 C-3.125 20.75 -3.125 20.75 -6 21 C-9.3125 19.3125 -9.3125 19.3125 -12 17 C-12 15.68 -12 14.36 -12 13 Z " fill="#DBDCE6" transform="translate(158,25)"/>
<path d="M0 0 C0.33 0.99 0.66 1.98 1 3 C0.01 3 -0.98 3 -2 3 C-2 3.66 -2 4.32 -2 5 C2.455 4.505 2.455 4.505 7 4 C3.5647952 6.29013653 2.014669 6.17842973 -2 6 C-2 6.66 -2 7.32 -2 8 C-5 10 -5 10 -8 10 C-8.2475 10.61875 -8.495 11.2375 -8.75 11.875 C-10.20628639 14.35068687 -11.37812506 14.95125002 -14 16 C-9.20647149 8.65254237 -9.20647149 8.65254237 -5 7 C-4.67 6.34 -4.34 5.68 -4 5 C-5.32 5.33 -6.64 5.66 -8 6 C-7.67 5.34 -7.34 4.68 -7 4 C-5.68 4 -4.36 4 -3 4 C-3 3.34 -3 2.68 -3 2 C-2.01 2 -1.02 2 0 2 C0 1.34 0 0.68 0 0 Z " fill="#6B6FA1" transform="translate(115,38)"/>
<path d="M0 0 C0.66 0 1.32 0 2 0 C2 1.32 2 2.64 2 4 C1.34 4 0.68 4 0 4 C0 4.99 0 5.98 0 7 C0.99 7.33 1.98 7.66 3 8 C2.34 8 1.68 8 1 8 C0.67 9.32 0.34 10.64 0 12 C0 10.68 0 9.36 0 8 C-3.22404978 9.66954819 -3.22404978 9.66954819 -3.6875 12.625 C-3.790625 13.40875 -3.89375 14.1925 -4 15 C-5.32 15 -6.64 15 -8 15 C-8 14.01 -8 13.02 -8 12 C-7.01 12 -6.02 12 -5 12 C-4.87753906 11.42765625 -4.75507812 10.8553125 -4.62890625 10.265625 C-3.97237132 7.90046809 -3.06276488 5.92793203 -1.9375 3.75 C-1.57527344 3.04359375 -1.21304688 2.3371875 -0.83984375 1.609375 C-0.56269531 1.07828125 -0.28554687 0.5471875 0 0 Z " fill="#5B5E99" transform="translate(96,50)"/>
<path d="M0 0 C1.921875 0.7265625 1.921875 0.7265625 4 2 C4.828125 4.0234375 4.828125 4.0234375 5.25 6.375 C5.39953125 7.14585938 5.5490625 7.91671875 5.703125 8.7109375 C6 11 6 11 6 15 C5.01 14.67 4.02 14.34 3 14 C3 11.03 3 8.06 3 5 C2.34 5 1.68 5 1 5 C0.87625 5.61875 0.7525 6.2375 0.625 6.875 C0 9 0 9 -2 11 C-2 9.68 -2 8.36 -2 7 C-1.34 7 -0.68 7 0 7 C0 4.69 0 2.38 0 0 Z " fill="#A1A3C3" transform="translate(127,11)"/>
<path d="M0 0 C1.54578627 3.09157253 0.60277633 5.68473019 0 9 C-0.33 9.33 -0.66 9.66 -1 10 C2.96 10.33 6.92 10.66 11 11 C10.34 8.03 9.68 5.06 9 2 C9.66 2.33 10.32 2.66 11 3 C11.59772099 5.9829661 11.74337815 8.96330805 12 12 C7.05 12 2.1 12 -3 12 C-3 6.62516458 -2.2018931 4.67902284 0 0 Z " fill="#A3A5C4" transform="translate(124,26)"/>
<path d="M0 0 C0.69931641 -0.01611328 1.39863281 -0.03222656 2.11914062 -0.04882812 C6.88521694 -0.05328657 10.15567593 0.77485881 14.1875 3.3125 C14.5175 3.9725 14.8475 4.6325 15.1875 5.3125 C13.8675 5.3125 12.5475 5.3125 11.1875 5.3125 C11.1875 4.6525 11.1875 3.9925 11.1875 3.3125 C10.053125 3.333125 8.91875 3.35375 7.75 3.375 C4.1875 3.3125 4.1875 3.3125 3.1875 2.3125 C0.83436445 2.23978259 -1.52083668 2.22879132 -3.875 2.25 C-5.16535156 2.25902344 -6.45570312 2.26804688 -7.78515625 2.27734375 C-8.78417969 2.28894531 -9.78320312 2.30054688 -10.8125 2.3125 C-7.12391494 -0.1465567 -4.26767814 -0.01934578 0 0 Z " fill="#B4B6D0" transform="translate(129.8125,41.6875)"/>
<path d="M0 0 C1.17219543 0.78345715 2.33763668 1.57702836 3.5 2.375 C4.47453125 3.03628906 4.47453125 3.03628906 5.46875 3.7109375 C6.22671875 4.34902344 6.22671875 4.34902344 7 5 C7 5.66 7 6.32 7 7 C7.66 7 8.32 7 9 7 C9 7.66 9 8.32 9 9 C4.24792529 9.43200679 1.21789302 7.98489083 -3 6 C-1.68 5.67 -0.36 5.34 1 5 C0.67 3.35 0.34 1.7 0 0 Z " fill="#B8BAD2" transform="translate(178,101)"/>
<path d="M0 0 C1.52907246 3.05814492 0.22587012 4.9990066 -0.8125 8.1875 C-1.18503906 9.35023437 -1.55757813 10.51296875 -1.94140625 11.7109375 C-2.29074219 12.79632813 -2.64007813 13.88171875 -3 15 C-3.68932827 17.32789546 -4.34739926 19.66151402 -5 22 C-4.34 22.33 -3.68 22.66 -3 23 C-4.32 23.33 -5.64 23.66 -7 24 C-6.85950482 22.52031676 -6.71245174 21.04125484 -6.5625 19.5625 C-6.48128906 18.73878906 -6.40007812 17.91507813 -6.31640625 17.06640625 C-6 15 -6 15 -5 14 C-4.63239269 11.67182036 -4.29758419 9.3381615 -4 7 C-3.34 7 -2.68 7 -2 7 C-1.855625 6.030625 -1.71125 5.06125 -1.5625 4.0625 C-1 1 -1 1 0 0 Z " fill="#7072A5" transform="translate(100,112)"/>
<path d="M0 0 C-0.73605469 0.19335938 -1.47210938 0.38671875 -2.23046875 0.5859375 C-3.69419922 0.97652344 -3.69419922 0.97652344 -5.1875 1.375 C-6.15042969 1.63023438 -7.11335938 1.88546875 -8.10546875 2.1484375 C-10.99006344 2.93807552 -10.99006344 2.93807552 -13.61328125 4.1015625 C-16 5 -16 5 -20 5 C-19.4375 3.0625 -19.4375 3.0625 -18 1 C-14.8125 0.3125 -14.8125 0.3125 -11 0 C-9.1746875 -0.309375 -9.1746875 -0.309375 -7.3125 -0.625 C-4.30971219 -0.96493824 -2.80415992 -0.81864364 0 0 Z " fill="#ADAFCB" transform="translate(89,107)"/>
<path d="M0 0 C7.66742597 5.96583144 7.66742597 5.96583144 9 11 C6.69 10.67 4.38 10.34 2 10 C2.99 9.67 3.98 9.34 5 9 C4.01 8.67 3.02 8.34 2 8 C1.26953125 6.15234375 1.26953125 6.15234375 0.8125 3.9375 C0.65394531 3.20402344 0.49539062 2.47054687 0.33203125 1.71484375 C0.22246094 1.14894531 0.11289063 0.58304687 0 0 Z " fill="#45498E" transform="translate(99,98)"/>
<path d="M0 0 C0.33 0 0.66 0 1 0 C3.19171135 8.49288148 2.16507408 16.86953447 -1 25 C-1.66 25.33 -2.32 25.66 -3 26 C-2.85950482 24.52031676 -2.71245174 23.04125484 -2.5625 21.5625 C-2.48128906 20.73878906 -2.40007812 19.91507813 -2.31640625 19.06640625 C-2 17 -2 17 -1 16 C-0.76321284 13.30764224 -0.57801975 10.63501844 -0.4375 7.9375 C-0.39431641 7.17888672 -0.35113281 6.42027344 -0.30664062 5.63867188 C-0.20026367 3.75934562 -0.09960066 1.87969756 0 0 Z " fill="#B7B8D1" transform="translate(162,68)"/>
<path d="M0 0 C0.66 0 1.32 0 2 0 C2.23509196 4.81938524 1.45184478 8.46298506 0 13 C-0.66 13 -1.32 13 -2 13 C-2.33 14.65 -2.66 16.3 -3 18 C-4.33332095 15.3333581 -3.67102033 13.83319697 -3 11 C-2.34 11 -1.68 11 -1 11 C-1 9.02 -1 7.04 -1 5 C-1.99 5.33 -2.98 5.66 -4 6 C-4 5.34 -4 4.68 -4 4 C-3.34 4 -2.68 4 -2 4 C-2 3.34 -2 2.68 -2 2 C-1.34 2 -0.68 2 0 2 C0 1.34 0 0.68 0 0 Z " fill="#A3A6C4" transform="translate(161,20)"/>
<path d="M0 0 C0.33 0 0.66 0 1 0 C1 3.96 1 7.92 1 12 C1.99 12 2.98 12 4 12 C4 11.34 4 10.68 4 10 C10.435 9.505 10.435 9.505 17 9 C16.67 9.66 16.34 10.32 16 11 C13.67284 11.37400786 11.33882138 11.70764733 9 12 C8.67 12.33 8.34 12.66 8 13 C5.32941149 13.14115161 2.67567762 13.04247107 0 13 C0 8.71 0 4.42 0 0 Z " fill="#ABACC6" transform="translate(168,71)"/>
<path d="M0 0 C2.33333333 0.33333333 4.66666667 0.66666667 7 1 C8.216875 1.144375 9.43375 1.28875 10.6875 1.4375 C13.58704471 1.92987552 15.50762097 2.50457258 18 4 C18 4.66 18 5.32 18 6 C15.64561267 7.42944945 14.51967567 8.08661261 11.75 7.625 C11.1725 7.41875 10.595 7.2125 10 7 C10.99 6.34 11.98 5.68 13 5 C8.71 3.68 4.42 2.36 0 1 C0 0.67 0 0.34 0 0 Z " fill="#A7A9C6" transform="translate(176,72)"/>
<path d="M0 0 C1.15782198 3.38084018 0.83835147 5.29663219 -0.375 8.625 C-0.65085938 9.40101563 -0.92671875 10.17703125 -1.2109375 10.9765625 C-2 13 -2 13 -3 15 C-3.66 15 -4.32 15 -5 15 C-5 13.02 -5 11.04 -5 9 C-4.34 9 -3.68 9 -3 9 C-2.87625 7.700625 -2.7525 6.40125 -2.625 5.0625 C-2.4140625 2.84765625 -2.4140625 2.84765625 -2 1 C-1.34 0.67 -0.68 0.34 0 0 Z " fill="#AEB0CC" transform="translate(132,129)"/>
<path d="M0 0 C6 0 6 0 7.875 1.5 C8.24625 1.995 8.6175 2.49 9 3 C6.36 2.67 3.72 2.34 1 2 C1 6.29 1 10.58 1 15 C1.99 15.33 2.98 15.66 4 16 C2.68 16 1.36 16 0 16 C0 10.72 0 5.44 0 0 Z " fill="#6B6EA1" transform="translate(167,69)"/>
<path d="M0 0 C0.33 0 0.66 0 1 0 C1.04241723 2.33294775 1.04092937 4.66702567 1 7 C0.67 7.33 0.34 7.66 0 8 C-0.36760731 10.32817964 -0.70241581 12.6618385 -1 15 C-2.32 15.33 -3.64 15.66 -5 16 C-5.33 15.01 -5.66 14.02 -6 13 C-5.01 12.67 -4.02 12.34 -3 12 C-2.87625 10.948125 -2.7525 9.89625 -2.625 8.8125 C-2.08859218 5.54041229 -1.36119965 2.99463924 0 0 Z " fill="#595C97" transform="translate(159,33)"/>
<path d="M0 0 C0.309375 0.639375 0.61875 1.27875 0.9375 1.9375 C1.8345163 3.93610821 1.8345163 3.93610821 3 5 C3.42184715 6.42445647 3.78869874 7.86545725 4.125 9.3125 C4.31320313 10.09238281 4.50140625 10.87226562 4.6953125 11.67578125 C5.01407492 14.10736639 4.7517621 15.6864786 4 18 C1.13035626 11.74827614 -0.51137226 6.90352555 0 0 Z " fill="#B7B9D0" transform="translate(156,112)"/>
<path d="M0 0 C6.875 0.875 6.875 0.875 8 2 C10.69235776 2.23678716 13.36498156 2.42198025 16.0625 2.5625 C17.20041992 2.62727539 17.20041992 2.62727539 18.36132812 2.69335938 C20.24065438 2.79973633 22.12030244 2.90039934 24 3 C24 3.33 24 3.66 24 4 C21.12442297 4.08138426 18.25117738 4.14067851 15.375 4.1875 C14.16263672 4.22520508 14.16263672 4.22520508 12.92578125 4.26367188 C7.82310684 4.32589961 4.46860312 3.75491551 0 1 C0 0.67 0 0.34 0 0 Z " fill="#C8CADC" transform="translate(113,108)"/>
<path d="M0 0 C0.4125 0.495 0.825 0.99 1.25 1.5 C3.12202338 3.43386092 3.12202338 3.43386092 7 3 C7 3.66 7 4.32 7 5 C5.1875 5.625 5.1875 5.625 3 6 C2.01 5.34 1.02 4.68 0 4 C0 5.32 0 6.64 0 8 C0.66 8.33 1.32 8.66 2 9 C1.34 9.66 0.68 10.32 0 11 C-3 5.25 -3 5.25 -3 3 C-2.01 3 -1.02 3 0 3 C0 2.01 0 1.02 0 0 Z " fill="#6E72A5" transform="translate(162,57)"/>
<path d="M0 0 C3.3 0.33 6.6 0.66 10 1 C10 1.66 10 2.32 10 3 C10.94875 3.12375 11.8975 3.2475 12.875 3.375 C16 4 16 4 18 6 C14.21402226 5.48373031 11.38660559 4.69330279 8 3 C6.00889599 2.61709538 4.00899487 2.27395385 2 2 C1.67 2.66 1.34 3.32 1 4 C0.67 2.68 0.34 1.36 0 0 Z " fill="#626599" transform="translate(69,42)"/>
<path d="M0 0 C0.33 0 0.66 0 1 0 C1 2.31 1 4.62 1 7 C2.98 6.67 4.96 6.34 7 6 C7.33 7.65 7.66 9.3 8 11 C7.34 10.67 6.68 10.34 6 10 C6 9.34 6 8.68 6 8 C4.02463255 8.34786708 4.02463255 8.34786708 2 9 C1.67 9.66 1.34 10.32 1 11 C0.34 11 -0.32 11 -1 11 C-0.67 7.37 -0.34 3.74 0 0 Z " fill="#3B3E85" transform="translate(163,82)"/>
<path d="M0 0 C0.33 0 0.66 0 1 0 C1 1.65 1 3.3 1 5 C1.99 4.67 2.98 4.34 4 4 C4 6 4 6 2.125 8.125 C0 10 0 10 -2 10 C-2.17942163 6.05272412 -2.09350689 3.4019487 0 0 Z " fill="#BEC1D8" transform="translate(97,124)"/>
<path d="M0 0 C3 3.75 3 3.75 3 6 C2.01 6 1.02 6 0 6 C0.33 8.31 0.66 10.62 1 13 C-1 12 -1 12 -2.125 8.9375 C-2.41375 7.968125 -2.7025 6.99875 -3 6 C-2.34 5.67 -1.68 5.34 -1 5 C-0.34444881 2.47266765 -0.34444881 2.47266765 0 0 Z " fill="#63679B" transform="translate(94,88)"/>
<path d="M0 0 C2.97 1.98 2.97 1.98 6 4 C6.33 3.34 6.66 2.68 7 2 C7.33 3.65 7.66 5.3 8 7 C5.5625 6.625 5.5625 6.625 3 6 C2.67 5.34 2.34 4.68 2 4 C1.01 4 0.02 4 -1 4 C-0.67 2.68 -0.34 1.36 0 0 Z " fill="#686B9E" transform="translate(155,128)"/>
<path d="M0 0 C0.99 0 1.98 0 3 0 C3 0.66 3 1.32 3 2 C5.64 2 8.28 2 11 2 C11 2.66 11 3.32 11 4 C10.05125 3.979375 9.1025 3.95875 8.125 3.9375 C5.09333717 3.77448174 5.09333717 3.77448174 3 5 C3 4.34 3 3.68 3 3 C2.01 2.67 1.02 2.34 0 2 C0 1.34 0 0.68 0 0 Z " fill="#24287D" transform="translate(113,111)"/>
<path d="M0 0 C0.66 0 1.32 0 2 0 C2 1.32 2 2.64 2 4 C2.66 4 3.32 4 4 4 C4 5.32 4 6.64 4 8 C4.66 8 5.32 8 6 8 C6.33 9.65 6.66 11.3 7 13 C3.35333693 10.73213722 2.32102772 8.93595674 1.25 4.8125 C1.00765625 3.91144531 0.7653125 3.01039062 0.515625 2.08203125 C0.34546875 1.39496094 0.1753125 0.70789063 0 0 Z " fill="#C4C6D7" transform="translate(94,86)"/>
<path d="M0 0 C1.98 0.66 3.96 1.32 6 2 C6.33 3.65 6.66 5.3 7 7 C6.01 7 5.02 7 4 7 C0 2.65714286 0 2.65714286 0 0 Z " fill="#282E81" transform="translate(151,47)"/>
<path d="M0 0 C0.66 0 1.32 0 2 0 C2 0.99 2 1.98 2 3 C2.66 3 3.32 3 4 3 C4.042721 4.66611905 4.04063832 6.33382885 4 8 C3 9 3 9 1.15234375 9.09765625 C-0.8984375 9.06510417 -2.94921875 9.03255208 -5 9 C-5 8.67 -5 8.34 -5 8 C-3.865625 7.71125 -2.73125 7.4225 -1.5625 7.125 C-0.386875 6.75375 0.78875 6.3825 2 6 C2.33 5.34 2.66 4.68 3 4 C2.34 4 1.68 4 1 4 C0.67 2.68 0.34 1.36 0 0 Z " fill="#494B8E" transform="translate(94,98)"/>
<path d="M0 0 C1.65 0.33 3.3 0.66 5 1 C4.67 1.66 4.34 2.32 4 3 C1.93359375 3.6328125 1.93359375 3.6328125 -0.5625 4.125 C-1.38878906 4.29257813 -2.21507812 4.46015625 -3.06640625 4.6328125 C-3.70449219 4.75398438 -4.34257812 4.87515625 -5 5 C-5 4.34 -5 3.68 -5 3 C-4.360625 2.87625 -3.72125 2.7525 -3.0625 2.625 C-2.0415625 2.315625 -2.0415625 2.315625 -1 2 C-0.67 1.34 -0.34 0.68 0 0 Z " fill="#E8E8EF" transform="translate(185,76)"/>
<path d="M0 0 C0.66 0.33 1.32 0.66 2 1 C-3.14285714 6.57142857 -3.14285714 6.57142857 -7 7 C-7 6.34 -7 5.68 -7 5 C-6.34 5 -5.68 5 -5 5 C-5 4.34 -5 3.68 -5 3 C-4.34 3 -3.68 3 -3 3 C-3 2.34 -3 1.68 -3 1 C-2.01 0.67 -1.02 0.34 0 0 Z " fill="#C5C6DA" transform="translate(80,101)"/>
<path d="M0 0 C1.32 0.33 2.64 0.66 4 1 C3 3 3 3 0.625 4.125 C-2 5 -2 5 -5 5 C-5 5.66 -5 6.32 -5 7 C-5.66 6.67 -6.32 6.34 -7 6 C-6 4 -6 4 -2.9375 2.875 C-1.4834375 2.441875 -1.4834375 2.441875 0 2 C0 1.34 0 0.68 0 0 Z " fill="#CDCEDE" transform="translate(113,44)"/>
<path d="M0 0 C0.99 0 1.98 0 3 0 C3.33 2.31 3.66 4.62 4 7 C3.34 7 2.68 7 2 7 C2 6.01 2 5.02 2 4 C1.34 4 0.68 4 0 4 C0 2.68 0 1.36 0 0 Z " fill="#2A2E7F" transform="translate(94,94)"/>
<path d="M0 0 C0.99 0 1.98 0 3 0 C2.67 1.98 2.34 3.96 2 6 C1.67 5.34 1.34 4.68 1 4 C0.34 4 -0.32 4 -1 4 C-1 4.66 -1 5.32 -1 6 C-1.66 5.67 -2.32 5.34 -3 5 C-1.6875 2.5 -1.6875 2.5 0 0 Z " fill="#3F438A" transform="translate(159,94)"/>
<path d="M0 0 C5.75 0.875 5.75 0.875 8 2 C7.67 2.99 7.34 3.98 7 5 C7 4.34 7 3.68 7 3 C4.69 3 2.38 3 0 3 C0 2.01 0 1.02 0 0 Z " fill="#B0B2CB" transform="translate(88,48)"/>
<path d="M0 0 C-1 2 -2 4 -3 6 C-3.66 5.67 -4.32 5.34 -5 5 C-4.67 4.01 -4.34 3.02 -4 2 C-4.99 1.67 -5.98 1.34 -7 1 C-4.53721199 -0.231394 -2.7204945 -0.07159196 0 0 Z " fill="#BBBDD4" transform="translate(184,44)"/>
<path d="M0 0 C0.99 0.33 1.98 0.66 3 1 C2.67 1.99 2.34 2.98 2 4 C0.02 4.33 -1.96 4.66 -4 5 C-3.67 4.01 -3.34 3.02 -3 2 C-2.01 2 -1.02 2 0 2 C0 1.34 0 0.68 0 0 Z " fill="#BABBD2" transform="translate(94,101)"/>
<path d="M0 0 C1.62600941 0.0870005 3.25089678 0.1951781 4.875 0.3125 C5.77992188 0.37050781 6.68484375 0.42851563 7.6171875 0.48828125 C10 1 10 1 12 4 C10.68 4 9.36 4 8 4 C8 3.34 8 2.68 8 2 C5.69 2 3.38 2 1 2 C0.67 1.34 0.34 0.68 0 0 Z " fill="#D0D1E0" transform="translate(133,43)"/>
<path d="M0 0 C2.475 0.99 2.475 0.99 5 2 C5 2.66 5 3.32 5 4 C4.34 4 3.68 4 3 4 C3 5.65 3 7.3 3 9 C2.34 8.67 1.68 8.34 1 8 C0.40644386 5.35139573 0.25790731 2.70802678 0 0 Z " fill="#ADAFC9" transform="translate(96,20)"/>
<path d="M0 0 C1.74627478 2.61941217 2.38722388 4.03824877 3 7 C-0.16115776 5.63016497 -0.9927092 5.0109362 -3 2 C-2.01 2 -1.02 2 0 2 C0 1.34 0 0.68 0 0 Z " fill="#DADBE5" transform="translate(158,125)"/>
<path d="M0 0 C1 2 1 2 1 5 C1.66 5.66 2.32 6.32 3 7 C0.03 6.505 0.03 6.505 -3 6 C-3 5.01 -3 4.02 -3 3 C-2.34 3 -1.68 3 -1 3 C-0.67 2.01 -0.34 1.02 0 0 Z " fill="#979ABB" transform="translate(162,97)"/>
<path d="M0 0 C0.33 0 0.66 0 1 0 C1.21278058 4.46839215 0.59138085 7.82262526 -1 12 C-2.4606285 9.35261084 -3 8.10551666 -3 5 C-2.01 5 -1.02 5 0 5 C0 3.35 0 1.7 0 0 Z " fill="#3B3F8C" transform="translate(122,26)"/>
<path d="M0 0 C2.12508244 3.18762365 2.5020163 5.26512223 3 9 C2.01 8.67 1.02 8.34 0 8 C0 5.36 0 2.72 0 0 Z " fill="#C2C3D8" transform="translate(130,17)"/>
<path d="M0 0 C0 3.11227195 -0.45627049 5.94152152 -1 9 C-0.34 9.33 0.32 9.66 1 10 C-0.32 10.33 -1.64 10.66 -3 11 C-2.88590407 9.54077307 -2.75834456 8.08259402 -2.625 6.625 C-2.55539063 5.81289062 -2.48578125 5.00078125 -2.4140625 4.1640625 C-2 2 -2 2 0 0 Z " fill="#575B97" transform="translate(96,125)"/>
<path d="M0 0 C0.33 0.66 0.66 1.32 1 2 C1.66 2.33 2.32 2.66 3 3 C1.68 3.33 0.36 3.66 -1 4 C-1 3.34 -1 2.68 -1 2 C-2.98 2.33 -4.96 2.66 -7 3 C-4.64046906 0.64046906 -3.22104383 0.50858587 0 0 Z " fill="#4F5292" transform="translate(144,109)"/>
<path d="M0 0 C0.66 0.33 1.32 0.66 2 1 C1.67 2.98 1.34 4.96 1 7 C0.01 7 -0.98 7 -2 7 C-2 6.01 -2 5.02 -2 4 C-1.34 4 -0.68 4 0 4 C0 2.68 0 1.36 0 0 Z " fill="#292E80" transform="translate(98,50)"/>
<path d="M0 0 C1.98 0 3.96 0 6 0 C6.33 0.66 6.66 1.32 7 2 C5.68 2 4.36 2 3 2 C3 2.66 3 3.32 3 4 C2.34 4 1.68 4 1 4 C0.67 2.68 0.34 1.36 0 0 Z " fill="#A9ABC6" transform="translate(71,44)"/>
</svg>
