<?xml version="1.0" encoding="UTF-8"?>
<svg version="1.1" xmlns="http://www.w3.org/2000/svg" width="492" height="338">
<path d="M0 0 C162.36 0 324.72 0 492 0 C492 111.54 492 223.08 492 338 C329.64 338 167.28 338 0 338 C0 226.46 0 114.92 0 0 Z " fill="#D1362F" transform="translate(0,0)"/>
<path d="M0 0 C0.82023148 -0.00191345 1.64046295 -0.0038269 2.48554993 -0.00579834 C4.22303575 -0.00715946 5.96053176 -0.00346807 7.69799805 0.00488281 C10.33601269 0.0155151 12.97333565 0.00502084 15.61132812 -0.0078125 C17.3033869 -0.00648955 18.99544526 -0.00392437 20.6875 0 C21.46800217 -0.00404846 22.24850433 -0.00809692 23.05265808 -0.01226807 C28.22988874 0.03122144 32.69475289 0.84095822 37.67578125 2.265625 C37.67578125 3.255625 37.67578125 4.245625 37.67578125 5.265625 C38.38605469 5.31460938 39.09632813 5.36359375 39.828125 5.4140625 C40.74722656 5.48882812 41.66632813 5.56359375 42.61328125 5.640625 C43.52980469 5.71023437 44.44632812 5.77984375 45.390625 5.8515625 C46.14472656 5.98820312 46.89882812 6.12484375 47.67578125 6.265625 C48.00578125 6.925625 48.33578125 7.585625 48.67578125 8.265625 C50.23251217 8.92291139 51.79085114 9.57655832 53.35546875 10.21484375 C56.36875934 11.57944841 59.22909381 13.14625262 62.11328125 14.765625 C63.16386719 15.3534375 64.21445313 15.94125 65.296875 16.546875 C66.08191406 17.1140625 66.86695313 17.68125 67.67578125 18.265625 C67.67578125 19.255625 67.67578125 20.245625 67.67578125 21.265625 C68.23136719 21.34039062 68.78695312 21.41515625 69.359375 21.4921875 C72.52274629 22.54842277 74.30738329 24.37472012 76.73828125 26.640625 C77.59550781 27.43210937 78.45273438 28.22359375 79.3359375 29.0390625 C81.14249205 30.75815448 82.92702084 32.48819638 84.67578125 34.265625 C84.34578125 35.255625 84.01578125 36.245625 83.67578125 37.265625 C83.19109375 36.86730469 82.70640625 36.46898437 82.20703125 36.05859375 C77.52376794 32.35701448 73.35822645 30.09212524 67.67578125 28.265625 C67.67578125 27.605625 67.67578125 26.945625 67.67578125 26.265625 C66.95390625 26.3275 66.23203125 26.389375 65.48828125 26.453125 C62.67578125 26.265625 62.67578125 26.265625 60.36328125 24.828125 C56.75369644 22.72952918 53.81862553 22.6167135 49.67578125 22.265625 C49.67578125 21.605625 49.67578125 20.945625 49.67578125 20.265625 C45.36254886 20.34722791 41.05065601 20.46000828 36.73828125 20.578125 C35.52591797 20.60068359 34.31355469 20.62324219 33.06445312 20.64648438 C26.79490615 20.83338144 21.34301491 21.2490106 15.49804688 23.61523438 C12.87201901 24.55249834 10.42730475 24.47728065 7.67578125 24.265625 C7.67578125 24.925625 7.67578125 25.585625 7.67578125 26.265625 C6.35578125 26.265625 5.03578125 26.265625 3.67578125 26.265625 C3.67578125 26.925625 3.67578125 27.585625 3.67578125 28.265625 C2.35578125 28.265625 1.03578125 28.265625 -0.32421875 28.265625 C-0.81921875 29.750625 -0.81921875 29.750625 -1.32421875 31.265625 C-2.98494724 31.94694951 -4.65198575 32.61304627 -6.32421875 33.265625 C-6.98421875 34.255625 -7.64421875 35.245625 -8.32421875 36.265625 C-11.44921875 37.453125 -11.44921875 37.453125 -14.32421875 38.265625 C-14.32421875 38.925625 -14.32421875 39.585625 -14.32421875 40.265625 C-14.98421875 40.265625 -15.64421875 40.265625 -16.32421875 40.265625 C-16.32421875 40.925625 -16.32421875 41.585625 -16.32421875 42.265625 C-16.98421875 42.265625 -17.64421875 42.265625 -18.32421875 42.265625 C-18.32421875 42.925625 -18.32421875 43.585625 -18.32421875 44.265625 C-18.98421875 44.265625 -19.64421875 44.265625 -20.32421875 44.265625 C-20.32421875 44.925625 -20.32421875 45.585625 -20.32421875 46.265625 C-21.31421875 46.265625 -22.30421875 46.265625 -23.32421875 46.265625 C-23.32421875 46.925625 -23.32421875 47.585625 -23.32421875 48.265625 C-23.98421875 48.265625 -24.64421875 48.265625 -25.32421875 48.265625 C-25.32421875 49.255625 -25.32421875 50.245625 -25.32421875 51.265625 C-25.98421875 51.265625 -26.64421875 51.265625 -27.32421875 51.265625 C-27.32421875 52.255625 -27.32421875 53.245625 -27.32421875 54.265625 C-27.98421875 54.265625 -28.64421875 54.265625 -29.32421875 54.265625 C-29.32421875 55.255625 -29.32421875 56.245625 -29.32421875 57.265625 C-29.98421875 57.265625 -30.64421875 57.265625 -31.32421875 57.265625 C-31.42734375 58.296875 -31.53046875 59.328125 -31.63671875 60.390625 C-32.32421875 64.265625 -32.32421875 64.265625 -33.82421875 67.203125 C-35.68450209 71.00120349 -35.89806169 74.07508059 -36.32421875 78.265625 C-36.65421875 78.595625 -36.98421875 78.925625 -37.32421875 79.265625 C-37.71161407 82.56276107 -37.79596159 85.88781192 -37.94921875 89.203125 C-38.00078125 90.11642578 -38.05234375 91.02972656 -38.10546875 91.97070312 C-38.40110573 98.11386559 -38.38076787 104.18694573 -37.32421875 110.265625 C-36.99421875 110.595625 -36.66421875 110.925625 -36.32421875 111.265625 C-35.79160323 113.51245687 -35.36120259 115.77227979 -34.921875 118.0390625 C-34.38156475 120.52630708 -34.38156475 120.52630708 -32.32421875 123.265625 C-31.89899668 124.63182236 -31.50585588 126.00821883 -31.13671875 127.390625 C-29.61493054 132.23339894 -27.01524056 135.58486026 -23.75 139.41796875 C-22.32421875 141.265625 -22.32421875 141.265625 -22.32421875 143.265625 C-21.66421875 143.265625 -21.00421875 143.265625 -20.32421875 143.265625 C-20.32421875 143.925625 -20.32421875 144.585625 -20.32421875 145.265625 C-19.66421875 145.265625 -19.00421875 145.265625 -18.32421875 145.265625 C-17.29809926 146.91633896 -16.30113732 148.58532506 -15.32421875 150.265625 C-13.06437256 153.09043274 -10.17698533 154.54668409 -7.04296875 156.29296875 C-4.96260595 157.47026497 -3.08708226 158.64379057 -1.32421875 160.265625 C-1.32421875 161.255625 -1.32421875 162.245625 -1.32421875 163.265625 C0.50109375 163.4203125 0.50109375 163.4203125 2.36328125 163.578125 C5.16365801 163.92023036 6.59679157 164.21781546 9.05078125 165.703125 C17.24496219 170.58061366 28.04650821 169.67935028 37.30078125 169.890625 C38.70054249 169.92890352 40.10028267 169.96796057 41.5 170.0078125 C44.8918001 170.1013794 48.28360469 170.18712308 51.67578125 170.265625 C51.67578125 169.605625 51.67578125 168.945625 51.67578125 168.265625 C52.20945313 168.0797583 52.743125 167.8938916 53.29296875 167.70239258 C55.75753394 166.83760948 58.21655853 165.95798024 60.67578125 165.078125 C61.51496094 164.78615234 62.35414063 164.49417969 63.21875 164.19335938 C68.25415193 162.37827263 72.5847015 160.28685782 76.984375 157.2253418 C78.67578125 156.265625 78.67578125 156.265625 81.67578125 156.265625 C81.67578125 155.605625 81.67578125 154.945625 81.67578125 154.265625 C82.66578125 154.265625 83.65578125 154.265625 84.67578125 154.265625 C83.27828077 157.42397607 81.62379891 159.58835325 79.17578125 162.015625 C78.56734375 162.62921875 77.95890625 163.2428125 77.33203125 163.875 C75.67578125 165.265625 75.67578125 165.265625 73.67578125 165.265625 C73.67578125 165.925625 73.67578125 166.585625 73.67578125 167.265625 C73.01578125 167.265625 72.35578125 167.265625 71.67578125 167.265625 C71.67578125 167.925625 71.67578125 168.585625 71.67578125 169.265625 C70.68578125 169.265625 69.69578125 169.265625 68.67578125 169.265625 C68.67578125 169.925625 68.67578125 170.585625 68.67578125 171.265625 C67.68578125 171.265625 66.69578125 171.265625 65.67578125 171.265625 C65.67578125 171.925625 65.67578125 172.585625 65.67578125 173.265625 C65.01578125 173.265625 64.35578125 173.265625 63.67578125 173.265625 C63.67578125 173.925625 63.67578125 174.585625 63.67578125 175.265625 C62.21484375 176.5546875 62.21484375 176.5546875 60.30078125 177.890625 C59.67429688 178.33664062 59.0478125 178.78265625 58.40234375 179.2421875 C56.67578125 180.265625 56.67578125 180.265625 54.67578125 180.265625 C54.67578125 180.925625 54.67578125 181.585625 54.67578125 182.265625 C51.04578125 182.595625 47.41578125 182.925625 43.67578125 183.265625 C43.67578125 183.925625 43.67578125 184.585625 43.67578125 185.265625 C41.36578125 185.265625 39.05578125 185.265625 36.67578125 185.265625 C36.67578125 185.925625 36.67578125 186.585625 36.67578125 187.265625 C21.07812382 191.0392518 5.6013917 190.76956123 -10.32421875 189.265625 C-10.32421875 188.605625 -10.32421875 187.945625 -10.32421875 187.265625 C-12.63421875 187.265625 -14.94421875 187.265625 -17.32421875 187.265625 C-17.32421875 186.605625 -17.32421875 185.945625 -17.32421875 185.265625 C-18.40316406 185.32169922 -18.40316406 185.32169922 -19.50390625 185.37890625 C-22.55130589 185.25650377 -24.63560101 184.6018038 -27.44921875 183.453125 C-28.29742187 183.11667969 -29.145625 182.78023437 -30.01953125 182.43359375 C-32.32421875 181.265625 -32.32421875 181.265625 -33.79296875 179.78515625 C-35.85197978 177.74190295 -38.04018387 176.90208922 -40.69921875 175.765625 C-44.42029449 174.16648501 -47.97198117 172.55733651 -51.32421875 170.265625 C-51.32421875 169.605625 -51.32421875 168.945625 -51.32421875 168.265625 C-51.98421875 168.265625 -52.64421875 168.265625 -53.32421875 168.265625 C-53.73671875 167.54375 -54.14921875 166.821875 -54.57421875 166.078125 C-56.31104546 163.28679636 -58.13735695 161.67959484 -60.6953125 159.66015625 C-63.57026529 157.19886573 -66.13229668 154.351416 -68.32421875 151.265625 C-68.32421875 150.605625 -68.32421875 149.945625 -68.32421875 149.265625 C-68.98421875 149.265625 -69.64421875 149.265625 -70.32421875 149.265625 C-71.63878424 146.49575467 -72.95094745 143.72479013 -74.26171875 140.953125 C-74.63490234 140.16744141 -75.00808594 139.38175781 -75.39257812 138.57226562 C-75.75029297 137.81494141 -76.10800781 137.05761719 -76.4765625 136.27734375 C-76.97144165 135.23259888 -76.97144165 135.23259888 -77.47631836 134.16674805 C-79.31163859 130.0516779 -79.40856454 126.73595195 -79.32421875 122.265625 C-79.98421875 122.265625 -80.64421875 122.265625 -81.32421875 122.265625 C-81.32421875 120.285625 -81.32421875 118.305625 -81.32421875 116.265625 C-81.98421875 116.265625 -82.64421875 116.265625 -83.32421875 116.265625 C-83.3488658 110.58732422 -83.36705337 104.90905431 -83.37915039 99.23071289 C-83.38419131 97.29743915 -83.39102394 95.36416924 -83.3996582 93.4309082 C-83.4117344 90.65835628 -83.41744932 87.88585459 -83.421875 85.11328125 C-83.42703629 84.24349136 -83.43219757 83.37370148 -83.43751526 82.47755432 C-83.4377106 80.40656686 -83.38630043 78.33568176 -83.32421875 76.265625 C-82.82921875 75.770625 -82.82921875 75.770625 -82.32421875 75.265625 C-81.95661144 72.93744536 -81.62180294 70.6037865 -81.32421875 68.265625 C-80.66421875 68.265625 -80.00421875 68.265625 -79.32421875 68.265625 C-79.27523437 67.70875 -79.22625 67.151875 -79.17578125 66.578125 C-78.65866298 61.29995235 -77.71959412 56.38200135 -76.32421875 51.265625 C-75.66421875 51.265625 -75.00421875 51.265625 -74.32421875 51.265625 C-74.32421875 50.275625 -74.32421875 49.285625 -74.32421875 48.265625 C-73.66421875 48.265625 -73.00421875 48.265625 -72.32421875 48.265625 C-71.66421875 46.285625 -71.00421875 44.305625 -70.32421875 42.265625 C-69.66421875 42.265625 -69.00421875 42.265625 -68.32421875 42.265625 C-68.17984375 41.646875 -68.03546875 41.028125 -67.88671875 40.390625 C-67.32421875 38.265625 -67.32421875 38.265625 -66.32421875 36.265625 C-65.66421875 36.265625 -65.00421875 36.265625 -64.32421875 36.265625 C-63.66421875 34.945625 -63.00421875 33.625625 -62.32421875 32.265625 C-61.33421875 32.265625 -60.34421875 32.265625 -59.32421875 32.265625 C-59.21980469 31.67265625 -59.11539063 31.0796875 -59.0078125 30.46875 C-58.22365465 27.94152128 -57.27367351 26.8426032 -55.38671875 25.015625 C-54.86207031 24.49484375 -54.33742188 23.9740625 -53.796875 23.4375 C-52.32421875 22.265625 -52.32421875 22.265625 -50.32421875 22.265625 C-50.32421875 21.605625 -50.32421875 20.945625 -50.32421875 20.265625 C-48.34421875 19.605625 -46.36421875 18.945625 -44.32421875 18.265625 C-44.32421875 17.605625 -44.32421875 16.945625 -44.32421875 16.265625 C-42.88851609 15.44995326 -41.45058441 14.63820407 -40.01171875 13.828125 C-38.81095703 13.14943359 -38.81095703 13.14943359 -37.5859375 12.45703125 C-35.32421875 11.265625 -35.32421875 11.265625 -32.32421875 10.265625 C-32.32421875 9.605625 -32.32421875 8.945625 -32.32421875 8.265625 C-31.56238281 8.08386719 -30.80054688 7.90210937 -30.015625 7.71484375 C-20.0381268 5.28586479 -9.9944091 -0.05117732 0 0 Z " fill="#FDFBFB" transform="translate(146.32421875,79.734375)"/>
<path d="M0 0 C0.99 0 1.98 0 3 0 C5 2.75 5 2.75 7 6 C7.5775 6.7425 8.155 7.485 8.75 8.25 C10 10 10 10 10 12 C10.66 12 11.32 12 12 12 C13.02137457 13.65365406 14.01612294 15.32376502 15 17 C15.87904283 18.07643268 16.77544369 19.13889288 17.6875 20.1875 C20 23 20 23 20 25 C23.96 24.505 23.96 24.505 28 24 C28 23.34 28 22.68 28 22 C28.94875 21.9175 29.8975 21.835 30.875 21.75 C35.62690951 21.08784867 42.53101884 19.46898116 46 16 C47.99958364 15.95919217 50.00045254 15.95745644 52 16 C51.42415568 18.38564077 50.77772405 20.66682784 50 23 C49.34 23 48.68 23 48 23 C48 23.99 48 24.98 48 26 C47.34 26 46.68 26 46 26 C46 27.32 46 28.64 46 30 C45.34 30 44.68 30 44 30 C44 30.66 44 31.32 44 32 C43.34 32 42.68 32 42 32 C41.01 34.97 41.01 34.97 40 38 C39.34 38 38.68 38 38 38 C37.83126522 39.43725871 37.66509263 40.87481838 37.5 42.3125 C37.4071875 43.11300781 37.314375 43.91351563 37.21875 44.73828125 C36.95186537 47.11896555 36.95186537 47.11896555 37 50 C37.66 50 38.32 50 39 50 C39 50.99 39 51.98 39 53 C39.66 53 40.32 53 41 53 C41 53.99 41 54.98 41 56 C41.66 56 42.32 56 43 56 C43.4021875 56.9590625 43.4021875 56.9590625 43.8125 57.9375 C44.88667752 60.33131686 44.88667752 60.33131686 48 61 C50.19012918 64.15378602 51.66629231 67.40924853 53 71 C49.7 70.67 46.4 70.34 43 70 C43 69.34 43 68.68 43 68 C41.9790625 68.0928125 41.9790625 68.0928125 40.9375 68.1875 C37.90231784 67.99376497 35.84488957 67.13911155 33.11328125 65.8671875 C28.89024911 64.13426119 24.4162412 63.12602172 20 62 C19.731875 62.73605469 19.46375 63.47210938 19.1875 64.23046875 C18.03415428 66.92034414 16.75527061 68.98237826 15 71.3125 C14.484375 72.00988281 13.96875 72.70726562 13.4375 73.42578125 C12.963125 73.94527344 12.48875 74.46476562 12 75 C11.34 75 10.68 75 10 75 C10 75.66 10 76.32 10 77 C9.34 77 8.68 77 8 77 C7.855625 77.61875 7.71125 78.2375 7.5625 78.875 C7 81 7 81 6 83 C5.34 83 4.68 83 4 83 C4 83.99 4 84.98 4 86 C2.02 86.495 2.02 86.495 0 87 C0 76.11 0 65.22 0 54 C-1.98 53.67 -3.96 53.34 -6 53 C-7.33333333 52.33333333 -8.66666667 51.66666667 -10 51 C-11.99110401 50.61709538 -13.99100513 50.27395385 -16 50 C-16 49.34 -16 48.68 -16 48 C-16.825 47.896875 -17.65 47.79375 -18.5 47.6875 C-22.59289012 46.88353944 -26.12540225 45.53647842 -30 44 C-30 43.34 -30 42.68 -30 42 C-28.02 42 -26.04 42 -24 42 C-24 41.34 -24 40.68 -24 40 C-23.35933594 39.81824219 -22.71867188 39.63648438 -22.05859375 39.44921875 C-18.0240507 38.27673604 -14.07763513 37.12108974 -10.25 35.375 C-7 34 -7 34 -1 33 C-0.67 22.11 -0.34 11.22 0 0 Z " fill="#FDFAFA" transform="translate(269,131)"/>
<path d="M0 0 C0.66 0 1.32 0 2 0 C1.67 2.64 1.34 5.28 1 8 C0.34 8 -0.32 8 -1 8 C-0.979375 9.134375 -0.95875 10.26875 -0.9375 11.4375 C-1 15 -1 15 -2 16 C-2.16029688 18.95529504 -2.25957328 21.88982457 -2.31640625 24.84765625 C-2.33718735 25.7340831 -2.35796844 26.62050995 -2.37937927 27.53379822 C-2.444974 30.376617 -2.50380552 33.21953117 -2.5625 36.0625 C-2.6056758 37.98503606 -2.64928978 39.90756234 -2.69335938 41.83007812 C-2.80066543 46.55328668 -2.90190451 51.27659153 -3 56 C-2.34 56 -1.68 56 -1 56 C-1 57.98 -1 59.96 -1 62 C-0.34 62 0.32 62 1 62 C1.33 64.97 1.66 67.94 2 71 C0 70 0 70 -1.125 67.3125 C-1.98889074 64.0420565 -2.16013991 61.36293818 -2 58 C-2.66 58 -3.32 58 -4 58 C-5.9307241 50.25631961 -6.27576105 42.89493089 -6.1875 34.9375 C-6.18685547 33.79861328 -6.18621094 32.65972656 -6.18554688 31.48632812 C-6.14070472 23.14070472 -6.14070472 23.14070472 -5 22 C-4.76712992 20.31816052 -4.58735834 18.6287584 -4.4375 16.9375 C-4.35371094 16.01839844 -4.26992188 15.09929687 -4.18359375 14.15234375 C-4.12300781 13.44207031 -4.06242187 12.73179687 -4 12 C-3.34 12 -2.68 12 -2 12 C-2 9.69 -2 7.38 -2 5 C-1.34 5 -0.68 5 0 5 C0 3.35 0 1.7 0 0 Z " fill="#EEC4C3" transform="translate(66,140)"/>
<path d="M0 0 C1.32 0.33 2.64 0.66 4 1 C3.67 1.66 3.34 2.32 3 3 C1.02 3 -0.96 3 -3 3 C-3 3.66 -3 4.32 -3 5 C-4.7015625 5.2165625 -4.7015625 5.2165625 -6.4375 5.4375 C-9.80777201 5.61171478 -9.80777201 5.61171478 -11 7 C-18.46852533 8.1110203 -26.02829937 8.15535944 -33.5625 8.125 C-34.52607422 8.12886719 -35.48964844 8.13273437 -36.48242188 8.13671875 C-58.89350523 8.10649477 -58.89350523 8.10649477 -65 2 C-63.68 2 -62.36 2 -61 2 C-61 2.66 -61 3.32 -61 4 C-58.69 4 -56.38 4 -54 4 C-54 4.66 -54 5.32 -54 6 C-49.54168078 6.02933699 -45.08338682 6.04691123 -40.625 6.0625 C-38.74748047 6.07506836 -38.74748047 6.07506836 -36.83203125 6.08789062 C-25.13860199 6.68097145 -25.13860199 6.68097145 -14 4 C-11.6670134 3.95977609 -9.33293334 3.95679753 -7 4 C-7 3.34 -7 2.68 -7 2 C-4.69 2 -2.38 2 0 2 C0 1.34 0 0.68 0 0 Z " fill="#E39693" transform="translate(190,263)"/>
<path d="M0 0 C0.99 0 1.98 0 3 0 C3.66 1.65 4.32 3.3 5 5 C4.34 5 3.68 5 3 5 C3.02320313 6.16015625 3.04640625 7.3203125 3.0703125 8.515625 C3.19441921 17.56184037 2.95168653 26.11285598 1 35 C-3.455 35.495 -3.455 35.495 -8 36 C-7.67 35.34 -7.34 34.68 -7 34 C-4.03 33.505 -4.03 33.505 -1 33 C-0.67 22.11 -0.34 11.22 0 0 Z " fill="#EFC5C3" transform="translate(269,131)"/>
<path d="M0 0 C0.33 0 0.66 0 1 0 C1.04254356 1.99954746 1.04080783 4.00041636 1 6 C0.67 6.33 0.34 6.66 0 7 C-0.38739532 10.29713607 -0.47174284 13.62218692 -0.625 16.9375 C-0.6765625 17.85080078 -0.728125 18.76410156 -0.78125 19.70507812 C-1.07688698 25.84824059 -1.05654912 31.92132073 0 38 C0.33 38.33 0.66 38.66 1 39 C1.23192865 40.51469448 1.41215238 42.03754562 1.5625 43.5625 C1.68818359 44.80193359 1.68818359 44.80193359 1.81640625 46.06640625 C1.87699219 46.70449219 1.93757813 47.34257812 2 48 C0 47 0 47 -1.125 44.875 C-2.15945114 41.47608911 -2.1385722 38.53359114 -2 35 C-2.66 35 -3.32 35 -4 35 C-4.47130935 8.2662862 -4.47130935 8.2662862 0 0 Z " fill="#EFC8C7" transform="translate(109,152)"/>
<path d="M0 0 C1.98 0 3.96 0 6 0 C6.33 9.57 6.66 19.14 7 29 C7.99 28.67 8.98 28.34 10 28 C10 28.66 10 29.32 10 30 C9.34 30 8.68 30 8 30 C8 30.99 8 31.98 8 33 C6.02 33.495 6.02 33.495 4 34 C4 23.11 4 12.22 4 1 C2.68 0.67 1.36 0.34 0 0 Z " fill="#EAB3B1" transform="translate(265,184)"/>
<path d="M0 0 C5.445 1.485 5.445 1.485 11 3 C11 3.66 11 4.32 11 5 C15.62730711 6.0448758 20.28853878 6.51756279 25 7 C25 7.66 25 8.32 25 9 C34.24 8.67 43.48 8.34 53 8 C53 8.66 53 9.32 53 10 C48.91068318 10.05001046 44.82148859 10.08600357 40.73193359 10.10986328 C39.34518324 10.11982603 37.95845335 10.13340118 36.57177734 10.15087891 C16.54477144 10.39669775 16.54477144 10.39669775 8 5 C5.35125194 4.18691914 2.70978348 3.59707094 0 3 C0 2.01 0 1.02 0 0 Z " fill="#E49490" transform="translate(145,240)"/>
<path d="M0 0 C-1.56641751 4.30764815 -3.68336156 8.06171464 -6 12 C-6.66 12 -7.32 12 -8 12 C-8.226875 12.763125 -8.45375 13.52625 -8.6875 14.3125 C-10.29001617 17.59384264 -11.7617644 18.42037288 -15 20 C-15.99 20.33 -16.98 20.66 -18 21 C-18 20.34 -18 19.68 -18 19 C-16.35546875 17.4140625 -16.35546875 17.4140625 -14.1875 15.625 C-11.35520187 13.2828081 -9.10737561 11.01813415 -7 8 C-7.66 7.67 -8.32 7.34 -9 7 C-3.34042553 0 -3.34042553 0 0 0 Z " fill="#DB6964" transform="translate(238,226)"/>
<path d="M0 0 C1.92549027 3.85098054 1.0297851 8.90332392 0.9609375 13.171875 C0.91733306 17.5904582 1.18477578 21.63949834 2 26 C2.11196073 28.67810075 2.04625299 31.31732686 2 34 C2.66 34 3.32 34 4 34 C4 35.98 4 37.96 4 40 C4.66 40 5.32 40 6 40 C6.33 42.97 6.66 45.94 7 49 C5 48 5 48 3.875 45.3125 C3.01110926 42.0420565 2.83986009 39.36293818 3 36 C2.34 36 1.68 36 1 36 C-0.9307241 28.25631961 -1.27576105 20.89493089 -1.1875 12.9375 C-1.18685547 11.79861328 -1.18621094 10.65972656 -1.18554688 9.48632812 C-1.14070472 1.14070472 -1.14070472 1.14070472 0 0 Z " fill="#DC736C" transform="translate(61,162)"/>
<path d="M0 0 C1.99954746 -0.04254356 4.00041636 -0.04080783 6 0 C6.33 0.33 6.66 0.66 7 1 C9.32817964 1.36760731 11.6618385 1.70241581 14 2 C14 2.66 14 3.32 14 4 C15.299375 3.938125 15.299375 3.938125 16.625 3.875 C20.12358468 4.00457721 22.74551597 4.76019656 26 6 C26 6.66 26 7.32 26 8 C27.32 7.67 28.64 7.34 30 7 C29.525625 6.5875 29.05125 6.175 28.5625 5.75 C26.83733482 3.817815 26.43415125 2.51807725 26 0 C26.66 0 27.32 0 28 0 C30.169283 3.1635377 31.66749209 6.4124787 33 10 C29.7 9.67 26.4 9.34 23 9 C23 8.34 23 7.68 23 7 C22.319375 7.061875 21.63875 7.12375 20.9375 7.1875 C17.90231784 6.99376497 15.84488957 6.13911155 13.11328125 4.8671875 C8.89024911 3.13426119 4.4162412 2.12602172 0 1 C0 0.67 0 0.34 0 0 Z " fill="#E6A19E" transform="translate(289,192)"/>
<path d="M0 0 C5.43449316 0.33965582 8.65139108 1.7231742 13.10546875 4.84375 C15.07439593 6.04540453 16.74807311 6.56059963 19 7 C19.33 6.34 19.66 5.68 20 5 C23.465 8.465 23.465 8.465 27 12 C26.67 12.99 26.34 13.98 26 15 C25.5153125 14.60167969 25.030625 14.20335938 24.53125 13.79296875 C19.84798669 10.09138948 15.6824452 7.82650024 10 6 C10 5.34 10 4.68 10 4 C8.9171875 4.0928125 8.9171875 4.0928125 7.8125 4.1875 C4.45655067 3.96377004 2.71059118 2.93613656 0 1 C0 0.67 0 0.34 0 0 Z " fill="#F0D0CD" transform="translate(204,102)"/>
<path d="M0 0 C5.26528574 -0.0497158 10.53043254 -0.08586827 15.79589844 -0.10986328 C17.58433413 -0.11987439 19.37275366 -0.13348733 21.16113281 -0.15087891 C23.74287934 -0.17534362 26.32440804 -0.18653221 28.90625 -0.1953125 C30.09112 -0.21079636 30.09112 -0.21079636 31.29992676 -0.22659302 C36.52047711 -0.22763043 40.97943629 0.55483774 46 2 C46 2.66 46 3.32 46 4 C44.18706911 3.85962479 42.3746557 3.71255111 40.5625 3.5625 C39.04849609 3.44068359 39.04849609 3.44068359 37.50390625 3.31640625 C35 3 35 3 34 2 C31.40640678 1.91148471 28.83960309 1.88474055 26.24609375 1.90234375 C25.47064713 1.9037587 24.6952005 1.90517365 23.89625549 1.90663147 C21.40996506 1.91224655 18.9237634 1.92480154 16.4375 1.9375 C14.75586067 1.94251306 13.07421994 1.9470763 11.39257812 1.95117188 C7.26168434 1.96222087 3.13085724 1.97949555 -1 2 C-0.67 1.34 -0.34 0.68 0 0 Z " fill="#E59996" transform="translate(138,80)"/>
<path d="M0 0 C1.20849609 0.00644531 2.41699219 0.01289062 3.66210938 0.01953125 C5.55606445 0.04466797 5.55606445 0.04466797 7.48828125 0.0703125 C8.76251953 0.07933594 10.03675781 0.08835937 11.34960938 0.09765625 C14.50018752 0.12125609 17.65039108 0.15418056 20.80078125 0.1953125 C20.80078125 0.8553125 20.80078125 1.5153125 20.80078125 2.1953125 C22.03828125 2.1334375 23.27578125 2.0715625 24.55078125 2.0078125 C27.58289427 1.99168424 28.62326421 2.08880227 31.30078125 3.6953125 C31.79578125 4.1903125 32.29078125 4.6853125 32.80078125 5.1953125 C30.82078125 5.1953125 28.84078125 5.1953125 26.80078125 5.1953125 C26.80078125 4.5353125 26.80078125 3.8753125 26.80078125 3.1953125 C25.84365234 3.21271484 25.84365234 3.21271484 24.8671875 3.23046875 C24.04089844 3.23949219 23.21460938 3.24851562 22.36328125 3.2578125 C21.12771484 3.27521484 21.12771484 3.27521484 19.8671875 3.29296875 C17.80078125 3.1953125 17.80078125 3.1953125 16.80078125 2.1953125 C14.87410618 2.10783043 12.94426264 2.08833916 11.015625 2.09765625 C9.84580078 2.10087891 8.67597656 2.10410156 7.47070312 2.10742188 C6.23900391 2.11580078 5.00730469 2.12417969 3.73828125 2.1328125 C2.50271484 2.13732422 1.26714844 2.14183594 -0.00585938 2.14648438 C-3.07035992 2.15831642 -6.13476596 2.17480077 -9.19921875 2.1953125 C-5.6590865 -0.16477567 -4.1879992 -0.03932394 0 0 Z " fill="#DE7A74" transform="translate(175.19921875,99.8046875)"/>
<path d="M0 0 C0.33 0 0.66 0 1 0 C1.04254356 1.99954746 1.04080783 4.00041636 1 6 C0.67 6.33 0.34 6.66 0 7 C-0.15709477 8.4889446 -0.25084641 9.98469581 -0.31640625 11.48046875 C-0.35830078 12.39763672 -0.40019531 13.31480469 -0.44335938 14.25976562 C-0.48267578 15.22591797 -0.52199219 16.19207031 -0.5625 17.1875 C-0.60568359 18.13431641 -0.64886719 19.08113281 -0.69335938 20.05664062 C-0.89784168 24.70780157 -1.05478659 29.34314017 -1 34 C-3 32 -3 32 -3.23046875 28.7265625 C-3.22811257 27.35930201 -3.21302535 25.99202424 -3.1875 24.625 C-3.17960449 23.91053711 -3.17170898 23.19607422 -3.16357422 22.45996094 C-2.88710765 5.02309787 -2.88710765 5.02309787 0 0 Z " fill="#E39D9A" transform="translate(109,152)"/>
<path d="M0 0 C0.33 1.32 0.66 2.64 1 4 C0.34 4 -0.32 4 -1 4 C-1 4.66 -1 5.32 -1 6 C-1.66 6 -2.32 6 -3 6 C-3.66 7.98 -4.32 9.96 -5 12 C-5.66 12 -6.32 12 -7 12 C-7.04898437 12.63808594 -7.09796875 13.27617187 -7.1484375 13.93359375 C-7.22320312 14.75988281 -7.29796875 15.58617187 -7.375 16.4375 C-7.44460938 17.26121094 -7.51421875 18.08492187 -7.5859375 18.93359375 C-7.72257812 19.61550781 -7.85921875 20.29742187 -8 21 C-8.66 21.33 -9.32 21.66 -10 22 C-10 21.34 -10 20.68 -10 20 C-10.66 20 -11.32 20 -12 20 C-12 18.68 -12 17.36 -12 16 C-11.34 16 -10.68 16 -10 16 C-9.34 14.02 -8.68 12.04 -8 10 C-7.34 10 -6.68 10 -6 10 C-5.34 8.02 -4.68 6.04 -4 4 C-3.34 4 -2.68 4 -2 4 C-2 3.34 -2 2.68 -2 2 C-1.34 2 -0.68 2 0 2 C0 1.34 0 0.68 0 0 Z " fill="#E69C99" transform="translate(314,157)"/>
<path d="M0 0 C0.99 0 1.98 0 3 0 C1.4169423 4.2742558 -1.50568404 6.26531794 -5 9 C-5 8.34 -5 7.68 -5 7 C-6.98 7.33 -8.96 7.66 -11 8 C-8.62949916 5.37997275 -6.12723983 3.64180091 -3 2 C-2.01 2 -1.02 2 0 2 C0 1.34 0 0.68 0 0 Z " fill="#F3D7D6" transform="translate(228,234)"/>
<path d="M0 0 C4.18089192 -0.04961351 8.36162566 -0.08582016 12.54272461 -0.10986328 C13.96365343 -0.11989146 15.38456178 -0.13351741 16.80541992 -0.15087891 C18.85340444 -0.17526821 20.90111498 -0.1865149 22.94921875 -0.1953125 C24.17987061 -0.20578613 25.41052246 -0.21625977 26.6784668 -0.22705078 C29.90285303 -0.0066407 32.10634881 0.61200798 35 2 C35 2.33 35 2.66 35 3 C32.36 3 29.72 3 27 3 C27 2.34 27 1.68 27 1 C18.09 1 9.18 1 0 1 C0 0.67 0 0.34 0 0 Z " fill="#F1D1CF" transform="translate(169,99)"/>
<path d="M0 0 C0.66 0 1.32 0 2 0 C1.67 2.64 1.34 5.28 1 8 C0.34 8 -0.32 8 -1 8 C-0.95875 9.03125 -0.9175 10.0625 -0.875 11.125 C-0.99575149 14.86829627 -1.64872018 17.53734547 -3 21 C-3.33 21 -3.66 21 -4 21 C-4 18.03 -4 15.06 -4 12 C-3.34 12 -2.68 12 -2 12 C-2 9.69 -2 7.38 -2 5 C-1.34 5 -0.68 5 0 5 C0 3.35 0 1.7 0 0 Z " fill="#E28D89" transform="translate(66,140)"/>
<path d="M0 0 C-0.57584432 2.38564077 -1.22227595 4.66682784 -2 7 C-2.66 7 -3.32 7 -4 7 C-4 7.99 -4 8.98 -4 10 C-4.66 9.67 -5.32 9.34 -6 9 C-5.67 8.01 -5.34 7.02 -5 6 C-4.34 6 -3.68 6 -3 6 C-3 5.01 -3 4.02 -3 3 C-5.64 3.33 -8.28 3.66 -11 4 C-8.74499851 -0.51000297 -4.55950767 -0.20725035 0 0 Z " fill="#E59A96" transform="translate(321,147)"/>
<path d="M0 0 C0 0.66 0 1.32 0 2 C-5.5825192 5.32575612 -9.49686791 6.46450943 -16 6 C-13.12921701 4.08614468 -10.66588344 3.03567048 -7.4375 1.875 C-6.46683594 1.52179688 -5.49617187 1.16859375 -4.49609375 0.8046875 C-2 0 -2 0 0 0 Z " fill="#ECB9B7" transform="translate(216,242)"/>
<path d="M0 0 C-1.12451727 2.9719385 -2.22293791 5.33440687 -4 8 C-4.66 8 -5.32 8 -6 8 C-6.33 8.66 -6.66 9.32 -7 10 C-7 9.34 -7 8.68 -7 8 C-7.66 7.67 -8.32 7.34 -9 7 C-3.34042553 0 -3.34042553 0 0 0 Z " fill="#E1918D" transform="translate(238,226)"/>
<path d="M0 0 C1.32 0.33 2.64 0.66 4 1 C3.01 2.32 2.02 3.64 1 5 C1.99 5.33 2.98 5.66 4 6 C2 7 2 7 0.0546875 6.44140625 C-0.66460937 6.15136719 -1.38390625 5.86132812 -2.125 5.5625 C-2.84945312 5.27503906 -3.57390625 4.98757812 -4.3203125 4.69140625 C-4.87460938 4.46324219 -5.42890625 4.23507813 -6 4 C-6 3.34 -6 2.68 -6 2 C-4.02 2 -2.04 2 0 2 C0 1.34 0 0.68 0 0 Z " fill="#F1CCCA" transform="translate(245,171)"/>
<path d="M0 0 C6.67353409 0.28398017 10.71077185 3.07805532 16 7 C13 7 13 7 10 6 C10 5.34 10 4.68 10 4 C8.9171875 4.0928125 8.9171875 4.0928125 7.8125 4.1875 C4.45655067 3.96377004 2.71059118 2.93613656 0 1 C0 0.67 0 0.34 0 0 Z " fill="#EDBCBA" transform="translate(204,102)"/>
<path d="M0 0 C2.0625 0.4375 2.0625 0.4375 4 1 C0.91190305 2.76462683 -0.23312136 3 -4 3 C-4 3.66 -4 4.32 -4 5 C-6.64 5 -9.28 5 -12 5 C-10.68 4.67 -9.36 4.34 -8 4 C-8 3.34 -8 2.68 -8 2 C-6.2984375 1.7834375 -6.2984375 1.7834375 -4.5625 1.5625 C-1.19222799 1.38828522 -1.19222799 1.38828522 0 0 Z " fill="#EAAFAB" transform="translate(305,151)"/>
<path d="M0 0 C0.33 0.66 0.66 1.32 1 2 C0.34 2 -0.32 2 -1 2 C-1.226875 2.598125 -1.45375 3.19625 -1.6875 3.8125 C-3.3611297 6.60188284 -5.08817726 7.6168842 -8 9 C-8.66 8.67 -9.32 8.34 -10 8 C-8.37660195 6.29115995 -6.70680947 4.62553283 -5 3 C-4.34 3 -3.68 3 -3 3 C-3 2.34 -3 1.68 -3 1 C-2.01 0.67 -1.02 0.34 0 0 Z " fill="#EDBDBA" transform="translate(99,99)"/>
<path d="M0 0 C2.5 1.8125 2.5 1.8125 5 4 C5 4.99 5 5.98 5 7 C4.01 7 3.02 7 2 7 C2 6.34 2 5.68 2 5 C1.34 5 0.68 5 0 5 C0 4.34 0 3.68 0 3 C-0.66 3 -1.32 3 -2 3 C-1 1 -1 1 0 0 Z " fill="#DE817B" transform="translate(231,115)"/>
<path d="M0 0 C1.91750286 0.08743331 3.83406665 0.1956189 5.75 0.3125 C6.81734375 0.37050781 7.8846875 0.42851563 8.984375 0.48828125 C12.1821068 1.03090154 13.62598691 1.85071145 16 4 C14.02 4 12.04 4 10 4 C10 3.34 10 2.68 10 2 C7.03 2 4.06 2 1 2 C0.67 1.34 0.34 0.68 0 0 Z " fill="#D9615A" transform="translate(192,101)"/>
<path d="M0 0 C2.87255066 2.42195448 3.70838919 4.59742703 4.6875 8.1875 C4.93886719 9.08855469 5.19023438 9.98960937 5.44921875 10.91796875 C5.63097656 11.60503906 5.81273438 12.29210937 6 13 C5.34 13 4.68 13 4 13 C3.32404685 11.58774074 2.65959941 10.16997095 2 8.75 C1.62875 7.96109375 1.2575 7.1721875 0.875 6.359375 C0 4 0 4 0 0 Z " fill="#E8A7A4" transform="translate(111,200)"/>
<path d="M0 0 C0.33 0 0.66 0 1 0 C1 1.98 1 3.96 1 6 C1.66 6 2.32 6 3 6 C3.33 8.97 3.66 11.94 4 15 C2 14 2 14 0.875 11.4375 C-0.14837318 7.41710538 -0.14258282 4.13490187 0 0 Z " fill="#E69B96" transform="translate(64,196)"/>
<path d="M0 0 C1.29585916 0.42492126 2.5866044 0.86545882 3.875 1.3125 C4.59429687 1.55613281 5.31359375 1.79976562 6.0546875 2.05078125 C8 3 8 3 10 6 C8.68 6 7.36 6 6 6 C6 5.34 6 4.68 6 4 C4.02 3.34 2.04 2.68 0 2 C0 1.34 0 0.68 0 0 Z " fill="#E49995" transform="translate(103,254)"/>
<path d="M0 0 C1.32 0.33 2.64 0.66 4 1 C2.35 1.66 0.7 2.32 -1 3 C-1 3.66 -1 4.32 -1 5 C-2.32 4.67 -3.64 4.34 -5 4 C-4.34 3.34 -3.68 2.68 -3 2 C-2.01 2 -1.02 2 0 2 C0 1.34 0 0.68 0 0 Z " fill="#E7A6A3" transform="translate(202,257)"/>
<path d="M0 0 C0.33 0 0.66 0 1 0 C1.19622241 4.21878192 0.80230168 7.17010894 -1 11 C-1.33 11 -1.66 11 -2 11 C-2.28571429 3.57142857 -2.28571429 3.57142857 0 0 Z " fill="#EBB3B1" transform="translate(109,152)"/>
<path d="M0 0 C0.98120464 3.05263664 0.98120464 4.94736336 0 8 C-0.99 8 -1.98 8 -3 8 C-1.125 1.125 -1.125 1.125 0 0 Z " fill="#DA6B64" transform="translate(113,144)"/>
<path d="M0 0 C1.98 0 3.96 0 6 0 C2.57653445 3.14958831 -0.44262737 3.56179109 -5 4 C-4.67 3.34 -4.34 2.68 -4 2 C-2.68 2 -1.36 2 0 2 C0 1.34 0 0.68 0 0 Z " fill="#E4958F" transform="translate(129,82)"/>
</svg>
