<?xml version="1.0" encoding="UTF-8"?>
<svg version="1.1" xmlns="http://www.w3.org/2000/svg" width="514" height="336">
<path d="M0 0 C169.62 0 339.24 0 514 0 C514 110.88 514 221.76 514 336 C344.38 336 174.76 336 0 336 C0 225.12 0 114.24 0 0 Z " fill="#CA3F33" transform="translate(0,0)"/>
<path d="M0 0 C0.99 0.33 1.98 0.66 3 1 C3.495 5.95 3.495 5.95 4 11 C4.66 11 5.32 11 6 11 C6.18175781 11.78503906 6.36351562 12.57007812 6.55078125 13.37890625 C8.161093 20.30956271 8.161093 20.30956271 10.6875 26.9375 C11.97448415 29.94046302 12.29243464 31.783219 12 35 C12.66 35 13.32 35 14 35 C14.62591479 37.02055018 15.25068609 39.0414546 15.875 41.0625 C16.22304688 42.18785156 16.57109375 43.31320313 16.9296875 44.47265625 C17.99148113 47.97192505 19.00192323 51.48206402 20 55 C20.84762967 57.96025152 21.70345321 60.91804369 22.5625 63.875 C22.78357422 64.64585938 23.00464844 65.41671875 23.23242188 66.2109375 C24.0589418 69.8993035 24.0589418 69.8993035 26 73 C26 74.98 26 76.96 26 79 C53.39 79 80.78 79 109 79 C109 81 109 81 107.3125 82.9375 C103.86544054 86.01190438 100.57944225 88.15195514 96 89 C96 89.66 96 90.32 96 91 C93.62105156 93.10706861 91.25574317 94.85294768 88.5 96.4375 C85.86331121 97.94033344 85.86331121 97.94033344 83.6875 100.4375 C81.34078705 102.67506351 79.96017521 103.62643632 77.125 104.9375 C73.50150909 106.62756106 70.86977886 108.68735664 67.91796875 111.35546875 C63.1598201 115.43526627 57.80774129 118.83145966 52.5625 122.25 C50.0243911 123.85622088 50.0243911 123.85622088 48.3125 125.75 C47 127 47 127 44 127 C44.20496094 127.88042969 44.40992188 128.76085937 44.62109375 129.66796875 C44.89050781 130.82941406 45.15992188 131.99085938 45.4375 133.1875 C45.70433594 134.33605469 45.97117187 135.48460937 46.24609375 136.66796875 C46.87312201 139.43923875 47.45899177 142.21091874 48 145 C48.66 145 49.32 145 50 145 C51.97836583 151.7887071 53.923237 158.55782707 55.5625 165.4375 C56.37286445 168.78136649 57.26415942 171.8673205 58.6875 175 C60 178 60 178 60 182 C60.66 182 61.32 182 62 182 C62 184.31 62 186.62 62 189 C62.66 189 63.32 189 64 189 C64.433125 190.5778125 64.433125 190.5778125 64.875 192.1875 C65.86568795 195.84074219 65.86568795 195.84074219 67.125 198.5625 C68.17321383 201.48252424 68.14320898 203.92100701 68 207 C65.125 206.75 65.125 206.75 62 206 C60.8125 204 60.8125 204 60 202 C59.01 201.67 58.02 201.34 57 201 C57 200.34 57 199.68 57 199 C56.195625 198.62875 56.195625 198.62875 55.375 198.25 C52.43351717 196.70185114 49.74640157 194.86989043 47 193 C46.01 192.34 45.02 191.68 44 191 C44 190.34 44 189.68 44 189 C43.443125 188.896875 42.88625 188.79375 42.3125 188.6875 C39.5230899 187.85821592 37.3860936 186.65700944 35 185 C35 184.34 35 183.68 35 183 C34.14728516 182.61134766 34.14728516 182.61134766 33.27734375 182.21484375 C30.78909628 180.8874939 28.75719186 179.33118581 26.5625 177.5625 C23.47607115 175.11464264 20.3972402 172.99837659 17 171 C16.525625 170.505 16.05125 170.01 15.5625 169.5 C13.34341296 167.36967644 10.76790511 166.29168905 8 165 C8 164.34 8 163.68 8 163 C5.03580417 161.81432167 3.13595291 161.06209808 0 161 C-2.61100762 162.29291052 -4.73518257 163.81396712 -7.01953125 165.6171875 C-9 167 -9 167 -12 167 C-12 167.66 -12 168.32 -12 169 C-16.35294118 173 -16.35294118 173 -20 173 C-20 173.66 -20 174.32 -20 175 C-22.30078125 176.9453125 -22.30078125 176.9453125 -25.3125 179.125 C-26.79169922 180.21167969 -26.79169922 180.21167969 -28.30078125 181.3203125 C-31 183 -31 183 -34 183 C-34 183.66 -34 184.32 -34 185 C-35.80016682 186.50457293 -37.66761422 187.92911713 -39.5625 189.3125 C-40.110271 189.71331787 -40.65804199 190.11413574 -41.22241211 190.52709961 C-42.8121989 191.68849652 -44.40602018 192.84436463 -46 194 C-46.7425 194.56203125 -47.485 195.1240625 -48.25 195.703125 C-52.64583333 199 -52.64583333 199 -56 199 C-56 199.66 -56 200.32 -56 201 C-60.35294118 205 -60.35294118 205 -64 205 C-64 205.66 -64 206.32 -64 207 C-64.66 207 -65.32 207 -66 207 C-66 205.02 -66 203.04 -66 201 C-65.34 201 -64.68 201 -64 201 C-64 199.02 -64 197.04 -64 195 C-63.34 195 -62.68 195 -62 195 C-62.04125 194.13375 -62.0825 193.2675 -62.125 192.375 C-61.99542279 188.87641532 -61.23980344 186.25448403 -60 183 C-59.34 183 -58.68 183 -58 183 C-57.814375 181.4221875 -57.814375 181.4221875 -57.625 179.8125 C-57.07993814 176.48762264 -56.23428046 174.08570115 -55 171 C-54.6186926 168.67402489 -54.27539746 166.34087842 -54 164 C-53.34 164 -52.68 164 -52 164 C-52 162.02 -52 160.04 -52 158 C-51.34 158 -50.68 158 -50 158 C-50.061875 157.319375 -50.12375 156.63875 -50.1875 155.9375 C-49.99194358 152.87378274 -49.12773897 150.7114653 -47.859375 147.94140625 C-44.87950894 141.20961793 -43.28170108 134.22276256 -42 127 C-42.763125 126.71125 -43.52625 126.4225 -44.3125 126.125 C-47 125 -47 125 -50 123 C-50 122.34 -50 121.68 -50 121 C-50.556875 120.896875 -51.11375 120.79375 -51.6875 120.6875 C-54.4769101 119.85821592 -56.6139064 118.65700944 -59 117 C-59 116.34 -59 115.68 -59 115 C-59.804375 114.62875 -59.804375 114.62875 -60.625 114.25 C-63.56294396 112.7037137 -66.23861427 110.84092382 -69 109 C-70.3191582 108.30570621 -71.64649406 107.62469505 -73 107 C-73 106.34 -73 105.68 -73 105 C-73.56847656 104.74089844 -74.13695312 104.48179687 -74.72265625 104.21484375 C-77.21090372 102.8874939 -79.24280814 101.33118581 -81.4375 99.5625 C-85.74130567 96.16178798 -90.05630502 93.38029758 -95 91 C-95 90.34 -95 89.68 -95 89 C-96.0209375 88.690625 -96.0209375 88.690625 -97.0625 88.375 C-100.91639375 86.57104973 -104.07787764 84.0989655 -107 81 C-107 80.34 -107 79.68 -107 79 C-79.61 79 -52.22 79 -24 79 C-24 76.69 -24 74.38 -24 72 C-23.34 72 -22.68 72 -22 72 C-22.0928125 70.9790625 -22.0928125 70.9790625 -22.1875 69.9375 C-21.94583429 66.15140392 -20.59117088 63.42713728 -19 60 C-17.45927241 56.41884939 -16.43542204 52.92245748 -15.5625 49.125 C-14.42742268 44.4528383 -13.03868925 40.3432945 -11 36 C-10.67 35.175 -10.34 34.35 -10 33.5 C-9 31 -9 31 -7.5 28 C-5.58705757 23.60979712 -5.18319795 19.01914897 -4.53515625 14.30859375 C-2.64929577 2.64929577 -2.64929577 2.64929577 0 0 Z " fill="#FDFB59" transform="translate(257,60)"/>
<path d="M0 0 C0.66 0 1.32 0 2 0 C1.67 2.64 1.34 5.28 1 8 C-25.73 8.33 -52.46 8.66 -80 9 C-77.36 10.65 -74.72 12.3 -72 14 C-71.67 14.99 -71.34 15.98 -71 17 C-75.84146109 15.53289058 -79.55948972 12.6487256 -83 9 C-83 8.34 -83 7.68 -83 7 C-55.61 7 -28.22 7 0 7 C0 4.69 0 2.38 0 0 Z " fill="#EFC94E" transform="translate(233,132)"/>
<path d="M0 0 C27.39 0 54.78 0 83 0 C83 2 83 2 81.25 4.0625 C79.0329554 5.97162174 77.841168 6.59411886 75 7 C75 6.34 75 5.68 75 5 C75.99 4.67 76.98 4.34 78 4 C78.33 3.01 78.66 2.02 79 1 C52.93 1 26.86 1 0 1 C0 0.67 0 0.34 0 0 Z " fill="#EFC94E" transform="translate(283,139)"/>
<path d="M0 0 C0.66 0 1.32 0 2 0 C2 2.31 2 4.62 2 7 C2.66 7 3.32 7 4 7 C4.28875 8.051875 4.5775 9.10375 4.875 10.1875 C5.86568795 13.84074219 5.86568795 13.84074219 7.125 16.5625 C8.17321383 19.48252424 8.14320898 21.92100701 8 25 C5.125 24.75 5.125 24.75 2 24 C0.8125 22 0.8125 22 0 20 C-0.99 19.67 -1.98 19.34 -3 19 C-2.67 18.34 -2.34 17.68 -2 17 C1.465 18.98 1.465 18.98 5 21 C5 19.02 5 17.04 5 15 C4.34 15 3.68 15 3 15 C2.49733206 12.87562952 1.9979439 10.75048274 1.5 8.625 C1.2215625 7.44164062 0.943125 6.25828125 0.65625 5.0390625 C0 2 0 2 0 0 Z " fill="#E7B248" transform="translate(317,242)"/>
<path d="M0 0 C0.99 0.33 1.98 0.66 3 1 C3.33 4.3 3.66 7.6 4 11 C4.66 11 5.32 11 6 11 C8.42857143 18.42857143 8.42857143 18.42857143 7 22 C7 21.01 7 20.02 7 19 C6.34 19 5.68 19 5 19 C5 17.02 5 15.04 5 13 C4.34 13 3.68 13 3 13 C2.67 11.02 2.34 9.04 2 7 C1.34 7 0.68 7 0 7 C-0.99 9.64 -1.98 12.28 -3 15 C-4.03819906 10.84720376 -3.88073931 9.71220417 -2.625 5.8125 C-2.34914062 4.93207031 -2.07328125 4.05164063 -1.7890625 3.14453125 C-1 1 -1 1 0 0 Z " fill="#E8B749" transform="translate(257,60)"/>
<path d="M0 0 C0.33 0 0.66 0 1 0 C1 1.65 1 3.3 1 5 C0.34 5 -0.32 5 -1 5 C-1 6.98 -1 8.96 -1 11 C-1.66 11 -2.32 11 -3 11 C-2.938125 12.010625 -2.87625 13.02125 -2.8125 14.0625 C-3.01878217 18.39442551 -4.19194883 21.09460948 -6 25 C-6.69140522 27.77888613 -6.69140522 27.77888613 -7 30 C-7.66 30 -8.32 30 -9 30 C-9 31.65 -9 33.3 -9 35 C-9.33 35 -9.66 35 -10 35 C-10 32.69 -10 30.38 -10 28 C-9.34 28 -8.68 28 -8 28 C-8 26.02 -8 24.04 -8 22 C-7.34 22 -6.68 22 -6 22 C-6 20.02 -6 18.04 -6 16 C-5.34 16 -4.68 16 -4 16 C-4 14.02 -4 12.04 -4 10 C-3.34 10 -2.68 10 -2 10 C-2 8.02 -2 6.04 -2 4 C-1.34 4 -0.68 4 0 4 C0 2.68 0 1.36 0 0 Z " fill="#D4693A" transform="translate(206,213)"/>
<path d="M0 0 C1.4321146 2.8642292 0.53266189 4.45581499 -0.3125 7.5 C-0.70888672 8.96953125 -0.70888672 8.96953125 -1.11328125 10.46875 C-2 13 -2 13 -4 15 C-4.85541401 17.57051911 -5.52736924 20.16617586 -6.21875 22.78515625 C-7 25 -7 25 -9 26 C-8.505 21.545 -8.505 21.545 -8 17 C-7.34 17 -6.68 17 -6 17 C-6.061875 15.824375 -6.061875 15.824375 -6.125 14.625 C-6 12 -6 12 -4 10 C-3.42440161 8.49903768 -2.90869583 6.97443718 -2.4375 5.4375 C-1.09722222 1.09722222 -1.09722222 1.09722222 0 0 Z " fill="#D7773C" transform="translate(252,77)"/>
<path d="M0 0 C0.99 0.495 0.99 0.495 2 1 C2 2.65 2 4.3 2 6 C2.66 6 3.32 6 4 6 C4.70005949 8.07914664 5.38462244 10.16351586 6.0625 12.25 C6.44535156 13.41015625 6.82820313 14.5703125 7.22265625 15.765625 C7.95211763 18.80077085 8.11889082 20.15703213 7 23 C5.74335022 20.09399739 5 18.20395416 5 15 C4.34 15 3.68 15 3 15 C2.49733206 12.87562952 1.9979439 10.75048274 1.5 8.625 C1.2215625 7.44164063 0.943125 6.25828125 0.65625 5.0390625 C0 2 0 2 0 0 Z " fill="#EABD4B" transform="translate(267,89)"/>
<path d="M0 0 C0.33 0 0.66 0 1 0 C1.37863131 4.03873398 0.36585517 7.0108108 -1.140625 10.734375 C-2.41278726 14.08825732 -3.31872223 17.53538452 -4.25390625 20.99609375 C-5 23 -5 23 -7 24 C-6.505 19.545 -6.505 19.545 -6 15 C-5.34 15 -4.68 15 -4 15 C-3.34 11.04 -2.68 7.08 -2 3 C-1.34 3 -0.68 3 0 3 C0 2.01 0 1.02 0 0 Z " fill="#D7713C" transform="translate(242,103)"/>
<path d="M0 0 C0.66 0 1.32 0 2 0 C1.67 2.64 1.34 5.28 1 8 C1.598125 7.484375 2.19625 6.96875 2.8125 6.4375 C3.534375 5.963125 4.25625 5.48875 5 5 C5.99 5.33 6.98 5.66 8 6 C3.375 10 3.375 10 0 10 C0 10.66 0 11.32 0 12 C-0.66 12 -1.32 12 -2 12 C-2 10.02 -2 8.04 -2 6 C-1.34 6 -0.68 6 0 6 C0 4.02 0 2.04 0 0 Z " fill="#EABF4B" transform="translate(193,255)"/>
<path d="M0 0 C0.66 0 1.32 0 2 0 C6.40774487 14.59681093 6.40774487 14.59681093 7 22 C6.34 21.67 5.68 21.34 5 21 C4.21875 18.5234375 4.21875 18.5234375 3.5 15.375 C2.67300108 11.8487102 1.84931763 8.34576539 0.8125 4.875 C0 2 0 2 0 0 Z " fill="#EABC4B" transform="translate(305,205)"/>
<path d="M0 0 C0.99 0.33 1.98 0.66 3 1 C3.33898024 6.53667724 2.356601 10.01488249 0 15 C-0.68836513 16.99263591 -1.36281399 18.99041337 -2 21 C-3.53445094 17.93109813 -2.54984289 15.29905734 -2 12 C-1.34 12 -0.68 12 0 12 C0 10.02 0 8.04 0 6 C0.66 6 1.32 6 2 6 C2 4.68 2 3.36 2 2 C1.34 2 0.68 2 0 2 C0 1.34 0 0.68 0 0 Z " fill="#D7713C" transform="translate(212,186)"/>
<path d="M0 0 C0.99 0 1.98 0 3 0 C3 1.98 3 3.96 3 6 C3.66 6 4.32 6 5 6 C5 8.31 5 10.62 5 13 C5.66 13 6.32 13 7 13 C7 14.98 7 16.96 7 19 C6.67 19 6.34 19 6 19 C6 17.35 6 15.7 6 14 C5.34 14 4.68 14 4 14 C3.79503906 13.24074219 3.59007812 12.48148438 3.37890625 11.69921875 C3.10949219 10.70535156 2.84007812 9.71148437 2.5625 8.6875 C2.29566406 7.70136719 2.02882813 6.71523437 1.75390625 5.69921875 C1.21920575 3.78482474 0.62855462 1.88566385 0 0 Z " fill="#D46439" transform="translate(265,81)"/>
<path d="M0 0 C0.66 0 1.32 0 2 0 C2 0.99 2 1.98 2 3 C0.390625 4.3515625 0.390625 4.3515625 -1.75 5.625 C-2.44609375 6.05039063 -3.1421875 6.47578125 -3.859375 6.9140625 C-5.91546532 7.95711562 -7.74861096 8.54363736 -10 9 C-10 9.66 -10 10.32 -10 11 C-11.32 11.33 -12.64 11.66 -14 12 C-13.67 11.34 -13.34 10.68 -13 10 C-12.34 10 -11.68 10 -11 10 C-11 9.34 -11 8.68 -11 8 C-8.67728869 6.45152579 -6.35087359 5.16039935 -3.8125 4 C-1.66522058 2.99677258 -1.66522058 2.99677258 0 0 Z " fill="#D36238" transform="translate(364,141)"/>
<path d="M0 0 C0.66 0.33 1.32 0.66 2 1 C-2.3896757 5.93838517 -5.6895246 8.0415766 -12 10 C-12 9.34 -12 8.68 -12 8 C-10.36816893 6.94410931 -8.69207001 5.9563874 -7 5 C-3.31985674 2.73265562 -3.31985674 2.73265562 0 0 Z " fill="#E6AA47" transform="translate(342,156)"/>
<path d="M0 0 C5.14240506 9.88924051 5.14240506 9.88924051 4.6875 13.4375 C4.460625 13.953125 4.23375 14.46875 4 15 C0.89809455 10.34714182 -0.33846504 5.58467324 0 0 Z " fill="#F0D14F" transform="translate(312,227)"/>
<path d="M0 0 C0.99 0 1.98 0 3 0 C3 1.98 3 3.96 3 6 C3.66 6 4.32 6 5 6 C5 8.31 5 10.62 5 13 C3.49439503 10.14589666 2.36783204 7.31875358 1.375 4.25 C0.98441406 3.05117187 0.98441406 3.05117187 0.5859375 1.828125 C0.39257812 1.22484375 0.19921875 0.6215625 0 0 Z " fill="#D56E3A" transform="translate(313,229)"/>
<path d="M0 0 C1.43737869 2.87475738 0.52819784 4.50650357 -0.3125 7.5625 C-0.57675781 8.55378906 -0.84101563 9.54507813 -1.11328125 10.56640625 C-2 13 -2 13 -4 14 C-3.66009167 8.62007164 -3.31442207 4.46726453 0 0 Z " fill="#E9B94A" transform="translate(252,77)"/>
<path d="M0 0 C0.66 0 1.32 0 2 0 C1.28571429 8.57142857 1.28571429 8.57142857 -2 12 C-2.21278058 7.53160785 -1.59138085 4.17737474 0 0 Z " fill="#ECC44C" transform="translate(197,243)"/>
<path d="M0 0 C3.77545388 1.09068668 6.47043472 1.9083091 9 5 C4.98525763 5 3.18024863 3.33218233 0 1 C0 0.67 0 0.34 0 0 Z " fill="#E6AA47" transform="translate(153,143)"/>
</svg>
