<?xml version="1.0" encoding="UTF-8"?>
<svg version="1.1" xmlns="http://www.w3.org/2000/svg" width="620" height="403">
<path d="M0 0 C13.38355564 10.28499185 22.59940919 25.23871751 25.48828125 41.90234375 C27.46246757 61.40020641 23.11535444 78.34647363 11.27734375 94.265625 C9.67578125 96.21484375 9.67578125 96.21484375 6.98828125 98.96484375 C6.32828125 98.96484375 5.66828125 98.96484375 4.98828125 98.96484375 C4.98828125 99.62484375 4.98828125 100.28484375 4.98828125 100.96484375 C-10.36921645 114.14782851 -27.83316533 118.18498146 -47.53808594 117.171875 C-65.05683922 115.70563904 -80.00538039 105.60106051 -91.10546875 92.4921875 C-101.7929975 78.07808622 -106.69749945 61.3188946 -104.38671875 43.46484375 C-100.99407301 25.19333989 -92.24561146 10.30824218 -77.19921875 -0.66015625 C-53.24911873 -16.74712102 -23.88085656 -16.13738816 0 0 Z M-56.01171875 23.96484375 C-56.7078125 24.38894531 -57.40390625 24.81304687 -58.12109375 25.25 C-66.26745309 30.74726129 -70.62668818 38.24312351 -72.66796875 47.78125 C-73.68042572 57.15798214 -71.24269625 65.23817088 -66.01171875 72.96484375 C-65.35171875 72.96484375 -64.69171875 72.96484375 -64.01171875 72.96484375 C-63.78742188 73.55007812 -63.563125 74.1353125 -63.33203125 74.73828125 C-60.14630585 80.11065841 -52.68252737 83.78863317 -46.76171875 85.40234375 C-37.00203248 86.86629669 -28.17037315 85.13918623 -19.95703125 79.51953125 C-10.78191871 72.18681079 -7.15942798 63.99880837 -5.51171875 52.46484375 C-7.16601518 40.88476876 -10.82883442 32.52198922 -20.01171875 24.96484375 C-30.72311542 18.08857651 -45.08501138 17.06036921 -56.01171875 23.96484375 Z " fill="#2167FA" transform="translate(149.01171875,149.03515625)"/>
<path d="M0 0 C9.9148419 8.1226068 9.9148419 8.1226068 12.14941406 13.61914062 C3.7298694 19.80924964 -4.69362431 25.55430104 -13.85058594 30.61914062 C-14.79933594 29.71164063 -15.74808594 28.80414063 -16.72558594 27.86914062 C-23.58707496 22.02928176 -31.89524775 19.5071989 -40.85058594 19.61914062 C-49.90796512 20.4116613 -58.44683583 23.64860213 -64.72558594 30.36914062 C-70.87116932 38.10909706 -73.38971224 46.26637556 -72.66699219 56.12304688 C-71.23754873 65.53968985 -66.3520793 73.20245837 -58.98730469 79.15039062 C-51.343616 84.40455323 -43.63551798 86.33210823 -34.47558594 84.99414062 C-25.56964071 83.11660432 -19.05343914 79.96193682 -13.81152344 72.38867188 C-12.69151251 70.66181507 -12.69151251 70.66181507 -12.85058594 68.61914062 C-14.06875 68.63074219 -15.28691406 68.64234375 -16.54199219 68.65429688 C-18.16568856 68.6636824 -19.78938661 68.67278178 -21.41308594 68.68164062 C-22.61288086 68.69420898 -22.61288086 68.69420898 -23.83691406 68.70703125 C-24.62646484 68.71025391 -25.41601562 68.71347656 -26.22949219 68.71679688 C-27.30565796 68.7246521 -27.30565796 68.7246521 -28.40356445 68.73266602 C-31.57096464 68.58571988 -34.71164715 68.06756045 -37.85058594 67.61914062 C-37.85058594 59.69914062 -37.85058594 51.77914062 -37.85058594 43.61914062 C-31.03708191 43.45283279 -24.22369329 43.29023813 -17.40991211 43.13696289 C-15.09475734 43.08378367 -12.77965041 43.02847525 -10.46459961 42.97094727 C-7.12591871 42.88835998 -3.78713743 42.81357767 -0.44824219 42.74023438 C1.08980324 42.69968178 1.08980324 42.69968178 2.65892029 42.65830994 C8.5946566 42.53663114 14.27115759 42.74594711 20.14941406 43.61914062 C22.8819127 46.35163926 22.07444363 53.00872235 22.14941406 56.61914062 C21.16445124 73.77236116 16.22311948 89.85280575 3.14941406 101.61914062 C2.67375 102.08707031 2.19808594 102.555 1.70800781 103.03710938 C-11.29000696 115.22079069 -28.57111588 117.54738959 -45.65917969 117.02148438 C-59.29291332 116.2180277 -69.99580231 110.52904848 -80.85058594 102.61914062 C-81.53507812 102.14992188 -82.21957031 101.68070312 -82.92480469 101.19726562 C-95.07442606 92.02132781 -102.02275749 76.47287825 -104.16308594 61.86914062 C-104.41951931 59.45521497 -104.65196049 57.03850895 -104.85058594 54.61914062 C-104.92277344 53.80832031 -104.99496094 52.9975 -105.06933594 52.16210938 C-105.7601567 36.64742649 -99.03369526 22.62307052 -89.85058594 10.61914062 C-89.37878906 9.98105469 -88.90699219 9.34296875 -88.42089844 8.68554688 C-67.81025418 -17.45620249 -25.53116622 -19.05069606 0 0 Z " fill="#2166FA" transform="translate(553.8505859375,149.380859375)"/>
<path d="M0 0 C8.50521921 7.51565762 8.50521921 7.51565762 10 12 C-12.16137676 28.15800668 -12.16137676 28.15800668 -16 27.828125 C-18.38221343 26.84173975 -20.28039848 25.56546846 -22.375 24.0625 C-30.178385 18.75873589 -38.65989498 17.06831583 -48 18.625 C-57.38311223 20.86398439 -64.530185 24.95529869 -70 33 C-74.94527608 41.21699836 -75.90957554 49.79061522 -74 59.125 C-71.35941077 68.34913976 -65.21222493 75.18380794 -57 80 C-49.12891665 84.0270659 -39.54139156 84.43311851 -31.0546875 82.23828125 C-22.1792755 78.8868197 -18.18988676 74.3441149 -14 66 C-15.30710937 66.12568359 -15.30710937 66.12568359 -16.640625 66.25390625 C-24.61755273 66.9359163 -32.04223992 66.87341269 -40 66 C-40 58.08 -40 50.16 -40 42 C-33.99012964 41.83291635 -27.98043657 41.67015507 -21.97021484 41.51782227 C-19.93173863 41.46492286 -17.89332253 41.4096448 -15.85498047 41.35180664 C-4.49748662 41.03120974 6.67986096 40.82637694 18 42 C22.6045558 55.84936162 18.72506267 72.46298478 12.6875 85.375 C4.93056849 99.51037218 -6.53057614 108.40359191 -22 113 C-39.87360573 118.10674449 -58.40123015 115.45713536 -74.640625 106.9765625 C-79.46336793 104.13899515 -84.0368472 100.97228449 -88 97 C-88 96.34 -88 95.68 -88 95 C-88.66 95 -89.32 95 -90 95 C-99.56188388 83.74098521 -106.3897179 69.93864454 -107 55 C-107.05994141 53.83404297 -107.05994141 53.83404297 -107.12109375 52.64453125 C-107.57074115 36.0075776 -102.38711509 21.88002271 -92 9 C-91.54109375 8.36578125 -91.0821875 7.7315625 -90.609375 7.078125 C-83.17078936 -2.69061999 -71.4263823 -8.41702373 -60 -12 C-59.27941406 -12.24492187 -58.55882812 -12.48984375 -57.81640625 -12.7421875 C-38.01143583 -18.3786898 -15.99866483 -12.01688089 0 0 Z " fill="#2166FA" transform="translate(421,151)"/>
<path d="M0 0 C11.611875 -0.0825 23.22375 -0.165 35.1875 -0.25 C40.6483313 -0.30462402 40.6483313 -0.30462402 46.21948242 -0.36035156 C50.7310791 -0.37841797 50.7310791 -0.37841797 52.85591125 -0.3817749 C54.31205666 -0.38784065 55.76818445 -0.40174607 57.22419739 -0.42230225 C71.01256504 -0.60691109 82.86336188 1.29950147 94 10 C94.83402344 10.61617187 95.66804688 11.23234375 96.52734375 11.8671875 C104.12212267 18.41813425 109.46268964 29.58423104 110.75 39.5 C110.85759485 40.99845514 110.9405746 42.49886274 111 44 C111.05994141 45.16982422 111.05994141 45.16982422 111.12109375 46.36328125 C111.51530562 60.9027426 107.5121432 73.74612027 98.1875 85 C87.28640925 96.25610711 73.41730645 99.33596647 58.32417297 99.66777039 C55.61194179 99.70742203 52.89993488 99.72922986 50.1875 99.75 C48.31963455 99.7782199 46.4517942 99.8081555 44.58398438 99.83984375 C40.05575144 99.916151 35.52916744 99.95733238 31 100 C30.67 109.57 30.34 119.14 30 129 C20.1 129 10.2 129 0 129 C0 86.43 0 43.86 0 0 Z M30 30 C29.97535072 35.25105442 29.95716432 40.50207545 29.94506836 45.75317383 C29.94002782 47.54094021 29.93319546 49.32870245 29.92456055 51.11645508 C29.9124827 53.68051168 29.90676906 56.24451397 29.90234375 58.80859375 C29.89718246 59.6127623 29.89202118 60.41693085 29.88670349 61.24546814 C29.88650785 63.16401715 29.93798017 65.08245368 30 67 C31.94542809 68.94542809 35.63405825 68.16384567 38.2890625 68.16796875 C39.02571136 68.17129715 39.76236023 68.17462555 40.52133179 68.17805481 C42.08664321 68.18313008 43.65196551 68.18546295 45.21728516 68.18530273 C47.59426234 68.18747195 49.97076236 68.20557247 52.34765625 68.22460938 C53.86979009 68.22754677 55.39192612 68.22952925 56.9140625 68.23046875 C57.61850494 68.23765427 58.32294739 68.24483978 59.04873657 68.25224304 C65.29810292 68.22384063 70.29792341 67.70207659 74.8125 63.1875 C79.14672992 56.87190784 79.69129999 51.51788743 79 44 C77.77055869 38.8517145 74.95645801 35.44921981 71 32 C67.67301363 30.33650681 63.93570615 30.75621943 60.2734375 30.68359375 C59.41062164 30.66281265 58.54780579 30.64203156 57.65884399 30.62062073 C54.89764507 30.55513966 52.13634962 30.49624702 49.375 30.4375 C47.50519828 30.3943134 45.63540638 30.35069907 43.765625 30.30664062 C39.17718272 30.19945976 34.58864317 30.09818825 30 30 Z " fill="#2167FB" transform="translate(186,137)"/>
<path d="M0 0 C3.47400333 1.65491274 6.05423398 3.8075124 8.4375 6.8125 C9.6776861 11.63544594 9.47761278 15.62022974 7.875 20.25 C5.2127438 24.15464243 2.60628592 26.49203535 -2.14453125 27.41796875 C-7.36786492 27.74720784 -10.50513768 26.60233842 -14.58984375 23.38671875 C-17.59183761 20.43461953 -18.31246918 18.2582564 -18.375 14.1875 C-18.26967511 9.37064176 -17.29900559 6.65565485 -14 3 C-9.82471994 -0.57881148 -5.27655208 -0.97413269 0 0 Z " fill="#1D63F5" transform="translate(301,239)"/>
<path d="M0 0 C0.33 0.66 0.66 1.32 1 2 C-2.3 4.64 -5.6 7.28 -9 10 C-9.66 9.67 -10.32 9.34 -11 9 C-9.54405245 7.68485396 -8.08516421 6.37296283 -6.625 5.0625 C-5.81289062 4.33160156 -5.00078125 3.60070312 -4.1640625 2.84765625 C-2 1 -2 1 0 0 Z " fill="#0B4DDA" transform="translate(73,148)"/>
<path d="M0 0 C0.66 0.33 1.32 0.66 2 1 C-0.22480634 4.39575704 -2.4620023 6.05410126 -6 8 C-6.99 8.66 -7.98 9.32 -9 10 C-7.61811547 6.78956118 -6.07578097 4.95063635 -3.375 2.75 C-2.74335938 2.22921875 -2.11171875 1.7084375 -1.4609375 1.171875 C-0.73777344 0.59179688 -0.73777344 0.59179688 0 0 Z " fill="#0645CA" transform="translate(340,149)"/>
<path d="M0 0 C1.32 1.32 2.64 2.64 4 4 C2.68 5.32 1.36 6.64 0 8 C-0.98120464 4.94736336 -0.98120464 3.05263664 0 0 Z " fill="#0D4DD5" transform="translate(427,158)"/>
<path d="M0 0 C1 3 1 3 -0.4375 6.1875 C-1.2109375 7.5796875 -1.2109375 7.5796875 -2 9 C-2.33 9 -2.66 9 -3 9 C-3 7.02 -3 5.04 -3 3 C-2.01 2.67 -1.02 2.34 0 2 C0 1.34 0 0.68 0 0 Z " fill="#0D51E0" transform="translate(169,224)"/>
</svg>
