<?xml version="1.0" encoding="UTF-8"?>
<svg version="1.1" xmlns="http://www.w3.org/2000/svg" width="620" height="403">
<path d="M0 0 C12.31150583 10.62242729 22.7104177 25.13226971 24.48901367 41.70849609 C24.62461722 44.67472979 24.65531919 47.61680513 24.625 50.5859375 C24.61670166 51.63885986 24.60840332 52.69178223 24.59985352 53.77661133 C24.2410192 70.4323979 18.88777883 85.0020935 7.765625 97.60546875 C6.1875 98.8984375 6.1875 98.8984375 3.1875 98.8984375 C3.11273438 99.48753906 3.03796875 100.07664062 2.9609375 100.68359375 C0.93127622 106.4958056 -7.64654293 109.99817825 -12.875 112.6484375 C-29.61651734 119.80313391 -49.80273129 120.1824153 -66.8125 113.8984375 C-75.35854189 110.02208947 -82.20194944 104.48661733 -88.8125 97.8984375 C-89.52277344 97.21136719 -90.23304687 96.52429688 -90.96484375 95.81640625 C-103.09797967 83.26408329 -107.41414149 67.60425559 -107.36547852 50.64208984 C-106.94507016 32.2596336 -99.68353387 17.10069967 -86.71948242 4.1862793 C-63.24437476 -17.86587457 -25.61378384 -19.13918848 0 0 Z M-61.8125 26.8984375 C-68.84263121 32.72998896 -73.1140588 39.99078905 -74.1875 49.0703125 C-74.46722875 56.51809056 -73.15524515 62.2739462 -69.8125 68.8984375 C-69.43867187 69.64996094 -69.06484375 70.40148437 -68.6796875 71.17578125 C-68.39351562 71.74425781 -68.10734375 72.31273437 -67.8125 72.8984375 C-66.8225 72.8984375 -65.8325 72.8984375 -64.8125 72.8984375 C-64.544375 73.4965625 -64.27625 74.0946875 -64 74.7109375 C-60.71445084 80.76326489 -54.86972052 81.96973912 -48.671875 83.875 C-39.87785318 86.20701793 -32.79571881 85.35964801 -24.8125 80.8984375 C-16.5447169 74.88291255 -10.60689721 67.51250133 -8.234375 57.4453125 C-6.71788436 46.96174679 -10.86480178 38.33983211 -16.8125 29.8984375 C-19.6343828 26.63893652 -22.87377892 25.57604093 -26.8125 23.8984375 C-27.3075 22.9084375 -27.3075 22.9084375 -27.8125 21.8984375 C-38.67491187 17.63866814 -52.06213156 21.10474031 -61.8125 26.8984375 Z " fill="#FDFDFD" transform="translate(150.8125,149.1015625)"/>
<path d="M0 0 C0.81855469 0.01675781 1.63710938 0.03351563 2.48046875 0.05078125 C17.92858235 1.06519772 30.75771815 9.93999431 42.1015625 19.69140625 C44.38108588 22.46341925 44.7061099 24.46825168 45 28 C31.89333562 37.55615588 31.89333562 37.55615588 25.4375 41.6875 C24.69371094 42.16574219 23.94992187 42.64398438 23.18359375 43.13671875 C20.37366102 44.24762239 18.84552204 43.91395907 16 43 C15.278125 42.401875 14.55625 41.80375 13.8125 41.1875 C7.69904624 36.43259152 -0.22383627 33.69752361 -8 34 C-16.92441398 35.25934743 -25.84282429 38.187336 -31.8828125 45.1796875 C-37.97112104 53.91508671 -39.21100845 62.46949178 -38 73 C-34.74601189 82.66401819 -28.83666603 89.93269654 -20 95 C-11.96518837 98.21616588 -2.70910637 98.36915854 5.4375 95.375 C11.82458879 92.40206229 16.81285899 88.37428201 20 82 C18.515 82.495 18.515 82.495 17 83 C14.77252169 83.09623159 12.54205083 83.12982065 10.3125 83.125 C8.54326172 83.12886719 8.54326172 83.12886719 6.73828125 83.1328125 C2.75753061 82.99138562 -1.05692343 82.54777028 -5 82 C-5.02886751 77.85418113 -5.04675327 73.70838784 -5.0625 69.5625 C-5.07087891 68.37849609 -5.07925781 67.19449219 -5.08789062 65.97460938 C-5.09111328 64.84990234 -5.09433594 63.72519531 -5.09765625 62.56640625 C-5.10289307 61.52427979 -5.10812988 60.48215332 -5.11352539 59.40844727 C-5 57 -5 57 -4 56 C-2.23099965 55.89583207 -0.45784292 55.8614618 1.31420898 55.85473633 C2.44886093 55.84835648 3.58351288 55.84197662 4.75254822 55.83540344 C5.98791824 55.83429062 7.22328827 55.8331778 8.49609375 55.83203125 C9.75511002 55.82870285 11.01412628 55.82537445 12.31129456 55.82194519 C14.98043335 55.81687057 17.64947041 55.81410586 20.31860352 55.81469727 C23.74312715 55.8147989 27.16744351 55.80114799 30.59191799 55.78392506 C33.85163564 55.77014884 37.11135092 55.77071674 40.37109375 55.76953125 C41.60443954 55.76234573 42.83778534 55.75516022 44.10850525 55.74775696 C45.81521141 55.7523719 45.81521141 55.7523719 47.55639648 55.75708008 C49.06410866 55.75494255 49.06410866 55.75494255 50.60227966 55.75276184 C53 56 53 56 55 58 C58.57004744 72.79019655 53.96378671 90.72466301 46.51953125 103.55078125 C43.76388465 107.87905907 40.81339317 111.54134108 37 115 C36.36449219 115.62777344 35.72898437 116.25554687 35.07421875 116.90234375 C22.49785989 128.89791161 6.26743646 131.53765176 -10.55981445 131.34912109 C-27.95337725 130.79490982 -43.3397677 122.59107059 -56 111 C-66.70445126 99.03110708 -72.03253908 83.90619576 -73 68 C-73.06445312 67.26910156 -73.12890625 66.53820312 -73.1953125 65.78515625 C-74.05042998 48.65430276 -66.12160325 32.49594586 -55 20 C-54.38382812 19.28972656 -53.76765625 18.57945312 -53.1328125 17.84765625 C-39.00851719 2.58052377 -19.83150861 -0.44732726 0 0 Z " fill="#FDFDFD" transform="translate(521,136)"/>
<path d="M0 0 C3.40463813 2.87531819 6.37124395 5.63174073 8.8125 9.375 C8.64386374 12.46473347 8.27715019 13.90740608 6.07836914 16.12011719 C5.34223389 16.63219727 4.60609863 17.14427734 3.84765625 17.671875 C3.04779297 18.23777344 2.24792969 18.80367187 1.42382812 19.38671875 C0.1621582 20.24716797 0.1621582 20.24716797 -1.125 21.125 C-2.38086914 22.00865234 -2.38086914 22.00865234 -3.66210938 22.91015625 C-12.12242523 28.83169671 -12.12242523 28.83169671 -17.05859375 28.80078125 C-20.73138538 28.06622292 -23.58559687 25.94580696 -26.66015625 23.8828125 C-34.75065517 19.05602334 -44.5646663 18.97092422 -53.55078125 21.21484375 C-62.17063894 24.46782689 -68.62983748 29.49198195 -72.6875 37.875 C-75.61363031 46.37783605 -75.87256599 56.86393467 -72 65.0625 C-69.83080188 68.70626538 -67.42779736 71.60889249 -64.1875 74.375 C-63.300625 75.24125 -62.41375 76.1075 -61.5 77 C-55.17322411 82.10327724 -47.0336963 82.94347828 -39.15234375 82.73046875 C-32.44948469 81.92683216 -25.93107269 79.25808953 -21.1875 74.375 C-19.8675 72.065 -18.5475 69.755 -17.1875 67.375 C-25.1075 67.375 -33.0275 67.375 -41.1875 67.375 C-41.2143245 63.22912418 -41.23425315 59.08341962 -41.25 54.9375 C-41.25837891 53.75349609 -41.26675781 52.56949219 -41.27539062 51.34960938 C-41.27861328 50.22490234 -41.28183594 49.10019531 -41.28515625 47.94140625 C-41.29039307 46.89927979 -41.29562988 45.85715332 -41.30102539 44.78344727 C-41.1875 42.375 -41.1875 42.375 -40.1875 41.375 C-38.41849965 41.27083207 -36.64534292 41.2364618 -34.87329102 41.22973633 C-33.73863907 41.22335648 -32.60398712 41.21697662 -31.43495178 41.21040344 C-30.19958176 41.20929062 -28.96421173 41.2081778 -27.69140625 41.20703125 C-26.43238998 41.20370285 -25.17337372 41.20037445 -23.87620544 41.19694519 C-21.20706665 41.19187057 -18.53802959 41.18910586 -15.86889648 41.18969727 C-12.44437285 41.1897989 -9.02005649 41.17614799 -5.59558201 41.15892506 C-2.33586436 41.14514884 0.92385092 41.14571674 4.18359375 41.14453125 C5.41693954 41.13734573 6.65028534 41.13016022 7.92100525 41.12275696 C9.62771141 41.1273719 9.62771141 41.1273719 11.36889648 41.13208008 C12.87660866 41.12994255 12.87660866 41.12994255 14.41477966 41.12776184 C16.8125 41.375 16.8125 41.375 18.8125 43.375 C21.91053172 59.43979349 18.14921877 76.54254602 9.95703125 90.546875 C0.21157569 104.63012815 -13.23844941 112.86040774 -30.07910156 116.06152344 C-48.97284064 118.87064351 -68.27094095 114.65282339 -83.8359375 103.47265625 C-87.64148787 100.31471709 -87.64148787 100.31471709 -89.1875 98.375 C-89.1875 97.385 -89.1875 96.395 -89.1875 95.375 C-89.77660156 95.30152344 -90.36570312 95.22804688 -90.97265625 95.15234375 C-96.73368659 93.13039483 -100.20479008 84.58919483 -102.9375 79.4375 C-106.57506267 71.81537033 -108.51056661 63.76897407 -109.1875 55.375 C-109.26677734 54.41980469 -109.26677734 54.41980469 -109.34765625 53.4453125 C-110.15346498 34.87667662 -102.49793766 17.92152668 -90.1875 4.375 C-89.42953125 3.44494141 -89.42953125 3.44494141 -88.65625 2.49609375 C-66.36108507 -22.92721932 -24.65121286 -18.48840964 0 0 Z " fill="#FDFDFD" transform="translate(422.1875,150.625)"/>
<path d="M0 0 C1.23583832 -0.00960754 2.47167664 -0.01921509 3.7449646 -0.02911377 C5.09380914 -0.03396618 6.44265585 -0.03824392 7.79150391 -0.04199219 C8.4764455 -0.04481956 9.1613871 -0.04764694 9.8670845 -0.05056 C13.50123731 -0.06554376 17.13535061 -0.07477473 20.76953125 -0.07910156 C24.48544574 -0.0845445 28.20098602 -0.10848489 31.91678429 -0.13707352 C34.80482956 -0.1559135 37.69278918 -0.16091696 40.58089066 -0.16243744 C42.60453826 -0.16685686 44.62813963 -0.18540876 46.65170288 -0.20440674 C63.71535026 -0.16400015 78.01430581 3.54848741 90.59619141 15.48925781 C97.96476039 24.06085846 101.09645627 34.05284707 101.89306641 45.16113281 C101.99748047 46.29228516 101.99748047 46.29228516 102.10400391 47.44628906 C102.78283432 61.41453022 97.85554826 75.30457244 89.48291016 86.33691406 C81.175338 95.39630271 68.17116924 100.7076436 55.9315033 101.24768066 C53.69143482 101.276239 51.45357849 101.27364373 49.21337891 101.25878906 C48.40061493 101.25737411 47.58785095 101.25595917 46.75045776 101.25450134 C44.17295539 101.24893616 41.5955422 101.23639021 39.01806641 101.22363281 C37.26285933 101.21861331 35.50765089 101.21405119 33.75244141 101.20996094 C29.46592167 101.19983211 25.17959302 101.18025013 20.89306641 101.16113281 C20.89306641 110.73113281 20.89306641 120.30113281 20.89306641 130.16113281 C10.66306641 130.16113281 0.43306641 130.16113281 -10.10693359 130.16113281 C-10.10693359 87.59113281 -10.10693359 45.02113281 -10.10693359 1.16113281 C-6.46897853 0.25164405 -3.71421006 0.0233557 0 0 Z M20.89306641 32.16113281 C20.89306641 44.04113281 20.89306641 55.92113281 20.89306641 68.16113281 C28.53462891 68.22300781 28.53462891 68.22300781 36.33056641 68.28613281 C37.91925537 68.30434082 39.50794434 68.32254883 41.14477539 68.34130859 C53.28359765 69.00602573 53.28359765 69.00602573 63.83056641 64.35644531 C64.18119141 63.67324219 64.53181641 62.99003906 64.89306641 62.28613281 C65.26431641 61.60808594 65.63556641 60.93003906 66.01806641 60.23144531 C68.45448938 54.46669453 68.76352091 48.32685219 67.89306641 42.16113281 C65.67481867 38.08264567 62.71203375 35.70711104 58.89306641 33.16113281 C55.99647291 32.91991933 53.1877309 32.78813839 50.28759766 32.74707031 C49.02879036 32.71802109 49.02879036 32.71802109 47.74455261 32.68838501 C45.06499383 32.62862068 42.385392 32.58221669 39.70556641 32.53613281 C37.88849041 32.49795011 36.07143246 32.45889821 34.25439453 32.41894531 C29.80071254 32.32128577 25.34722199 32.24169346 20.89306641 32.16113281 Z " fill="#FDFDFE" transform="translate(196.10693359375,135.8388671875)"/>
<path d="M0 0 C4.64425866 2.49413891 8.31375022 4.94125067 10 10 C10.3684431 15.61875724 10.19190228 19.15711379 7 24 C2.34298446 28.20267256 -0.53005855 29.34838368 -6.6796875 29.2890625 C-11.3235353 28.71053601 -15.07952656 25.53530995 -18 22 C-19.80666064 16.58001809 -19.67788512 11.86660264 -17.375 6.6875 C-13.60622499 0.0035053 -7.17761725 -1.18340643 0 0 Z " fill="#FDFDFD" transform="translate(301,238)"/>
<path d="M0 0 C0.33 1.32 0.66 2.64 1 4 C-4.01989102 8.11888494 -7.59858988 8.51211281 -14 8 C-14 7.34 -14 6.68 -14 6 C-11.36 6 -8.72 6 -6 6 C-6 5.34 -6 4.68 -6 4 C-4.68 4 -3.36 4 -2 4 C-1.34 2.68 -0.68 1.36 0 0 Z " fill="#F6F7F8" transform="translate(306,259)"/>
<path d="M0 0 C2.39611639 0.31044024 4.79187835 0.62328358 7.1875 0.9375 C8.19780273 1.06801758 8.19780273 1.06801758 9.22851562 1.20117188 C12.85081166 1.67825477 16.42803585 2.23012035 20 3 C20 3.33 20 3.66 20 4 C12.95559921 4.21133202 6.75887425 4.07965362 0 2 C0 1.34 0 0.68 0 0 Z " fill="#F4F5F7" transform="translate(364,232)"/>
</svg>
