<?xml version="1.0" encoding="UTF-8"?>
<svg version="1.1" xmlns="http://www.w3.org/2000/svg" width="2048" height="1331">
<path d="M0 0 C675.84 0 1351.68 0 2048 0 C2048 439.23 2048 878.46 2048 1331 C1372.16 1331 696.32 1331 0 1331 C0 891.77 0 452.54 0 0 Z " fill="#5383E8" transform="translate(0,0)"/>
<path d="M0 0 C0.68415985 -0.00376648 1.3683197 -0.00753296 2.07321167 -0.01141357 C12.24048027 -0.03984237 22.07717643 0.83675627 32.125 2.3125 C32.99141113 2.43810303 33.85782227 2.56370605 34.75048828 2.69311523 C77.74741291 9.25764232 117.51453057 29.71560757 148.65039062 59.88476562 C150.0842092 61.27300586 151.53409281 62.6445932 152.984375 64.015625 C186.02832574 95.93944182 205.94171783 140.19111995 212.125 185.3125 C212.29700928 186.55708984 212.46901855 187.80167969 212.64624023 189.08398438 C219.23737055 242.47722839 202.34599394 298.07475048 169.7421875 340.40625 C167.58230592 343.08540625 165.37753724 345.71092095 163.125 348.3125 C162.41988281 349.12847656 161.71476562 349.94445312 160.98828125 350.78515625 C151.4278476 361.61573727 141.44631774 371.36726109 129.87207031 380.00537109 C128.20174451 381.25508103 126.55002836 382.52648041 124.8984375 383.80078125 C109.5295536 395.43629552 92.18156303 403.89749521 74.15771484 410.55322266 C72.49523992 411.17420476 70.84848133 411.83712012 69.20703125 412.51171875 C21.21011528 431.81731452 -37.77198289 426.0495352 -84.33081055 406.21411133 C-136.70595213 383.10551667 -175.93036323 340.74715304 -197.875 288.3125 C-198.34679687 287.21808594 -198.81859375 286.12367188 -199.3046875 284.99609375 C-218.54804764 238.20245713 -216.35115451 180.64356326 -197.6875 134.25 C-187.25054849 109.34303639 -173.35273716 87.0519449 -154.875 67.3125 C-154.31312988 66.71211914 -153.75125977 66.11173828 -153.17236328 65.49316406 C-145.03904922 56.89869454 -136.42065978 49.29793658 -126.875 42.3125 C-125.82828125 41.54421875 -124.7815625 40.7759375 -123.703125 39.984375 C-87.19751198 14.01271997 -44.79161053 0.13522091 0 0 Z " fill="#FEFEFE" transform="translate(361.875,453.6875)"/>
<path d="M0 0 C36.444375 -0.0825 72.88875 -0.165 110.4375 -0.25 C127.63766235 -0.30462402 127.63766235 -0.30462402 145.18530273 -0.36035156 C159.2911377 -0.37841797 159.2911377 -0.37841797 165.91468811 -0.3817749 C170.49700318 -0.38547058 175.079129 -0.4003354 179.66139221 -0.42230225 C185.53763867 -0.45009159 191.41361677 -0.45790061 197.28992283 -0.4522891 C199.42695983 -0.45345948 201.56400791 -0.46117988 203.7009877 -0.47686052 C232.79183112 -0.68010661 260.52461821 4.56373626 286 19 C287.01102783 19.57041016 287.01102783 19.57041016 288.04248047 20.15234375 C298.98080526 26.42190271 307.74073153 33.72218555 316.63671875 42.64453125 C317.94640747 43.94989042 319.26782945 45.2447628 320.6328125 46.4921875 C342.37122268 66.63720636 354.60014901 97.51997194 360 126 C360.16371094 126.86286621 360.32742188 127.72573242 360.49609375 128.61474609 C368.59139709 173.4148907 359.92995887 219.93685741 334.5625 257.875 C310.73576515 290.9046536 277.51781718 312.97814275 237.3984375 320.61450195 C229.52397444 321.88015517 221.94736014 322.13730258 213.97460938 322.11352539 C212.68596985 322.11367142 211.39733032 322.11381744 210.06964111 322.1139679 C206.55781599 322.11425331 203.04602543 322.10839809 199.5342083 322.10139394 C195.85601861 322.09511766 192.17782801 322.09455323 188.49963379 322.09336853 C181.54419664 322.09026778 174.58877532 322.08207139 167.63334513 322.07201904 C158.2275826 322.05872213 148.82181571 322.05334785 139.41604614 322.04751682 C124.61068559 322.0381306 109.80535842 322.01820331 95 322 C95 355 95 388 95 422 C63.65 422 32.3 422 0 422 C0 282.74 0 143.48 0 0 Z " fill="#FEFEFE" transform="translate(616,454)"/>
<path d="M0 0 C1.09989761 -0.00151062 1.09989761 -0.00151062 2.22201538 -0.00305176 C13.31527349 0.00722692 24.03679008 0.61495787 34.93212891 2.81005859 C37.23370785 3.25901348 39.5382877 3.62924075 41.85546875 3.98828125 C90.53133552 11.98605787 138.48171677 41.87748921 168.1875 81.25 C168.5175 81.91 168.8475 82.57 169.1875 83.25 C168.71842728 83.55779892 168.24935455 83.86559784 167.7660675 84.182724 C141.10775711 101.67933744 114.55643529 119.31998293 88.1875 137.25 C84.52649635 135.54534217 82.34083238 133.51730626 79.5625 130.5625 C60.63242485 111.38515246 32.84062731 101.17851916 6.16235352 100.86962891 C4.85065186 100.87140137 3.5389502 100.87317383 2.1875 100.875 C1.50630096 100.87554382 0.82510193 100.87608765 0.1232605 100.87664795 C-11.23751914 100.91823024 -21.91915232 101.86850173 -32.8125 105.25 C-33.49763672 105.45898926 -34.18277344 105.66797852 -34.88867188 105.88330078 C-50.29927606 110.74923186 -63.69150303 118.63143816 -75.8125 129.25 C-76.64652344 129.89066406 -77.48054688 130.53132812 -78.33984375 131.19140625 C-96.86244916 146.61227994 -107.96001095 172.04827805 -111.8125 195.25 C-112.22759637 200.30050507 -112.29072192 205.30925632 -112.25 210.375 C-112.24444092 211.38413956 -112.24444092 211.38413956 -112.23876953 212.41366577 C-111.99296007 243.92429765 -100.44063731 270.01673986 -78.625 292.8125 C-64.64547244 306.44685404 -46.58498029 316.1082358 -27.8125 321.25 C-26.70519531 321.56839844 -25.59789062 321.88679688 -24.45703125 322.21484375 C3.35790889 329.03500421 35.61536224 323.85771224 60.1875 309.25 C77.80697421 297.5412841 90.00439053 282.98243787 95.1875 262.25 C66.8075 262.25 38.4275 262.25 9.1875 262.25 C9.1875 237.17 9.1875 212.09 9.1875 186.25 C71.8875 186.25 134.5875 186.25 199.1875 186.25 C200.31694198 200.9327457 200.31694198 200.9327457 200.35546875 207.40234375 C200.3596582 208.10156448 200.36384766 208.80078522 200.36816406 209.52119446 C200.37777934 211.74335637 200.37797791 213.96532108 200.375 216.1875 C200.37459213 217.33611511 200.37459213 217.33611511 200.37417603 218.50793457 C200.34502666 236.42383586 199.14546856 253.73898756 195.1875 271.25 C194.97351562 272.35859375 194.75953125 273.4671875 194.5390625 274.609375 C185.51854086 320.66709726 160.26096708 362.16543455 121.36547852 388.87231445 C103.37420098 400.92147064 83.95297082 409.29664126 63.1875 415.25 C62.34791748 415.50040039 61.50833496 415.75080078 60.64331055 416.00878906 C53.45892936 418.0821471 46.27289281 419.32837965 38.875 420.375 C37.67512451 420.54676758 36.47524902 420.71853516 35.23901367 420.89550781 C27.21125206 422.0199512 19.29756497 423.03268851 11.1875 423.25 C10.39005371 423.28109863 9.59260742 423.31219727 8.77099609 423.34423828 C-36.85481002 424.9881882 -83.65490525 412.26384261 -120.8125 385.25 C-121.76769531 384.56679688 -122.72289062 383.88359375 -123.70703125 383.1796875 C-139.50575723 371.62570441 -153.68389555 358.65041012 -165.8125 343.25 C-166.60398437 342.28707031 -167.39546875 341.32414062 -168.2109375 340.33203125 C-175.50788352 331.25113155 -181.24597294 321.4657077 -186.8125 311.25 C-187.37348389 310.23099609 -187.37348389 310.23099609 -187.94580078 309.19140625 C-213.50089226 262.3030612 -218.91347734 204.81103059 -204.15893555 153.67675781 C-203.40426645 151.19128427 -202.62034215 148.71866302 -201.8125 146.25 C-201.57805176 145.53247559 -201.34360352 144.81495117 -201.10205078 144.07568359 C-193.3096018 120.83031884 -181.33782508 99.19330362 -165.8125 80.25 C-165.38501465 79.72100098 -164.9575293 79.19200195 -164.51708984 78.64697266 C-129.85447466 35.84204624 -79.41609165 8.14423316 -24.8125 1.25 C-24.15757568 1.1557373 -23.50265137 1.06147461 -22.82788086 0.96435547 C-15.25313861 -0.03441347 -7.62726707 0.00728253 0 0 Z " fill="#FEFEFE" transform="translate(1251.8125,453.75)"/>
<path d="M0 0 C7.79583727 7.26082883 15.07736506 15.11604758 21 24 C20.53092728 24.30779892 20.06185455 24.61559784 19.5785675 24.932724 C-7.07974289 42.42933744 -33.63106471 60.06998293 -60 78 C-63.58204052 76.32928435 -65.63079019 74.42718584 -68.3125 71.5 C-80.47250585 59.14386502 -96.15106695 51.16248612 -112.625 46.1875 C-113.26872559 45.99244873 -113.91245117 45.79739746 -114.57568359 45.59643555 C-144.48971905 37.163817 -177.46832636 40.87028787 -204.58984375 55.9453125 C-211.5348051 60.07825333 -217.8168996 64.81344325 -224 70 C-225.5159375 71.1446875 -225.5159375 71.1446875 -227.0625 72.3125 C-243.10377861 86.98856341 -254.07196486 108.02489566 -259 129 C-259.22558594 129.93714844 -259.45117188 130.87429688 -259.68359375 131.83984375 C-265.52110251 160.5442834 -257.87263004 191.51600655 -241.87988281 215.69335938 C-225.82450838 238.88596631 -202.4951603 255.44297444 -175 262 C-173.96359375 262.29777344 -172.9271875 262.59554688 -171.859375 262.90234375 C-146.05208765 269.6658478 -114.24411773 265.00465578 -91.1328125 251.86328125 C-83.71728627 247.41141655 -77.12604028 242.10465794 -71 236 C-70.29230469 235.31550781 -69.58460938 234.63101562 -68.85546875 233.92578125 C-60.31894368 225.09545608 -56.48957713 214.63192375 -53 203 C-81.38 203 -109.76 203 -139 203 C-139 177.92 -139 152.84 -139 127 C-76.3 127 -13.6 127 51 127 C53.43328961 156.19947527 52.05455554 184.18788554 47 213 C46.7522583 214.46034668 46.7522583 214.46034668 46.49951172 215.95019531 C38.59255795 261.25537672 11.27345002 302.8062111 -26.0078125 329.296875 C-32.39414866 333.70492048 -39.12520032 337.41827513 -46 341 C-47.08539062 341.58136719 -48.17078125 342.16273438 -49.2890625 342.76171875 C-71.83243735 354.08620096 -96.12357336 359.87426895 -121 363 C-121.84546387 363.10908691 -122.69092773 363.21817383 -123.56201172 363.33056641 C-175.91174777 369.36885803 -229.42736561 354.65272058 -272 324 C-272.59071289 323.57895996 -273.18142578 323.15791992 -273.79003906 322.72412109 C-317.44449158 291.34195386 -348.70840187 241.53710454 -357.62548828 188.4453125 C-361.22230922 164.96046337 -361.67355949 140.60049385 -357.39697266 117.20166016 C-357.04484156 115.24869693 -356.74328775 113.28676431 -356.44921875 111.32421875 C-350.50156647 75.59784485 -332.47766008 42.14800094 -309 15 C-308.1853125 14.05511719 -307.370625 13.11023438 -306.53125 12.13671875 C-278.90409617 -19.13838673 -240.77561625 -43.17134983 -200 -53 C-199.30116699 -53.16983398 -198.60233398 -53.33966797 -197.88232422 -53.51464844 C-126.24376585 -70.62374918 -53.96596768 -48.67486334 0 0 Z " fill="#FEFEFE" transform="translate(1846,513)"/>
<path d="M0 0 C22.20722478 18.15932558 37.74847841 44.24970384 41 73 C41.95775685 89.63954723 41.1488943 105.1020196 36 121 C35.77538086 121.69512695 35.55076172 122.39025391 35.31933594 123.10644531 C25.90442984 151.10448484 4.66995006 173.67008987 -21.48339844 186.93237305 C-45.55316995 198.51426391 -77.58731492 201.89683146 -103.15234375 193.4140625 C-104.43703257 192.94856359 -105.71976251 192.47760504 -107 192 C-108.09441406 191.61585938 -109.18882812 191.23171875 -110.31640625 190.8359375 C-122.36463531 186.2177115 -133.27824059 179.43197375 -143 171 C-143.80824219 170.33613281 -144.61648438 169.67226563 -145.44921875 168.98828125 C-165.93619919 151.58882062 -179.20275481 125.65530244 -182 99 C-184.46144385 66.24270332 -175.68688708 37.6917435 -154.42578125 12.6484375 C-113.77705819 -31.73132777 -47.30805671 -36.76854027 0 0 Z " fill="#5383E8" transform="translate(433,579)"/>
<path d="M0 0 C20.109375 -0.04125 40.21875 -0.0825 60.9375 -0.125 C67.27702881 -0.14320801 73.61655762 -0.16141602 80.14819336 -0.18017578 C87.91516113 -0.18920898 87.91516113 -0.18920898 91.5561676 -0.19088745 C94.08827925 -0.19394996 96.62038806 -0.20096612 99.15248108 -0.21115112 C102.99745722 -0.22583817 106.84225577 -0.22781037 110.68725586 -0.22705078 C112.36714427 -0.23784511 112.36714427 -0.23784511 114.08096981 -0.2488575 C128.15768955 -0.21175229 140.51758801 3.68801897 150.90625 13.625 C163.5450757 27.9615784 167.17229281 45.066915 167.25 63.6875 C167.2809375 65.5118457 167.2809375 65.5118457 167.3125 67.37304688 C167.37965213 83.01109831 162.40798639 97.4640386 153 110 C152.37867188 110.83660156 151.75734375 111.67320312 151.1171875 112.53515625 C143.70657147 121.16264466 131.2721154 126.22859235 120.08119583 127.27219009 C111.60146658 127.70270986 103.11588977 127.5746681 94.62890625 127.48828125 C92.20178807 127.48091573 89.77466192 127.47582354 87.34753418 127.47302246 C78.41906712 127.44697142 69.49077089 127.37716527 60.5625 127.3125 C30.5840625 127.1578125 30.5840625 127.1578125 0 127 C0 85.09 0 43.18 0 0 Z " fill="#5383E8" transform="translate(711,552)"/>
<path d="M0 0 C7.77990981 7.12937128 13.83721197 17.66292299 14.75 28.27734375 C15.08699523 40.53878549 12.63922275 51.56759951 4.421875 61.13671875 C-4.06895911 69.69575233 -13.58216764 75.13099924 -25.76757812 75.33959961 C-39.87308667 75.38733154 -49.09055631 72.79210651 -59.75390625 63.0625 C-68.61436365 53.90281514 -71.8359375 42.81769936 -71.8359375 30.37426758 C-71.61182161 19.07042233 -66.90692472 10.53207778 -59.5234375 2.09765625 C-57.02079953 -0.24007922 -54.44930615 -2.12961157 -51.5234375 -3.90234375 C-50.88664063 -4.29035156 -50.24984375 -4.67835938 -49.59375 -5.078125 C-33.57029021 -13.92642107 -14.23088589 -10.72823751 0 0 Z " fill="#FDFEFE" transform="translate(1007.5234375,800.90234375)"/>
</svg>
